<?xml version='1.0' encoding='utf-8'?>
<svg xmlns="http://www.w3.org/2000/svg" width="1000" height="540" viewBox="0 0 1000 540" role="img" aria-labelledby="title desc">
  <title id="title">Aswath's terminal-style GitHub profile</title>
  <desc id="desc">An ASCII portrait of Aswath beside recruiter-focused experience, projects, skills, education, and contact details.</desc>
  <defs><clipPath id="portrait-clip"><rect x="8" y="8" width="365" height="524" rx="12" /></clipPath></defs><style>
    .bg{fill:#161b22}.border{fill:none;stroke:#30363d;stroke-width:2}.text{fill:#c9d1d9}.muted{fill:#6e7681}.key{fill:#ffa657}.value{fill:#a5d6ff}.green{fill:#3fb950}
    text{font-family:Consolas,"SFMono-Regular",Menlo,"Liberation Mono",monospace;white-space:pre}.head{font-size:15px;font-weight:700}.body{font-size:15px}.small{font-size:15px}
  </style>
  <rect class="bg" width="1000" height="540" rx="15" />
  <rect class="border" x="1" y="1" width="998" height="538" rx="14" />

  <g id="portrait_vectors" clip-path="url(#portrait-clip)" transform="translate(8 8) scale(1.825)"><rect width="200" height="287" fill="#0e131c" /><path fill="#303945" d="M89 3h4v1h-4zM71 4h2v1h-2zM87 4h2v1h-2zM94 4h1v1h-1zM64 5h3v1h-3zM70 5h1v1h-1zM95 5h2v1h-2zM101 5h1v1h-1zM109 5h1v1h-1zM63 6h2v1h-2zM68 6h2v1h-2zM78 6h3v1h-3zM89 6h3v1h-3zM99 6h4v1h-4zM109 6h3v1h-3zM118 6h1v1h-1zM122 6h3v1h-3zM60 7h1v1h-1zM62 7h2v1h-2zM67 7h3v1h-3zM76 7h3v1h-3zM80 7h2v1h-2zM91 7h3v1h-3zM97 7h7v1h-7zM105 7h1v1h-1zM119 7h1v1h-1zM125 7h2v1h-2zM59 8h3v1h-3zM66 8h3v1h-3zM75 8h2v1h-2zM85 8h1v1h-1zM93 8h2v1h-2zM97 8h1v1h-1zM104 8h3v1h-3zM112 8h2v1h-2zM120 8h1v1h-1zM126 8h3v1h-3zM58 9h4v1h-4zM65 9h4v1h-4zM75 9h2v1h-2zM85 9h2v1h-2zM90 9h9v1h-9zM106 9h6v1h-6zM113 9h2v1h-2zM120 9h2v1h-2zM127 9h3v1h-3zM65 10h1v1h-1zM67 10h2v1h-2zM74 10h1v1h-1zM81 10h1v1h-1zM89 10h1v1h-1zM94 10h4v1h-4zM111 10h1v1h-1zM115 10h1v1h-1zM129 10h1v1h-1zM51 11h1v1h-1zM57 11h5v1h-5zM65 11h4v1h-4zM74 11h1v1h-1zM79 11h2v1h-2zM83 11h1v1h-1zM87 11h2v1h-2zM90 11h1v1h-1zM95 11h5v1h-5zM102 11h7v1h-7zM112 11h1v1h-1zM115 11h1v1h-1zM118 11h6v1h-6zM128 11h2v1h-2zM50 12h4v1h-4zM58 12h1v1h-1zM62 12h3v1h-3zM66 12h1v1h-1zM71 12h1v1h-1zM77 12h2v1h-2zM84 12h1v1h-1zM92 12h2v1h-2zM98 12h1v1h-1zM101 12h1v1h-1zM105 12h5v1h-5zM112 12h1v1h-1zM115 12h1v1h-1zM118 12h2v1h-2zM123 12h2v1h-2zM133 12h2v1h-2zM49 13h1v1h-1zM57 13h2v1h-2zM65 13h2v1h-2zM68 13h1v1h-1zM70 13h1v1h-1zM77 13h2v1h-2zM81 13h1v1h-1zM89 13h2v1h-2zM98 13h2v1h-2zM103 13h9v1h-9zM113 13h1v1h-1zM115 13h1v1h-1zM117 13h3v1h-3zM124 13h3v1h-3zM130 13h1v1h-1zM47 14h1v1h-1zM57 14h1v1h-1zM60 14h1v1h-1zM64 14h2v1h-2zM72 14h1v1h-1zM75 14h1v1h-1zM80 14h1v1h-1zM83 14h1v1h-1zM87 14h2v1h-2zM94 14h6v1h-6zM106 14h6v1h-6zM113 14h1v1h-1zM118 14h2v1h-2zM122 14h1v1h-1zM126 14h1v1h-1zM46 15h2v1h-2zM57 15h1v1h-1zM61 15h1v1h-1zM64 15h1v1h-1zM74 15h1v1h-1zM77 15h1v1h-1zM81 15h1v1h-1zM83 15h6v1h-6zM94 15h7v1h-7zM108 15h4v1h-4zM113 15h3v1h-3zM117 15h2v1h-2zM121 15h3v1h-3zM126 15h2v1h-2zM137 15h6v1h-6zM45 16h1v1h-1zM51 16h5v1h-5zM66 16h1v1h-1zM98 16h4v1h-4zM104 16h1v1h-1zM112 16h1v1h-1zM118 16h1v1h-1zM126 16h1v1h-1zM128 16h2v1h-2zM134 16h3v1h-3zM45 17h2v1h-2zM50 17h2v1h-2zM56 17h2v1h-2zM60 17h1v1h-1zM62 17h1v1h-1zM66 17h2v1h-2zM69 17h2v1h-2zM89 17h8v1h-8zM100 17h4v1h-4zM106 17h2v1h-2zM111 17h1v1h-1zM113 17h3v1h-3zM118 17h1v1h-1zM126 17h3v1h-3zM131 17h7v1h-7zM142 17h3v1h-3zM44 18h2v1h-2zM49 18h1v1h-1zM51 18h4v1h-4zM58 18h1v1h-1zM61 18h1v1h-1zM90 18h2v1h-2zM95 18h3v1h-3zM102 18h3v1h-3zM108 18h1v1h-1zM112 18h1v1h-1zM127 18h1v1h-1zM130 18h5v1h-5zM143 18h2v1h-2zM44 19h14v1h-14zM64 19h1v1h-1zM68 19h1v1h-1zM71 19h12v1h-12zM93 19h8v1h-8zM103 19h3v1h-3zM109 19h3v1h-3zM113 19h2v1h-2zM121 19h4v1h-4zM127 19h8v1h-8zM144 19h2v1h-2zM44 20h4v1h-4zM56 20h2v1h-2zM73 20h1v1h-1zM96 20h6v1h-6zM104 20h3v1h-3zM110 20h2v1h-2zM116 20h1v1h-1zM119 20h1v1h-1zM128 20h6v1h-6zM137 20h1v1h-1zM141 20h1v1h-1zM144 20h2v1h-2zM43 21h4v1h-4zM58 21h2v1h-2zM62 21h1v1h-1zM66 21h1v1h-1zM84 21h2v1h-2zM98 21h4v1h-4zM105 21h3v1h-3zM111 21h2v1h-2zM124 21h2v1h-2zM130 21h2v1h-2zM136 21h1v1h-1zM141 21h1v1h-1zM144 21h2v1h-2zM42 22h4v1h-4zM50 22h6v1h-6zM61 22h1v1h-1zM99 22h5v1h-5zM106 22h2v1h-2zM112 22h3v1h-3zM117 22h6v1h-6zM125 22h1v1h-1zM130 22h3v1h-3zM136 22h1v1h-1zM141 22h1v1h-1zM144 22h2v1h-2zM41 23h3v1h-3zM49 23h1v1h-1zM74 23h2v1h-2zM81 23h2v1h-2zM86 23h8v1h-8zM103 23h2v1h-2zM107 23h2v1h-2zM113 23h2v1h-2zM116 23h7v1h-7zM126 23h1v1h-1zM138 23h2v1h-2zM143 23h2v1h-2zM148 23h4v1h-4zM41 24h4v1h-4zM48 24h1v1h-1zM51 24h2v1h-2zM89 24h1v1h-1zM92 24h3v1h-3zM103 24h2v1h-2zM107 24h2v1h-2zM113 24h2v1h-2zM120 24h2v1h-2zM123 24h1v1h-1zM126 24h4v1h-4zM136 24h3v1h-3zM140 24h1v1h-1zM142 24h3v1h-3zM146 24h3v1h-3zM41 25h2v1h-2zM50 25h2v1h-2zM56 25h2v1h-2zM69 25h2v1h-2zM72 25h2v1h-2zM84 25h1v1h-1zM94 25h3v1h-3zM105 25h1v1h-1zM108 25h1v1h-1zM118 25h2v1h-2zM128 25h3v1h-3zM136 25h1v1h-1zM139 25h5v1h-5zM145 25h2v1h-2zM40 26h4v1h-4zM49 26h1v1h-1zM59 26h2v1h-2zM83 26h4v1h-4zM91 26h1v1h-1zM95 26h3v1h-3zM105 26h4v1h-4zM112 26h1v1h-1zM117 26h3v1h-3zM128 26h4v1h-4zM136 26h1v1h-1zM138 26h7v1h-7zM148 26h6v1h-6zM40 27h3v1h-3zM48 27h1v1h-1zM61 27h1v1h-1zM93 27h1v1h-1zM96 27h3v1h-3zM106 27h3v1h-3zM112 27h1v1h-1zM116 27h1v1h-1zM126 27h2v1h-2zM130 27h2v1h-2zM141 27h1v1h-1zM147 27h1v1h-1zM153 27h2v1h-2zM38 28h5v1h-5zM47 28h2v1h-2zM53 28h1v1h-1zM56 28h1v1h-1zM94 28h1v1h-1zM97 28h3v1h-3zM106 28h3v1h-3zM112 28h2v1h-2zM127 28h5v1h-5zM144 28h4v1h-4zM38 29h1v1h-1zM41 29h1v1h-1zM58 29h1v1h-1zM69 29h1v1h-1zM88 29h1v1h-1zM98 29h2v1h-2zM107 29h2v1h-2zM112 29h1v1h-1zM128 29h2v1h-2zM131 29h1v1h-1zM144 29h2v1h-2zM158 29h1v1h-1zM38 30h5v1h-5zM52 30h1v1h-1zM68 30h1v1h-1zM71 30h1v1h-1zM88 30h1v1h-1zM95 30h1v1h-1zM98 30h3v1h-3zM107 30h2v1h-2zM111 30h2v1h-2zM129 30h1v1h-1zM131 30h2v1h-2zM134 30h2v1h-2zM143 30h2v1h-2zM152 30h3v1h-3zM37 31h5v1h-5zM89 31h1v1h-1zM93 31h1v1h-1zM96 31h1v1h-1zM99 31h2v1h-2zM108 31h1v1h-1zM112 31h1v1h-1zM120 31h4v1h-4zM141 31h3v1h-3zM147 31h1v1h-1zM155 31h5v1h-5zM35 32h2v1h-2zM38 32h4v1h-4zM82 32h2v1h-2zM96 32h2v1h-2zM99 32h4v1h-4zM108 32h1v1h-1zM111 32h2v1h-2zM124 32h2v1h-2zM141 32h1v1h-1zM151 32h1v1h-1zM154 32h7v1h-7zM35 33h1v1h-1zM39 33h1v1h-1zM65 33h2v1h-2zM81 33h1v1h-1zM90 33h1v1h-1zM96 33h2v1h-2zM100 33h2v1h-2zM111 33h1v1h-1zM115 33h1v1h-1zM136 33h1v1h-1zM138 33h2v1h-2zM143 33h7v1h-7zM151 33h3v1h-3zM161 33h1v1h-1zM34 34h1v1h-1zM39 34h2v1h-2zM96 34h2v1h-2zM99 34h4v1h-4zM111 34h2v1h-2zM126 34h5v1h-5zM137 34h2v1h-2zM140 34h2v1h-2zM143 34h5v1h-5zM149 34h2v1h-2zM154 34h1v1h-1zM162 34h1v1h-1zM34 35h1v1h-1zM41 35h2v1h-2zM59 35h1v1h-1zM68 35h2v1h-2zM88 35h1v1h-1zM93 35h1v1h-1zM100 35h2v1h-2zM104 35h1v1h-1zM110 35h2v1h-2zM122 35h5v1h-5zM129 35h6v1h-6zM139 35h16v1h-16zM33 36h2v1h-2zM38 36h3v1h-3zM88 36h1v1h-1zM98 36h1v1h-1zM100 36h3v1h-3zM110 36h2v1h-2zM120 36h5v1h-5zM127 36h10v1h-10zM141 36h8v1h-8zM150 36h3v1h-3zM155 36h1v1h-1zM163 36h2v1h-2zM34 37h1v1h-1zM37 37h3v1h-3zM70 37h1v1h-1zM88 37h1v1h-1zM100 37h2v1h-2zM105 37h1v1h-1zM110 37h1v1h-1zM112 37h1v1h-1zM118 37h2v1h-2zM125 37h3v1h-3zM133 37h5v1h-5zM158 37h3v1h-3zM34 38h4v1h-4zM89 38h1v1h-1zM100 38h3v1h-3zM116 38h2v1h-2zM131 38h1v1h-1zM135 38h4v1h-4zM144 38h1v1h-1zM154 38h1v1h-1zM156 38h2v1h-2zM161 38h1v1h-1zM32 39h5v1h-5zM41 39h2v1h-2zM86 39h1v1h-1zM89 39h1v1h-1zM94 39h1v1h-1zM101 39h1v1h-1zM104 39h1v1h-1zM115 39h3v1h-3zM121 39h1v1h-1zM123 39h1v1h-1zM129 39h2v1h-2zM137 39h3v1h-3zM142 39h1v1h-1zM149 39h5v1h-5zM155 39h1v1h-1zM161 39h2v1h-2zM32 40h5v1h-5zM39 40h2v1h-2zM90 40h1v1h-1zM101 40h1v1h-1zM104 40h1v1h-1zM113 40h3v1h-3zM137 40h4v1h-4zM150 40h8v1h-8zM31 41h3v1h-3zM39 41h2v1h-2zM49 41h1v1h-1zM88 41h1v1h-1zM91 41h1v1h-1zM96 41h2v1h-2zM101 41h1v1h-1zM112 41h1v1h-1zM132 41h2v1h-2zM139 41h2v1h-2zM144 41h1v1h-1zM154 41h4v1h-4zM30 42h4v1h-4zM37 42h4v1h-4zM89 42h1v1h-1zM91 42h2v1h-2zM100 42h2v1h-2zM105 42h1v1h-1zM109 42h1v1h-1zM128 42h2v1h-2zM133 42h2v1h-2zM139 42h3v1h-3zM145 42h2v1h-2zM154 42h5v1h-5zM30 43h3v1h-3zM38 43h1v1h-1zM56 43h2v1h-2zM73 43h2v1h-2zM89 43h1v1h-1zM91 43h3v1h-3zM100 43h1v1h-1zM105 43h1v1h-1zM118 43h1v1h-1zM126 43h1v1h-1zM130 43h1v1h-1zM135 43h2v1h-2zM141 43h2v1h-2zM146 43h2v1h-2zM151 43h1v1h-1zM158 43h2v1h-2zM165 43h1v1h-1zM20 44h2v1h-2zM26 44h1v1h-1zM29 44h4v1h-4zM36 44h3v1h-3zM93 44h3v1h-3zM99 44h2v1h-2zM107 44h6v1h-6zM130 44h1v1h-1zM136 44h3v1h-3zM141 44h2v1h-2zM147 44h2v1h-2zM152 44h1v1h-1zM158 44h3v1h-3zM163 44h1v1h-1zM20 45h1v1h-1zM30 45h2v1h-2zM37 45h2v1h-2zM46 45h4v1h-4zM69 45h1v1h-1zM76 45h2v1h-2zM94 45h2v1h-2zM104 45h1v1h-1zM106 45h9v1h-9zM120 45h1v1h-1zM131 45h1v1h-1zM137 45h3v1h-3zM142 45h2v1h-2zM148 45h2v1h-2zM153 45h1v1h-1zM159 45h3v1h-3zM166 45h1v1h-1zM20 46h1v1h-1zM24 46h2v1h-2zM27 46h1v1h-1zM29 46h3v1h-3zM35 46h3v1h-3zM41 46h1v1h-1zM45 46h3v1h-3zM81 46h1v1h-1zM87 46h1v1h-1zM98 46h1v1h-1zM109 46h8v1h-8zM120 46h2v1h-2zM123 46h2v1h-2zM132 46h2v1h-2zM136 46h1v1h-1zM138 46h3v1h-3zM142 46h3v1h-3zM148 46h2v1h-2zM151 46h1v1h-1zM153 46h1v1h-1zM155 46h3v1h-3zM159 46h3v1h-3zM163 46h2v1h-2zM166 46h1v1h-1zM27 47h1v1h-1zM30 47h2v1h-2zM36 47h1v1h-1zM45 47h1v1h-1zM77 47h1v1h-1zM83 47h1v1h-1zM88 47h1v1h-1zM92 47h1v1h-1zM100 47h2v1h-2zM108 47h1v1h-1zM113 47h4v1h-4zM133 47h1v1h-1zM139 47h2v1h-2zM143 47h2v1h-2zM150 47h2v1h-2zM154 47h1v1h-1zM158 47h1v1h-1zM161 47h2v1h-2zM166 47h1v1h-1zM19 48h2v1h-2zM24 48h2v1h-2zM27 48h1v1h-1zM29 48h3v1h-3zM35 48h2v1h-2zM45 48h2v1h-2zM49 48h1v1h-1zM84 48h3v1h-3zM102 48h2v1h-2zM113 48h6v1h-6zM121 48h1v1h-1zM123 48h2v1h-2zM135 48h1v1h-1zM139 48h2v1h-2zM143 48h3v1h-3zM150 48h3v1h-3zM154 48h1v1h-1zM158 48h1v1h-1zM161 48h3v1h-3zM25 49h1v1h-1zM28 49h4v1h-4zM42 49h1v1h-1zM45 49h4v1h-4zM63 49h1v1h-1zM66 49h1v1h-1zM104 49h3v1h-3zM115 49h4v1h-4zM121 49h2v1h-2zM136 49h1v1h-1zM140 49h2v1h-2zM144 49h2v1h-2zM150 49h2v1h-2zM155 49h1v1h-1zM162 49h1v1h-1zM19 50h2v1h-2zM24 50h2v1h-2zM28 50h4v1h-4zM35 50h2v1h-2zM38 50h1v1h-1zM44 50h3v1h-3zM100 50h1v1h-1zM105 50h5v1h-5zM116 50h3v1h-3zM121 50h2v1h-2zM124 50h1v1h-1zM137 50h1v1h-1zM140 50h2v1h-2zM144 50h2v1h-2zM148 50h5v1h-5zM155 50h1v1h-1zM162 50h2v1h-2zM20 51h1v1h-1zM28 51h3v1h-3zM34 51h1v1h-1zM44 51h2v1h-2zM87 51h3v1h-3zM93 51h1v1h-1zM103 51h1v1h-1zM108 51h3v1h-3zM117 51h3v1h-3zM134 51h1v1h-1zM141 51h1v1h-1zM145 51h1v1h-1zM148 51h2v1h-2zM151 51h1v1h-1zM159 51h1v1h-1zM162 51h1v1h-1zM167 51h4v1h-4zM20 52h2v1h-2zM26 52h1v1h-1zM28 52h3v1h-3zM35 52h2v1h-2zM44 52h4v1h-4zM69 52h1v1h-1zM71 52h1v1h-1zM89 52h1v1h-1zM108 52h4v1h-4zM117 52h3v1h-3zM124 52h1v1h-1zM129 52h1v1h-1zM134 52h2v1h-2zM141 52h1v1h-1zM144 52h2v1h-2zM148 52h5v1h-5zM154 52h1v1h-1zM158 52h2v1h-2zM162 52h1v1h-1zM170 52h2v1h-2zM21 53h2v1h-2zM26 53h1v1h-1zM29 53h2v1h-2zM42 53h1v1h-1zM44 53h1v1h-1zM107 53h1v1h-1zM109 53h3v1h-3zM118 53h2v1h-2zM131 53h3v1h-3zM136 53h2v1h-2zM145 53h1v1h-1zM148 53h2v1h-2zM151 53h1v1h-1zM162 53h1v1h-1zM171 53h2v1h-2zM21 54h2v1h-2zM29 54h3v1h-3zM34 54h3v1h-3zM44 54h1v1h-1zM47 54h1v1h-1zM108 54h1v1h-1zM110 54h2v1h-2zM118 54h2v1h-2zM132 54h8v1h-8zM145 54h1v1h-1zM148 54h4v1h-4zM155 54h2v1h-2zM163 54h1v1h-1zM172 54h2v1h-2zM22 55h2v1h-2zM30 55h1v1h-1zM38 55h1v1h-1zM64 55h1v1h-1zM94 55h1v1h-1zM108 55h1v1h-1zM112 55h1v1h-1zM119 55h1v1h-1zM128 55h1v1h-1zM136 55h1v1h-1zM138 55h2v1h-2zM151 55h1v1h-1zM154 55h1v1h-1zM158 55h4v1h-4zM172 55h2v1h-2zM22 56h3v1h-3zM30 56h2v1h-2zM45 56h1v1h-1zM69 56h4v1h-4zM112 56h1v1h-1zM119 56h1v1h-1zM140 56h1v1h-1zM147 56h1v1h-1zM151 56h2v1h-2zM161 56h6v1h-6zM171 56h2v1h-2zM174 56h1v1h-1zM19 57h1v1h-1zM21 57h2v1h-2zM24 57h2v1h-2zM31 57h2v1h-2zM65 57h2v1h-2zM70 57h2v1h-2zM74 57h1v1h-1zM78 57h1v1h-1zM101 57h1v1h-1zM112 57h1v1h-1zM119 57h1v1h-1zM132 57h2v1h-2zM136 57h1v1h-1zM141 57h1v1h-1zM145 57h2v1h-2zM151 57h1v1h-1zM158 57h4v1h-4zM165 57h3v1h-3zM171 57h2v1h-2zM175 57h1v1h-1zM20 58h4v1h-4zM26 58h1v1h-1zM31 58h2v1h-2zM64 58h1v1h-1zM67 58h8v1h-8zM78 58h2v1h-2zM84 58h1v1h-1zM108 58h1v1h-1zM112 58h2v1h-2zM118 58h2v1h-2zM133 58h4v1h-4zM144 58h2v1h-2zM148 58h2v1h-2zM157 58h1v1h-1zM159 58h5v1h-5zM166 58h2v1h-2zM171 58h2v1h-2zM175 58h1v1h-1zM18 59h1v1h-1zM20 59h3v1h-3zM26 59h1v1h-1zM32 59h2v1h-2zM68 59h8v1h-8zM79 59h2v1h-2zM85 59h1v1h-1zM92 59h1v1h-1zM112 59h1v1h-1zM119 59h1v1h-1zM136 59h1v1h-1zM143 59h2v1h-2zM148 59h1v1h-1zM152 59h1v1h-1zM158 59h1v1h-1zM160 59h5v1h-5zM167 59h2v1h-2zM171 59h2v1h-2zM175 59h1v1h-1zM20 60h3v1h-3zM26 60h2v1h-2zM33 60h2v1h-2zM62 60h6v1h-6zM69 60h7v1h-7zM85 60h1v1h-1zM104 60h1v1h-1zM112 60h2v1h-2zM118 60h2v1h-2zM135 60h2v1h-2zM141 60h4v1h-4zM147 60h2v1h-2zM152 60h2v1h-2zM159 60h4v1h-4zM164 60h2v1h-2zM168 60h1v1h-1zM171 60h1v1h-1zM175 60h1v1h-1zM18 61h1v1h-1zM20 61h2v1h-2zM26 61h2v1h-2zM34 61h2v1h-2zM63 61h2v1h-2zM66 61h3v1h-3zM70 61h7v1h-7zM78 61h1v1h-1zM84 61h2v1h-2zM105 61h1v1h-1zM118 61h1v1h-1zM126 61h1v1h-1zM140 61h3v1h-3zM146 61h2v1h-2zM153 61h2v1h-2zM157 61h1v1h-1zM161 61h4v1h-4zM168 61h3v1h-3zM174 61h2v1h-2zM18 62h4v1h-4zM26 62h3v1h-3zM35 62h1v1h-1zM50 62h1v1h-1zM60 62h1v1h-1zM63 62h1v1h-1zM65 62h12v1h-12zM79 62h2v1h-2zM107 62h1v1h-1zM117 62h1v1h-1zM127 62h2v1h-2zM134 62h2v1h-2zM137 62h5v1h-5zM145 62h3v1h-3zM154 62h1v1h-1zM156 62h4v1h-4zM169 62h1v1h-1zM173 62h1v1h-1zM20 63h2v1h-2zM27 63h3v1h-3zM36 63h1v1h-1zM57 63h2v1h-2zM63 63h15v1h-15zM79 63h2v1h-2zM85 63h1v1h-1zM97 63h1v1h-1zM109 63h1v1h-1zM115 63h1v1h-1zM123 63h2v1h-2zM128 63h2v1h-2zM133 63h2v1h-2zM138 63h1v1h-1zM144 63h3v1h-3zM151 63h1v1h-1zM155 63h1v1h-1zM158 63h5v1h-5zM165 63h2v1h-2zM168 63h4v1h-4zM173 63h1v1h-1zM18 64h1v1h-1zM20 64h2v1h-2zM29 64h1v1h-1zM37 64h1v1h-1zM57 64h1v1h-1zM63 64h16v1h-16zM84 64h1v1h-1zM108 64h6v1h-6zM124 64h3v1h-3zM131 64h3v1h-3zM144 64h2v1h-2zM153 64h1v1h-1zM155 64h2v1h-2zM163 64h3v1h-3zM168 64h1v1h-1zM171 64h1v1h-1zM18 65h1v1h-1zM20 65h2v1h-2zM28 65h2v1h-2zM32 65h3v1h-3zM38 65h1v1h-1zM42 65h1v1h-1zM56 65h4v1h-4zM61 65h1v1h-1zM64 65h17v1h-17zM85 65h2v1h-2zM97 65h4v1h-4zM110 65h3v1h-3zM125 65h8v1h-8zM142 65h3v1h-3zM153 65h2v1h-2zM156 65h2v1h-2zM162 65h2v1h-2zM168 65h6v1h-6zM18 66h1v1h-1zM20 66h2v1h-2zM30 66h2v1h-2zM34 66h3v1h-3zM55 66h2v1h-2zM62 66h1v1h-1zM65 66h16v1h-16zM97 66h2v1h-2zM128 66h2v1h-2zM154 66h1v1h-1zM158 66h4v1h-4zM166 66h1v1h-1zM169 66h1v1h-1zM172 66h2v1h-2zM20 67h2v1h-2zM31 67h2v1h-2zM37 67h2v1h-2zM55 67h8v1h-8zM65 67h16v1h-16zM85 67h3v1h-3zM93 67h1v1h-1zM98 67h4v1h-4zM104 67h1v1h-1zM129 67h1v1h-1zM144 67h2v1h-2zM147 67h2v1h-2zM154 67h1v1h-1zM171 67h4v1h-4zM20 68h3v1h-3zM32 68h1v1h-1zM53 68h2v1h-2zM59 68h5v1h-5zM68 68h13v1h-13zM85 68h3v1h-3zM96 68h2v1h-2zM99 68h3v1h-3zM149 68h2v1h-2zM172 68h3v1h-3zM20 69h3v1h-3zM29 69h2v1h-2zM42 69h1v1h-1zM45 69h1v1h-1zM53 69h29v1h-29zM86 69h2v1h-2zM91 69h2v1h-2zM96 69h7v1h-7zM104 69h2v1h-2zM108 69h2v1h-2zM128 69h1v1h-1zM138 69h1v1h-1zM148 69h4v1h-4zM163 69h3v1h-3zM172 69h3v1h-3zM28 70h2v1h-2zM53 70h1v1h-1zM57 70h24v1h-24zM91 70h2v1h-2zM97 70h3v1h-3zM101 70h2v1h-2zM105 70h1v1h-1zM150 70h2v1h-2zM158 70h3v1h-3zM165 70h1v1h-1zM173 70h2v1h-2zM13 71h2v1h-2zM22 71h7v1h-7zM33 71h2v1h-2zM37 71h1v1h-1zM52 71h32v1h-32zM91 71h2v1h-2zM96 71h11v1h-11zM109 71h5v1h-5zM120 71h3v1h-3zM124 71h2v1h-2zM129 71h1v1h-1zM137 71h3v1h-3zM150 71h4v1h-4zM155 71h1v1h-1zM159 71h4v1h-4zM165 71h2v1h-2zM170 71h2v1h-2zM173 71h2v1h-2zM13 72h1v1h-1zM23 72h1v1h-1zM25 72h2v1h-2zM32 72h1v1h-1zM36 72h1v1h-1zM51 72h2v1h-2zM55 72h2v1h-2zM58 72h15v1h-15zM74 72h11v1h-11zM91 72h1v1h-1zM96 72h8v1h-8zM105 72h2v1h-2zM109 72h3v1h-3zM122 72h3v1h-3zM126 72h1v1h-1zM130 72h1v1h-1zM138 72h2v1h-2zM147 72h1v1h-1zM152 72h2v1h-2zM156 72h2v1h-2zM162 72h1v1h-1zM166 72h1v1h-1zM169 72h2v1h-2zM173 72h2v1h-2zM13 73h2v1h-2zM17 73h2v1h-2zM24 73h2v1h-2zM30 73h3v1h-3zM34 73h2v1h-2zM52 73h34v1h-34zM91 73h1v1h-1zM96 73h11v1h-11zM109 73h5v1h-5zM122 73h7v1h-7zM137 73h4v1h-4zM145 73h1v1h-1zM148 73h1v1h-1zM153 73h2v1h-2zM157 73h2v1h-2zM163 73h3v1h-3zM170 73h1v1h-1zM173 73h1v1h-1zM13 74h2v1h-2zM16 74h2v1h-2zM25 74h2v1h-2zM52 74h2v1h-2zM55 74h19v1h-19zM75 74h11v1h-11zM91 74h1v1h-1zM94 74h1v1h-1zM96 74h7v1h-7zM105 74h2v1h-2zM109 74h5v1h-5zM125 74h1v1h-1zM138 74h2v1h-2zM145 74h1v1h-1zM149 74h1v1h-1zM151 74h1v1h-1zM154 74h1v1h-1zM158 74h1v1h-1zM163 74h2v1h-2zM168 74h2v1h-2zM172 74h1v1h-1zM14 75h4v1h-4zM27 75h1v1h-1zM51 75h24v1h-24zM76 75h9v1h-9zM89 75h1v1h-1zM91 75h1v1h-1zM94 75h9v1h-9zM104 75h3v1h-3zM109 75h6v1h-6zM116 75h1v1h-1zM120 75h1v1h-1zM126 75h1v1h-1zM138 75h2v1h-2zM144 75h2v1h-2zM152 75h1v1h-1zM154 75h1v1h-1zM158 75h2v1h-2zM164 75h2v1h-2zM168 75h1v1h-1zM171 75h2v1h-2zM179 75h2v1h-2zM15 76h1v1h-1zM51 76h1v1h-1zM54 76h21v1h-21zM77 76h7v1h-7zM87 76h2v1h-2zM94 76h2v1h-2zM98 76h5v1h-5zM104 76h2v1h-2zM109 76h5v1h-5zM119 76h1v1h-1zM139 76h1v1h-1zM144 76h2v1h-2zM154 76h1v1h-1zM165 76h1v1h-1zM170 76h1v1h-1zM180 76h1v1h-1zM13 77h1v1h-1zM15 77h5v1h-5zM23 77h1v1h-1zM25 77h2v1h-2zM28 77h1v1h-1zM31 77h1v1h-1zM50 77h26v1h-26zM80 77h3v1h-3zM86 77h3v1h-3zM94 77h8v1h-8zM103 77h3v1h-3zM108 77h6v1h-6zM116 77h1v1h-1zM119 77h2v1h-2zM123 77h1v1h-1zM128 77h1v1h-1zM130 77h1v1h-1zM138 77h1v1h-1zM143 77h3v1h-3zM152 77h4v1h-4zM158 77h3v1h-3zM164 77h2v1h-2zM169 77h1v1h-1zM171 77h3v1h-3zM181 77h2v1h-2zM13 78h1v1h-1zM16 78h2v1h-2zM20 78h1v1h-1zM27 78h3v1h-3zM52 78h2v1h-2zM55 78h23v1h-23zM84 78h5v1h-5zM94 78h3v1h-3zM100 78h2v1h-2zM104 78h1v1h-1zM108 78h3v1h-3zM121 78h3v1h-3zM143 78h3v1h-3zM158 78h1v1h-1zM164 78h2v1h-2zM168 78h1v1h-1zM172 78h3v1h-3zM181 78h1v1h-1zM13 79h2v1h-2zM16 79h3v1h-3zM21 79h2v1h-2zM24 79h6v1h-6zM37 79h2v1h-2zM50 79h42v1h-42zM95 79h4v1h-4zM103 79h2v1h-2zM109 79h1v1h-1zM119 79h6v1h-6zM131 79h2v1h-2zM143 79h3v1h-3zM154 79h1v1h-1zM158 79h3v1h-3zM163 79h2v1h-2zM168 79h4v1h-4zM174 79h2v1h-2zM177 79h2v1h-2zM181 79h2v1h-2zM13 80h1v1h-1zM16 80h1v1h-1zM19 80h1v1h-1zM23 80h1v1h-1zM26 80h2v1h-2zM36 80h1v1h-1zM52 80h34v1h-34zM87 80h3v1h-3zM96 80h3v1h-3zM124 80h2v1h-2zM130 80h4v1h-4zM143 80h2v1h-2zM154 80h1v1h-1zM158 80h1v1h-1zM162 80h2v1h-2zM170 80h3v1h-3zM175 80h1v1h-1zM178 80h2v1h-2zM13 81h2v1h-2zM17 81h4v1h-4zM24 81h2v1h-2zM34 81h2v1h-2zM49 81h41v1h-41zM91 81h2v1h-2zM98 81h2v1h-2zM101 81h1v1h-1zM124 81h3v1h-3zM131 81h3v1h-3zM142 81h2v1h-2zM158 81h1v1h-1zM160 81h5v1h-5zM168 81h6v1h-6zM176 81h1v1h-1zM178 81h2v1h-2zM181 81h2v1h-2zM13 82h2v1h-2zM20 82h4v1h-4zM30 82h2v1h-2zM37 82h1v1h-1zM50 82h23v1h-23zM74 82h3v1h-3zM78 82h7v1h-7zM86 82h7v1h-7zM126 82h1v1h-1zM132 82h3v1h-3zM154 82h1v1h-1zM158 82h3v1h-3zM162 82h2v1h-2zM166 82h1v1h-1zM169 82h1v1h-1zM174 82h1v1h-1zM176 82h1v1h-1zM179 82h1v1h-1zM181 82h2v1h-2zM13 83h2v1h-2zM35 83h2v1h-2zM50 83h23v1h-23zM75 83h2v1h-2zM79 83h6v1h-6zM86 83h2v1h-2zM90 83h1v1h-1zM93 83h2v1h-2zM132 83h3v1h-3zM152 83h3v1h-3zM157 83h3v1h-3zM161 83h2v1h-2zM166 83h2v1h-2zM170 83h2v1h-2zM174 83h4v1h-4zM179 83h3v1h-3zM14 84h2v1h-2zM20 84h1v1h-1zM34 84h3v1h-3zM49 84h1v1h-1zM51 84h12v1h-12zM64 84h5v1h-5zM70 84h2v1h-2zM73 84h1v1h-1zM78 84h6v1h-6zM85 84h2v1h-2zM91 84h1v1h-1zM94 84h5v1h-5zM116 84h1v1h-1zM128 84h1v1h-1zM133 84h3v1h-3zM151 84h1v1h-1zM157 84h1v1h-1zM161 84h1v1h-1zM166 84h3v1h-3zM172 84h1v1h-1zM177 84h1v1h-1zM180 84h1v1h-1zM15 85h2v1h-2zM31 85h4v1h-4zM48 85h10v1h-10zM59 85h6v1h-6zM66 85h4v1h-4zM71 85h5v1h-5zM78 85h6v1h-6zM86 85h1v1h-1zM97 85h2v1h-2zM101 85h1v1h-1zM110 85h1v1h-1zM113 85h2v1h-2zM117 85h4v1h-4zM122 85h2v1h-2zM134 85h2v1h-2zM155 85h1v1h-1zM157 85h4v1h-4zM168 85h2v1h-2zM172 85h2v1h-2zM179 85h2v1h-2zM16 86h4v1h-4zM23 86h3v1h-3zM29 86h5v1h-5zM42 86h1v1h-1zM48 86h5v1h-5zM55 86h1v1h-1zM57 86h2v1h-2zM68 86h2v1h-2zM72 86h4v1h-4zM78 86h6v1h-6zM86 86h1v1h-1zM108 86h2v1h-2zM111 86h14v1h-14zM129 86h1v1h-1zM134 86h2v1h-2zM144 86h1v1h-1zM149 86h1v1h-1zM157 86h1v1h-1zM159 86h1v1h-1zM169 86h7v1h-7zM177 86h3v1h-3zM19 87h5v1h-5zM28 87h3v1h-3zM48 87h3v1h-3zM73 87h1v1h-1zM79 87h5v1h-5zM86 87h2v1h-2zM106 87h18v1h-18zM125 87h1v1h-1zM134 87h1v1h-1zM146 87h2v1h-2zM154 87h3v1h-3zM158 87h1v1h-1zM171 87h2v1h-2zM174 87h1v1h-1zM176 87h1v1h-1zM183 87h1v1h-1zM22 88h1v1h-1zM27 88h3v1h-3zM48 88h2v1h-2zM71 88h1v1h-1zM75 88h1v1h-1zM79 88h6v1h-6zM86 88h2v1h-2zM103 88h4v1h-4zM114 88h13v1h-13zM130 88h1v1h-1zM134 88h1v1h-1zM152 88h2v1h-2zM155 88h1v1h-1zM158 88h1v1h-1zM161 88h3v1h-3zM169 88h1v1h-1zM181 88h2v1h-2zM19 89h2v1h-2zM24 89h1v1h-1zM27 89h2v1h-2zM47 89h2v1h-2zM76 89h1v1h-1zM79 89h6v1h-6zM87 89h2v1h-2zM102 89h1v1h-1zM111 89h2v1h-2zM118 89h10v1h-10zM131 89h1v1h-1zM150 89h3v1h-3zM154 89h2v1h-2zM157 89h2v1h-2zM164 89h3v1h-3zM179 89h1v1h-1zM181 89h2v1h-2zM18 90h2v1h-2zM25 90h1v1h-1zM27 90h2v1h-2zM38 90h1v1h-1zM57 90h1v1h-1zM76 90h2v1h-2zM79 90h6v1h-6zM88 90h2v1h-2zM96 90h5v1h-5zM105 90h1v1h-1zM109 90h1v1h-1zM115 90h2v1h-2zM119 90h9v1h-9zM130 90h3v1h-3zM136 90h1v1h-1zM150 90h1v1h-1zM152 90h3v1h-3zM157 90h3v1h-3zM166 90h3v1h-3zM176 90h1v1h-1zM180 90h2v1h-2zM17 91h2v1h-2zM23 91h1v1h-1zM26 91h1v1h-1zM79 91h7v1h-7zM89 91h3v1h-3zM93 91h6v1h-6zM116 91h3v1h-3zM120 91h7v1h-7zM129 91h2v1h-2zM141 91h1v1h-1zM151 91h2v1h-2zM158 91h1v1h-1zM160 91h6v1h-6zM168 91h2v1h-2zM180 91h1v1h-1zM17 92h1v1h-1zM23 92h1v1h-1zM26 92h2v1h-2zM55 92h2v1h-2zM75 92h23v1h-23zM101 92h1v1h-1zM108 92h1v1h-1zM113 92h2v1h-2zM118 92h2v1h-2zM121 92h2v1h-2zM125 92h1v1h-1zM128 92h6v1h-6zM136 92h1v1h-1zM142 92h2v1h-2zM149 92h2v1h-2zM155 92h1v1h-1zM157 92h1v1h-1zM160 92h7v1h-7zM169 92h1v1h-1zM172 92h1v1h-1zM179 92h1v1h-1zM16 93h1v1h-1zM22 93h1v1h-1zM58 93h9v1h-9zM71 93h1v1h-1zM75 93h1v1h-1zM77 93h16v1h-16zM94 93h2v1h-2zM100 93h1v1h-1zM104 93h1v1h-1zM113 93h3v1h-3zM122 93h3v1h-3zM126 93h7v1h-7zM144 93h5v1h-5zM153 93h1v1h-1zM158 93h1v1h-1zM164 93h4v1h-4zM169 93h1v1h-1zM173 93h3v1h-3zM177 93h2v1h-2zM180 93h2v1h-2zM16 94h2v1h-2zM20 94h2v1h-2zM30 94h1v1h-1zM53 94h11v1h-11zM69 94h5v1h-5zM76 94h20v1h-20zM99 94h1v1h-1zM102 94h3v1h-3zM109 94h3v1h-3zM113 94h5v1h-5zM120 94h1v1h-1zM123 94h5v1h-5zM129 94h3v1h-3zM158 94h1v1h-1zM162 94h2v1h-2zM167 94h3v1h-3zM173 94h2v1h-2zM180 94h1v1h-1zM14 95h1v1h-1zM16 95h1v1h-1zM20 95h1v1h-1zM28 95h2v1h-2zM54 95h4v1h-4zM73 95h1v1h-1zM79 95h17v1h-17zM98 95h1v1h-1zM102 95h3v1h-3zM113 95h6v1h-6zM124 95h4v1h-4zM163 95h3v1h-3zM168 95h1v1h-1zM179 95h1v1h-1zM14 96h1v1h-1zM16 96h2v1h-2zM20 96h1v1h-1zM25 96h5v1h-5zM49 96h1v1h-1zM51 96h6v1h-6zM60 96h1v1h-1zM64 96h3v1h-3zM71 96h4v1h-4zM78 96h18v1h-18zM98 96h1v1h-1zM101 96h5v1h-5zM109 96h1v1h-1zM112 96h8v1h-8zM124 96h9v1h-9zM134 96h2v1h-2zM155 96h1v1h-1zM162 96h1v1h-1zM165 96h2v1h-2zM169 96h2v1h-2zM178 96h2v1h-2zM17 97h1v1h-1zM24 97h4v1h-4zM50 97h5v1h-5zM79 97h10v1h-10zM90 97h5v1h-5zM96 97h2v1h-2zM100 97h8v1h-8zM110 97h10v1h-10zM125 97h6v1h-6zM133 97h3v1h-3zM154 97h1v1h-1zM156 97h2v1h-2zM175 97h3v1h-3zM14 98h1v1h-1zM17 98h2v1h-2zM20 98h7v1h-7zM32 98h2v1h-2zM45 98h1v1h-1zM48 98h7v1h-7zM60 98h1v1h-1zM70 98h1v1h-1zM74 98h4v1h-4zM79 98h18v1h-18zM100 98h21v1h-21zM124 98h12v1h-12zM146 98h2v1h-2zM157 98h3v1h-3zM167 98h2v1h-2zM170 98h2v1h-2zM173 98h3v1h-3zM18 99h1v1h-1zM20 99h2v1h-2zM32 99h1v1h-1zM48 99h5v1h-5zM58 99h2v1h-2zM71 99h2v1h-2zM79 99h8v1h-8zM89 99h1v1h-1zM91 99h5v1h-5zM98 99h1v1h-1zM100 99h19v1h-19zM121 99h1v1h-1zM125 99h11v1h-11zM147 99h2v1h-2zM178 99h1v1h-1zM15 100h1v1h-1zM18 100h3v1h-3zM24 100h1v1h-1zM31 100h2v1h-2zM47 100h6v1h-6zM58 100h2v1h-2zM65 100h1v1h-1zM69 100h1v1h-1zM72 100h5v1h-5zM79 100h12v1h-12zM92 100h3v1h-3zM98 100h1v1h-1zM106 100h2v1h-2zM113 100h1v1h-1zM116 100h1v1h-1zM118 100h1v1h-1zM121 100h2v1h-2zM124 100h14v1h-14zM143 100h1v1h-1zM147 100h3v1h-3zM165 100h1v1h-1zM171 100h1v1h-1zM178 100h2v1h-2zM183 100h1v1h-1zM16 101h1v1h-1zM19 101h1v1h-1zM27 101h1v1h-1zM31 101h1v1h-1zM47 101h5v1h-5zM56 101h4v1h-4zM65 101h1v1h-1zM68 101h3v1h-3zM73 101h2v1h-2zM78 101h13v1h-13zM93 101h2v1h-2zM100 101h37v1h-37zM148 101h2v1h-2zM157 101h1v1h-1zM166 101h4v1h-4zM179 101h1v1h-1zM182 101h1v1h-1zM16 102h4v1h-4zM22 102h1v1h-1zM26 102h2v1h-2zM31 102h1v1h-1zM35 102h1v1h-1zM47 102h5v1h-5zM56 102h4v1h-4zM63 102h1v1h-1zM68 102h4v1h-4zM74 102h1v1h-1zM78 102h14v1h-14zM93 102h8v1h-8zM103 102h34v1h-34zM148 102h2v1h-2zM161 102h1v1h-1zM168 102h3v1h-3zM175 102h2v1h-2zM178 102h4v1h-4zM19 103h1v1h-1zM47 103h5v1h-5zM55 103h6v1h-6zM66 103h6v1h-6zM75 103h1v1h-1zM78 103h15v1h-15zM96 103h3v1h-3zM104 103h2v1h-2zM108 103h30v1h-30zM148 103h2v1h-2zM155 103h1v1h-1zM168 103h5v1h-5zM179 103h1v1h-1zM19 104h1v1h-1zM28 104h1v1h-1zM47 104h4v1h-4zM55 104h7v1h-7zM65 104h8v1h-8zM75 104h1v1h-1zM77 104h16v1h-16zM99 104h2v1h-2zM106 104h32v1h-32zM145 104h1v1h-1zM148 104h2v1h-2zM169 104h6v1h-6zM178 104h2v1h-2zM20 105h1v1h-1zM24 105h2v1h-2zM27 105h2v1h-2zM31 105h2v1h-2zM47 105h4v1h-4zM55 105h14v1h-14zM74 105h1v1h-1zM77 105h15v1h-15zM93 105h3v1h-3zM99 105h40v1h-40zM145 105h1v1h-1zM149 105h2v1h-2zM158 105h4v1h-4zM165 105h1v1h-1zM170 105h2v1h-2zM173 105h6v1h-6zM28 106h2v1h-2zM47 106h4v1h-4zM55 106h9v1h-9zM67 106h7v1h-7zM77 106h19v1h-19zM102 106h7v1h-7zM110 106h2v1h-2zM113 106h26v1h-26zM149 106h2v1h-2zM162 106h1v1h-1zM171 106h2v1h-2zM174 106h1v1h-1zM20 107h2v1h-2zM23 107h1v1h-1zM28 107h3v1h-3zM33 107h3v1h-3zM47 107h4v1h-4zM55 107h4v1h-4zM63 107h8v1h-8zM74 107h1v1h-1zM76 107h64v1h-64zM145 107h1v1h-1zM149 107h2v1h-2zM163 107h1v1h-1zM166 107h1v1h-1zM172 107h2v1h-2zM176 107h1v1h-1zM22 108h1v1h-1zM26 108h1v1h-1zM30 108h2v1h-2zM37 108h1v1h-1zM47 108h4v1h-4zM60 108h9v1h-9zM76 108h22v1h-22zM100 108h40v1h-40zM149 108h1v1h-1zM163 108h2v1h-2zM173 108h1v1h-1zM17 109h1v1h-1zM20 109h1v1h-1zM30 109h2v1h-2zM47 109h6v1h-6zM57 109h10v1h-10zM68 109h1v1h-1zM70 109h3v1h-3zM75 109h65v1h-65zM143 109h1v1h-1zM148 109h2v1h-2zM158 109h1v1h-1zM164 109h2v1h-2zM167 109h2v1h-2zM173 109h2v1h-2zM179 109h1v1h-1zM181 109h2v1h-2zM20 110h1v1h-1zM23 110h2v1h-2zM27 110h1v1h-1zM32 110h1v1h-1zM34 110h2v1h-2zM47 110h5v1h-5zM55 110h12v1h-12zM70 110h3v1h-3zM75 110h26v1h-26zM102 110h38v1h-38zM165 110h1v1h-1zM168 110h2v1h-2zM174 110h1v1h-1zM179 110h1v1h-1zM182 110h2v1h-2zM18 111h1v1h-1zM32 111h3v1h-3zM47 111h5v1h-5zM54 111h11v1h-11zM67 111h6v1h-6zM75 111h66v1h-66zM143 111h1v1h-1zM156 111h1v1h-1zM158 111h1v1h-1zM165 111h1v1h-1zM168 111h2v1h-2zM174 111h1v1h-1zM180 111h4v1h-4zM18 112h2v1h-2zM31 112h2v1h-2zM47 112h4v1h-4zM54 112h9v1h-9zM65 112h1v1h-1zM67 112h3v1h-3zM71 112h1v1h-1zM75 112h23v1h-23zM99 112h41v1h-41zM144 112h1v1h-1zM156 112h1v1h-1zM175 112h1v1h-1zM180 112h3v1h-3zM19 113h2v1h-2zM24 113h2v1h-2zM27 113h1v1h-1zM29 113h4v1h-4zM38 113h1v1h-1zM47 113h14v1h-14zM62 113h11v1h-11zM74 113h67v1h-67zM144 113h1v1h-1zM155 113h2v1h-2zM159 113h2v1h-2zM167 113h3v1h-3zM174 113h2v1h-2zM179 113h4v1h-4zM20 114h2v1h-2zM27 114h4v1h-4zM37 114h2v1h-2zM48 114h2v1h-2zM53 114h5v1h-5zM61 114h11v1h-11zM74 114h2v1h-2zM77 114h27v1h-27zM105 114h35v1h-35zM161 114h1v1h-1zM173 114h1v1h-1zM176 114h1v1h-1zM178 114h2v1h-2zM20 115h10v1h-10zM35 115h4v1h-4zM47 115h10v1h-10zM58 115h14v1h-14zM74 115h68v1h-68zM151 115h1v1h-1zM155 115h2v1h-2zM160 115h1v1h-1zM165 115h1v1h-1zM168 115h1v1h-1zM173 115h6v1h-6zM180 115h2v1h-2zM25 116h3v1h-3zM41 116h1v1h-1zM48 116h2v1h-2zM52 116h1v1h-1zM55 116h17v1h-17zM73 116h68v1h-68zM150 116h2v1h-2zM154 116h3v1h-3zM162 116h2v1h-2zM179 116h1v1h-1zM39 117h2v1h-2zM48 117h2v1h-2zM51 117h3v1h-3zM55 117h16v1h-16zM73 117h69v1h-69zM148 117h3v1h-3zM154 117h3v1h-3zM159 117h1v1h-1zM162 117h2v1h-2zM171 117h3v1h-3zM179 117h1v1h-1zM38 118h1v1h-1zM48 118h23v1h-23zM72 118h71v1h-71zM148 118h3v1h-3zM153 118h3v1h-3zM157 118h1v1h-1zM160 118h1v1h-1zM163 118h2v1h-2zM171 118h6v1h-6zM32 119h1v1h-1zM37 119h1v1h-1zM48 119h2v1h-2zM51 119h19v1h-19zM72 119h71v1h-71zM149 119h1v1h-1zM152 119h3v1h-3zM157 119h2v1h-2zM160 119h1v1h-1zM163 119h4v1h-4zM27 120h2v1h-2zM30 120h2v1h-2zM40 120h1v1h-1zM48 120h22v1h-22zM71 120h26v1h-26zM99 120h43v1h-43zM152 120h1v1h-1zM156 120h6v1h-6zM164 120h4v1h-4zM174 120h2v1h-2zM29 121h2v1h-2zM48 121h21v1h-21zM71 121h2v1h-2zM74 121h24v1h-24zM99 121h42v1h-42zM156 121h2v1h-2zM159 121h3v1h-3zM166 121h4v1h-4zM172 121h2v1h-2zM25 122h2v1h-2zM31 122h2v1h-2zM35 122h2v1h-2zM48 122h21v1h-21zM70 122h28v1h-28zM100 122h43v1h-43zM148 122h2v1h-2zM155 122h7v1h-7zM167 122h5v1h-5zM174 122h3v1h-3zM27 123h4v1h-4zM39 123h1v1h-1zM48 123h21v1h-21zM70 123h17v1h-17zM89 123h9v1h-9zM100 123h41v1h-41zM142 123h1v1h-1zM153 123h9v1h-9zM172 123h3v1h-3zM34 124h1v1h-1zM38 124h2v1h-2zM48 124h37v1h-37zM92 124h7v1h-7zM100 124h41v1h-41zM146 124h2v1h-2zM152 124h1v1h-1zM154 124h8v1h-8zM168 124h2v1h-2zM36 125h1v1h-1zM38 125h1v1h-1zM48 125h26v1h-26zM78 125h5v1h-5zM93 125h5v1h-5zM100 125h41v1h-41zM147 125h2v1h-2zM155 125h6v1h-6zM162 125h1v1h-1zM169 125h1v1h-1zM33 126h2v1h-2zM36 126h1v1h-1zM38 126h2v1h-2zM48 126h25v1h-25zM78 126h6v1h-6zM86 126h2v1h-2zM93 126h5v1h-5zM100 126h42v1h-42zM146 126h3v1h-3zM151 126h13v1h-13zM168 126h1v1h-1zM34 127h1v1h-1zM38 127h2v1h-2zM43 127h2v1h-2zM48 127h21v1h-21zM70 127h3v1h-3zM80 127h5v1h-5zM86 127h3v1h-3zM90 127h6v1h-6zM99 127h42v1h-42zM146 127h4v1h-4zM152 127h9v1h-9zM168 127h1v1h-1zM175 127h1v1h-1zM34 128h1v1h-1zM38 128h2v1h-2zM42 128h1v1h-1zM47 128h22v1h-22zM70 128h4v1h-4zM81 128h3v1h-3zM85 128h10v1h-10zM99 128h43v1h-43zM147 128h3v1h-3zM151 128h10v1h-10zM163 128h2v1h-2zM174 128h2v1h-2zM35 129h1v1h-1zM38 129h1v1h-1zM47 129h23v1h-23zM72 129h7v1h-7zM81 129h3v1h-3zM85 129h2v1h-2zM90 129h3v1h-3zM96 129h46v1h-46zM145 129h2v1h-2zM148 129h2v1h-2zM151 129h4v1h-4zM156 129h5v1h-5zM162 129h1v1h-1zM165 129h1v1h-1zM174 129h2v1h-2zM38 130h2v1h-2zM47 130h23v1h-23zM73 130h4v1h-4zM80 130h6v1h-6zM92 130h49v1h-49zM142 130h1v1h-1zM145 130h4v1h-4zM151 130h4v1h-4zM156 130h5v1h-5zM162 130h2v1h-2zM166 130h2v1h-2zM172 130h3v1h-3zM37 131h2v1h-2zM45 131h1v1h-1zM47 131h25v1h-25zM75 131h1v1h-1zM81 131h5v1h-5zM88 131h1v1h-1zM93 131h48v1h-48zM145 131h3v1h-3zM155 131h6v1h-6zM163 131h2v1h-2zM167 131h7v1h-7zM37 132h2v1h-2zM45 132h1v1h-1zM48 132h26v1h-26zM82 132h3v1h-3zM94 132h48v1h-48zM145 132h3v1h-3zM151 132h2v1h-2zM154 132h3v1h-3zM158 132h3v1h-3zM165 132h1v1h-1zM169 132h1v1h-1zM35 133h2v1h-2zM42 133h1v1h-1zM45 133h1v1h-1zM48 133h27v1h-27zM82 133h3v1h-3zM93 133h4v1h-4zM98 133h44v1h-44zM145 133h2v1h-2zM151 133h9v1h-9zM161 133h2v1h-2zM165 133h1v1h-1zM170 133h2v1h-2zM31 134h6v1h-6zM38 134h1v1h-1zM42 134h1v1h-1zM48 134h26v1h-26zM88 134h1v1h-1zM92 134h1v1h-1zM95 134h1v1h-1zM98 134h45v1h-45zM145 134h2v1h-2zM150 134h9v1h-9zM161 134h2v1h-2zM166 134h2v1h-2zM169 134h2v1h-2zM42 135h1v1h-1zM45 135h1v1h-1zM48 135h25v1h-25zM82 135h2v1h-2zM91 135h1v1h-1zM94 135h2v1h-2zM98 135h3v1h-3zM102 135h39v1h-39zM144 135h16v1h-16zM162 135h2v1h-2zM167 135h2v1h-2zM35 136h2v1h-2zM41 136h1v1h-1zM45 136h1v1h-1zM48 136h24v1h-24zM82 136h2v1h-2zM85 136h1v1h-1zM93 136h1v1h-1zM97 136h1v1h-1zM100 136h1v1h-1zM103 136h1v1h-1zM106 136h35v1h-35zM144 136h15v1h-15zM163 136h4v1h-4zM43 137h1v1h-1zM45 137h1v1h-1zM49 137h23v1h-23zM81 137h4v1h-4zM86 137h2v1h-2zM96 137h1v1h-1zM105 137h37v1h-37zM144 137h14v1h-14zM161 137h1v1h-1zM165 137h1v1h-1zM47 138h1v1h-1zM49 138h21v1h-21zM81 138h2v1h-2zM86 138h9v1h-9zM97 138h2v1h-2zM101 138h2v1h-2zM105 138h1v1h-1zM109 138h31v1h-31zM144 138h15v1h-15zM162 138h1v1h-1zM45 139h3v1h-3zM49 139h21v1h-21zM78 139h19v1h-19zM98 139h2v1h-2zM102 139h5v1h-5zM108 139h1v1h-1zM110 139h32v1h-32zM144 139h14v1h-14zM159 139h1v1h-1zM163 139h1v1h-1zM167 139h2v1h-2zM50 140h18v1h-18zM78 140h9v1h-9zM88 140h2v1h-2zM91 140h1v1h-1zM93 140h8v1h-8zM103 140h2v1h-2zM106 140h3v1h-3zM111 140h31v1h-31zM144 140h5v1h-5zM150 140h7v1h-7zM169 140h1v1h-1zM48 141h1v1h-1zM50 141h16v1h-16zM77 141h5v1h-5zM84 141h19v1h-19zM104 141h2v1h-2zM107 141h3v1h-3zM111 141h32v1h-32zM144 141h6v1h-6zM151 141h6v1h-6zM160 141h3v1h-3zM168 141h2v1h-2zM48 142h1v1h-1zM50 142h15v1h-15zM71 142h1v1h-1zM75 142h8v1h-8zM84 142h1v1h-1zM87 142h7v1h-7zM96 142h8v1h-8zM105 142h1v1h-1zM107 142h4v1h-4zM112 142h30v1h-30zM144 142h12v1h-12zM161 142h8v1h-8zM48 143h1v1h-1zM50 143h14v1h-14zM72 143h1v1h-1zM75 143h2v1h-2zM78 143h8v1h-8zM87 143h4v1h-4zM97 143h1v1h-1zM99 143h11v1h-11zM113 143h29v1h-29zM144 143h11v1h-11zM163 143h5v1h-5zM49 144h1v1h-1zM51 144h13v1h-13zM65 144h1v1h-1zM67 144h2v1h-2zM73 144h3v1h-3zM77 144h4v1h-4zM85 144h1v1h-1zM91 144h1v1h-1zM102 144h1v1h-1zM104 144h37v1h-37zM144 144h10v1h-10zM159 144h1v1h-1zM162 144h2v1h-2zM49 145h1v1h-1zM51 145h12v1h-12zM72 145h5v1h-5zM88 145h8v1h-8zM105 145h2v1h-2zM108 145h1v1h-1zM112 145h29v1h-29zM145 145h9v1h-9zM160 145h2v1h-2zM165 145h1v1h-1zM49 146h1v1h-1zM52 146h11v1h-11zM65 146h2v1h-2zM69 146h1v1h-1zM71 146h3v1h-3zM75 146h1v1h-1zM79 146h22v1h-22zM104 146h3v1h-3zM109 146h31v1h-31zM146 146h6v1h-6zM162 146h1v1h-1zM49 147h1v1h-1zM52 147h12v1h-12zM70 147h3v1h-3zM77 147h32v1h-32zM110 147h25v1h-25zM136 147h4v1h-4zM147 147h3v1h-3zM49 148h1v1h-1zM52 148h12v1h-12zM66 148h3v1h-3zM70 148h2v1h-2zM76 148h65v1h-65zM157 148h2v1h-2zM50 149h1v1h-1zM52 149h12v1h-12zM68 149h3v1h-3zM76 149h36v1h-36zM113 149h20v1h-20zM134 149h3v1h-3zM138 149h2v1h-2zM143 149h1v1h-1zM154 149h4v1h-4zM50 150h1v1h-1zM52 150h12v1h-12zM68 150h3v1h-3zM75 150h59v1h-59zM135 150h6v1h-6zM143 150h1v1h-1zM155 150h3v1h-3zM50 151h14v1h-14zM66 151h10v1h-10zM77 151h12v1h-12zM90 151h45v1h-45zM137 151h2v1h-2zM142 151h2v1h-2zM153 151h1v1h-1zM155 151h4v1h-4zM50 152h2v1h-2zM53 152h12v1h-12zM66 152h1v1h-1zM69 152h2v1h-2zM72 152h13v1h-13zM88 152h1v1h-1zM91 152h23v1h-23zM115 152h21v1h-21zM137 152h3v1h-3zM142 152h2v1h-2zM154 152h1v1h-1zM158 152h1v1h-1zM51 153h2v1h-2zM54 153h10v1h-10zM65 153h2v1h-2zM69 153h2v1h-2zM72 153h10v1h-10zM94 153h44v1h-44zM142 153h2v1h-2zM152 153h2v1h-2zM155 153h1v1h-1zM159 153h3v1h-3zM54 154h10v1h-10zM65 154h1v1h-1zM70 154h11v1h-11zM95 154h16v1h-16zM112 154h20v1h-20zM133 154h1v1h-1zM135 154h1v1h-1zM137 154h1v1h-1zM142 154h2v1h-2zM154 154h1v1h-1zM52 155h14v1h-14zM67 155h12v1h-12zM94 155h41v1h-41zM136 155h3v1h-3zM141 155h3v1h-3zM146 155h1v1h-1zM151 155h4v1h-4zM157 155h2v1h-2zM55 156h10v1h-10zM69 156h10v1h-10zM88 156h2v1h-2zM92 156h1v1h-1zM95 156h19v1h-19zM115 156h17v1h-17zM133 156h2v1h-2zM141 156h3v1h-3zM152 156h2v1h-2zM158 156h1v1h-1zM53 157h1v1h-1zM55 157h10v1h-10zM68 157h11v1h-11zM88 157h3v1h-3zM93 157h19v1h-19zM113 157h1v1h-1zM116 157h12v1h-12zM130 157h3v1h-3zM134 157h3v1h-3zM141 157h3v1h-3zM154 157h1v1h-1zM158 157h1v1h-1zM162 157h1v1h-1zM53 158h1v1h-1zM56 158h1v1h-1zM59 158h20v1h-20zM81 158h2v1h-2zM87 158h22v1h-22zM110 158h2v1h-2zM114 158h1v1h-1zM116 158h13v1h-13zM132 158h1v1h-1zM134 158h2v1h-2zM140 158h4v1h-4zM150 158h2v1h-2zM154 158h1v1h-1zM158 158h4v1h-4zM57 159h22v1h-22zM82 159h1v1h-1zM85 159h1v1h-1zM87 159h26v1h-26zM115 159h1v1h-1zM117 159h1v1h-1zM119 159h3v1h-3zM123 159h5v1h-5zM129 159h5v1h-5zM135 159h1v1h-1zM140 159h4v1h-4zM151 159h3v1h-3zM158 159h2v1h-2zM54 160h1v1h-1zM58 160h28v1h-28zM87 160h23v1h-23zM112 160h1v1h-1zM115 160h1v1h-1zM118 160h1v1h-1zM120 160h2v1h-2zM123 160h5v1h-5zM129 160h1v1h-1zM132 160h4v1h-4zM139 160h5v1h-5zM153 160h1v1h-1zM57 161h2v1h-2zM60 161h6v1h-6zM67 161h2v1h-2zM70 161h17v1h-17zM88 161h6v1h-6zM95 161h11v1h-11zM108 161h4v1h-4zM113 161h1v1h-1zM116 161h1v1h-1zM119 161h9v1h-9zM130 161h1v1h-1zM133 161h1v1h-1zM139 161h5v1h-5zM60 162h6v1h-6zM67 162h36v1h-36zM104 162h3v1h-3zM116 162h2v1h-2zM119 162h2v1h-2zM123 162h7v1h-7zM131 162h2v1h-2zM138 162h6v1h-6zM148 162h2v1h-2zM56 163h1v1h-1zM60 163h5v1h-5zM66 163h2v1h-2zM69 163h1v1h-1zM71 163h23v1h-23zM96 163h8v1h-8zM105 163h4v1h-4zM113 163h1v1h-1zM117 163h2v1h-2zM123 163h1v1h-1zM128 163h2v1h-2zM131 163h2v1h-2zM137 163h7v1h-7zM153 163h2v1h-2zM57 164h1v1h-1zM62 164h6v1h-6zM70 164h2v1h-2zM73 164h11v1h-11zM85 164h6v1h-6zM94 164h10v1h-10zM106 164h2v1h-2zM109 164h1v1h-1zM113 164h2v1h-2zM118 164h1v1h-1zM121 164h1v1h-1zM123 164h2v1h-2zM126 164h1v1h-1zM129 164h3v1h-3zM136 164h9v1h-9zM154 164h1v1h-1zM57 165h1v1h-1zM62 165h3v1h-3zM68 165h4v1h-4zM73 165h7v1h-7zM81 165h2v1h-2zM84 165h1v1h-1zM91 165h11v1h-11zM103 165h3v1h-3zM109 165h2v1h-2zM121 165h1v1h-1zM123 165h2v1h-2zM126 165h2v1h-2zM136 165h8v1h-8zM150 165h1v1h-1zM154 165h1v1h-1zM61 166h1v1h-1zM63 166h2v1h-2zM67 166h1v1h-1zM73 166h8v1h-8zM82 166h20v1h-20zM103 166h5v1h-5zM111 166h2v1h-2zM118 166h1v1h-1zM122 166h1v1h-1zM124 166h2v1h-2zM128 166h2v1h-2zM136 166h9v1h-9zM64 167h1v1h-1zM73 167h7v1h-7zM81 167h3v1h-3zM85 167h9v1h-9zM95 167h3v1h-3zM99 167h6v1h-6zM107 167h2v1h-2zM136 167h9v1h-9zM147 167h1v1h-1zM154 167h1v1h-1zM60 168h1v1h-1zM64 168h1v1h-1zM68 168h1v1h-1zM72 168h2v1h-2zM75 168h4v1h-4zM80 168h2v1h-2zM83 168h11v1h-11zM96 168h9v1h-9zM108 168h2v1h-2zM124 168h1v1h-1zM133 168h12v1h-12zM147 168h1v1h-1zM153 168h1v1h-1zM71 169h1v1h-1zM80 169h1v1h-1zM82 169h1v1h-1zM84 169h6v1h-6zM91 169h4v1h-4zM97 169h4v1h-4zM105 169h1v1h-1zM110 169h1v1h-1zM135 169h10v1h-10zM62 170h1v1h-1zM65 170h3v1h-3zM71 170h1v1h-1zM79 170h2v1h-2zM83 170h5v1h-5zM89 170h1v1h-1zM91 170h12v1h-12zM104 170h3v1h-3zM108 170h1v1h-1zM110 170h1v1h-1zM112 170h1v1h-1zM117 170h1v1h-1zM129 170h1v1h-1zM131 170h14v1h-14zM151 170h1v1h-1zM78 171h2v1h-2zM83 171h1v1h-1zM85 171h1v1h-1zM88 171h3v1h-3zM95 171h1v1h-1zM97 171h2v1h-2zM133 171h1v1h-1zM135 171h10v1h-10zM64 172h1v1h-1zM72 172h1v1h-1zM74 172h1v1h-1zM77 172h3v1h-3zM82 172h2v1h-2zM85 172h1v1h-1zM88 172h2v1h-2zM91 172h9v1h-9zM107 172h1v1h-1zM115 172h1v1h-1zM129 172h17v1h-17zM65 173h1v1h-1zM71 173h1v1h-1zM80 173h1v1h-1zM86 173h1v1h-1zM89 173h1v1h-1zM91 173h2v1h-2zM94 173h1v1h-1zM97 173h1v1h-1zM100 173h1v1h-1zM129 173h3v1h-3zM135 173h11v1h-11zM66 174h1v1h-1zM77 174h1v1h-1zM80 174h1v1h-1zM86 174h2v1h-2zM92 174h2v1h-2zM96 174h3v1h-3zM101 174h1v1h-1zM127 174h5v1h-5zM133 174h13v1h-13zM148 174h7v1h-7zM67 175h1v1h-1zM72 175h2v1h-2zM80 175h2v1h-2zM86 175h1v1h-1zM88 175h1v1h-1zM91 175h1v1h-1zM96 175h3v1h-3zM129 175h3v1h-3zM134 175h12v1h-12zM149 175h7v1h-7zM158 175h8v1h-8zM177 175h6v1h-6zM69 176h1v1h-1zM72 176h1v1h-1zM80 176h2v1h-2zM86 176h1v1h-1zM89 176h3v1h-3zM96 176h2v1h-2zM105 176h1v1h-1zM126 176h7v1h-7zM134 176h12v1h-12zM152 176h6v1h-6zM160 176h9v1h-9zM173 176h12v1h-12zM77 177h1v1h-1zM81 177h1v1h-1zM120 177h1v1h-1zM124 177h1v1h-1zM127 177h5v1h-5zM133 177h13v1h-13zM153 177h6v1h-6zM162 177h10v1h-10zM173 177h15v1h-15zM190 177h7v1h-7zM124 178h1v1h-1zM126 178h20v1h-20zM154 178h7v1h-7zM163 178h36v1h-36zM82 179h1v1h-1zM86 179h2v1h-2zM118 179h1v1h-1zM121 179h1v1h-1zM124 179h23v1h-23zM155 179h7v1h-7zM163 179h4v1h-4zM169 179h5v1h-5zM176 179h4v1h-4zM181 179h19v1h-19zM87 180h1v1h-1zM125 180h22v1h-22zM155 180h7v1h-7zM163 180h4v1h-4zM171 180h4v1h-4zM176 180h24v1h-24zM95 181h1v1h-1zM115 181h1v1h-1zM118 181h3v1h-3zM122 181h25v1h-25zM150 181h1v1h-1zM155 181h8v1h-8zM164 181h4v1h-4zM172 181h4v1h-4zM178 181h22v1h-22zM72 182h2v1h-2zM123 182h10v1h-10zM134 182h13v1h-13zM155 182h8v1h-8zM164 182h4v1h-4zM173 182h3v1h-3zM177 182h19v1h-19zM197 182h3v1h-3zM65 183h7v1h-7zM74 183h1v1h-1zM115 183h32v1h-32zM149 183h3v1h-3zM155 183h8v1h-8zM164 183h5v1h-5zM173 183h27v1h-27zM64 184h5v1h-5zM74 184h2v1h-2zM123 184h24v1h-24zM150 184h1v1h-1zM155 184h8v1h-8zM165 184h4v1h-4zM173 184h10v1h-10zM184 184h7v1h-7zM193 184h7v1h-7zM62 185h5v1h-5zM73 185h4v1h-4zM78 185h1v1h-1zM109 185h2v1h-2zM112 185h36v1h-36zM150 185h4v1h-4zM155 185h9v1h-9zM165 185h5v1h-5zM174 185h8v1h-8zM183 185h17v1h-17zM61 186h4v1h-4zM72 186h4v1h-4zM78 186h2v1h-2zM118 186h1v1h-1zM123 186h25v1h-25zM156 186h7v1h-7zM166 186h3v1h-3zM174 186h7v1h-7zM184 186h5v1h-5zM192 186h8v1h-8zM51 187h6v1h-6zM61 187h4v1h-4zM72 187h5v1h-5zM78 187h2v1h-2zM111 187h37v1h-37zM150 187h4v1h-4zM156 187h8v1h-8zM165 187h6v1h-6zM173 187h9v1h-9zM183 187h7v1h-7zM192 187h8v1h-8zM50 188h3v1h-3zM55 188h3v1h-3zM62 188h3v1h-3zM72 188h4v1h-4zM79 188h1v1h-1zM84 188h1v1h-1zM115 188h3v1h-3zM120 188h2v1h-2zM123 188h25v1h-25zM151 188h1v1h-1zM156 188h8v1h-8zM166 188h3v1h-3zM174 188h6v1h-6zM183 188h6v1h-6zM192 188h8v1h-8zM49 189h3v1h-3zM58 189h1v1h-1zM61 189h4v1h-4zM71 189h5v1h-5zM79 189h2v1h-2zM106 189h1v1h-1zM109 189h39v1h-39zM151 189h3v1h-3zM156 189h8v1h-8zM166 189h5v1h-5zM173 189h8v1h-8zM182 189h9v1h-9zM192 189h8v1h-8zM48 190h4v1h-4zM61 190h3v1h-3zM71 190h5v1h-5zM80 190h1v1h-1zM87 190h1v1h-1zM95 190h1v1h-1zM117 190h1v1h-1zM119 190h29v1h-29zM151 190h1v1h-1zM156 190h8v1h-8zM167 190h3v1h-3zM174 190h6v1h-6zM182 190h6v1h-6zM193 190h7v1h-7zM47 191h5v1h-5zM61 191h3v1h-3zM70 191h7v1h-7zM80 191h1v1h-1zM105 191h44v1h-44zM151 191h3v1h-3zM156 191h8v1h-8zM166 191h4v1h-4zM173 191h7v1h-7zM182 191h18v1h-18zM45 192h6v1h-6zM56 192h3v1h-3zM60 192h4v1h-4zM70 192h6v1h-6zM80 192h2v1h-2zM88 192h1v1h-1zM95 192h1v1h-1zM104 192h1v1h-1zM117 192h32v1h-32zM156 192h8v1h-8zM167 192h3v1h-3zM174 192h5v1h-5zM182 192h5v1h-5zM192 192h8v1h-8zM41 193h10v1h-10zM60 193h4v1h-4zM71 193h3v1h-3zM80 193h2v1h-2zM88 193h2v1h-2zM108 193h1v1h-1zM110 193h40v1h-40zM151 193h3v1h-3zM155 193h9v1h-9zM166 193h3v1h-3zM172 193h7v1h-7zM181 193h19v1h-19zM36 194h16v1h-16zM56 194h6v1h-6zM66 194h1v1h-1zM70 194h6v1h-6zM80 194h3v1h-3zM90 194h2v1h-2zM96 194h2v1h-2zM103 194h2v1h-2zM109 194h4v1h-4zM114 194h35v1h-35zM156 194h8v1h-8zM167 194h2v1h-2zM173 194h5v1h-5zM181 194h6v1h-6zM192 194h8v1h-8zM35 195h8v1h-8zM45 195h7v1h-7zM66 195h1v1h-1zM71 195h2v1h-2zM81 195h1v1h-1zM90 195h1v1h-1zM108 195h4v1h-4zM113 195h3v1h-3zM117 195h33v1h-33zM151 195h3v1h-3zM155 195h9v1h-9zM166 195h3v1h-3zM172 195h6v1h-6zM181 195h19v1h-19zM32 196h12v1h-12zM47 196h5v1h-5zM54 196h1v1h-1zM65 196h2v1h-2zM70 196h4v1h-4zM75 196h1v1h-1zM81 196h2v1h-2zM91 196h8v1h-8zM104 196h49v1h-49zM155 196h9v1h-9zM166 196h2v1h-2zM169 196h1v1h-1zM173 196h4v1h-4zM181 196h5v1h-5zM188 196h3v1h-3zM192 196h8v1h-8zM31 197h10v1h-10zM49 197h2v1h-2zM65 197h1v1h-1zM81 197h1v1h-1zM114 197h36v1h-36zM151 197h3v1h-3zM155 197h9v1h-9zM165 197h3v1h-3zM172 197h6v1h-6zM181 197h10v1h-10zM192 197h8v1h-8zM28 198h17v1h-17zM51 198h2v1h-2zM55 198h2v1h-2zM65 198h2v1h-2zM69 198h7v1h-7zM82 198h2v1h-2zM92 198h8v1h-8zM101 198h2v1h-2zM105 198h49v1h-49zM155 198h9v1h-9zM166 198h1v1h-1zM172 198h3v1h-3zM176 198h1v1h-1zM183 198h1v1h-1zM187 198h3v1h-3zM192 198h8v1h-8zM26 199h9v1h-9zM38 199h1v1h-1zM40 199h2v1h-2zM45 199h1v1h-1zM53 199h1v1h-1zM56 199h2v1h-2zM65 199h1v1h-1zM108 199h2v1h-2zM111 199h42v1h-42zM155 199h9v1h-9zM165 199h3v1h-3zM171 199h4v1h-4zM176 199h1v1h-1zM181 199h19v1h-19zM24 200h23v1h-23zM53 200h1v1h-1zM56 200h2v1h-2zM65 200h2v1h-2zM69 200h7v1h-7zM82 200h4v1h-4zM88 200h1v1h-1zM94 200h59v1h-59zM155 200h9v1h-9zM166 200h1v1h-1zM172 200h3v1h-3zM186 200h3v1h-3zM191 200h9v1h-9zM22 201h13v1h-13zM37 201h7v1h-7zM57 201h2v1h-2zM65 201h2v1h-2zM98 201h2v1h-2zM106 201h47v1h-47zM154 201h9v1h-9zM165 201h2v1h-2zM171 201h4v1h-4zM176 201h14v1h-14zM191 201h9v1h-9zM21 202h15v1h-15zM38 202h7v1h-7zM46 202h2v1h-2zM53 202h2v1h-2zM57 202h3v1h-3zM65 202h2v1h-2zM70 202h6v1h-6zM83 202h2v1h-2zM95 202h58v1h-58zM154 202h9v1h-9zM171 202h3v1h-3zM176 202h4v1h-4zM182 202h1v1h-1zM184 202h1v1h-1zM187 202h2v1h-2zM191 202h9v1h-9zM20 203h16v1h-16zM40 203h6v1h-6zM54 203h2v1h-2zM58 203h2v1h-2zM65 203h2v1h-2zM74 203h2v1h-2zM97 203h5v1h-5zM108 203h2v1h-2zM111 203h41v1h-41zM154 203h9v1h-9zM165 203h2v1h-2zM170 203h5v1h-5zM176 203h14v1h-14zM191 203h9v1h-9zM20 204h18v1h-18zM39 204h6v1h-6zM46 204h1v1h-1zM48 204h1v1h-1zM54 204h2v1h-2zM58 204h2v1h-2zM65 204h2v1h-2zM72 204h1v1h-1zM74 204h2v1h-2zM97 204h1v1h-1zM99 204h10v1h-10zM110 204h42v1h-42zM154 204h8v1h-8zM170 204h4v1h-4zM177 204h3v1h-3zM181 204h1v1h-1zM185 204h3v1h-3zM192 204h8v1h-8zM19 205h19v1h-19zM41 205h5v1h-5zM48 205h1v1h-1zM55 205h1v1h-1zM58 205h2v1h-2zM65 205h2v1h-2zM70 205h1v1h-1zM73 205h1v1h-1zM75 205h1v1h-1zM98 205h9v1h-9zM108 205h44v1h-44zM153 205h9v1h-9zM164 205h3v1h-3zM169 205h5v1h-5zM176 205h3v1h-3zM180 205h10v1h-10zM191 205h9v1h-9zM18 206h21v1h-21zM41 206h5v1h-5zM48 206h1v1h-1zM55 206h1v1h-1zM58 206h2v1h-2zM65 206h2v1h-2zM69 206h2v1h-2zM75 206h2v1h-2zM102 206h49v1h-49zM152 206h10v1h-10zM165 206h1v1h-1zM170 206h3v1h-3zM183 206h5v1h-5zM190 206h10v1h-10zM18 207h11v1h-11zM31 207h9v1h-9zM42 207h5v1h-5zM49 207h2v1h-2zM58 207h2v1h-2zM65 207h2v1h-2zM70 207h7v1h-7zM90 207h2v1h-2zM99 207h2v1h-2zM103 207h2v1h-2zM106 207h5v1h-5zM113 207h38v1h-38zM152 207h10v1h-10zM164 207h3v1h-3zM169 207h5v1h-5zM180 207h10v1h-10zM191 207h9v1h-9zM17 208h10v1h-10zM29 208h2v1h-2zM32 208h9v1h-9zM42 208h5v1h-5zM50 208h1v1h-1zM58 208h2v1h-2zM65 208h2v1h-2zM91 208h1v1h-1zM101 208h1v1h-1zM115 208h2v1h-2zM118 208h33v1h-33zM152 208h10v1h-10zM164 208h1v1h-1zM169 208h4v1h-4zM180 208h9v1h-9zM191 208h9v1h-9zM17 209h15v1h-15zM34 209h7v1h-7zM43 209h4v1h-4zM49 209h2v1h-2zM55 209h1v1h-1zM58 209h2v1h-2zM65 209h2v1h-2zM70 209h2v1h-2zM73 209h4v1h-4zM91 209h2v1h-2zM101 209h2v1h-2zM105 209h1v1h-1zM110 209h40v1h-40zM151 209h11v1h-11zM163 209h4v1h-4zM169 209h4v1h-4zM180 209h10v1h-10zM191 209h9v1h-9zM16 210h15v1h-15zM34 210h8v1h-8zM44 210h4v1h-4zM58 210h2v1h-2zM65 210h3v1h-3zM74 210h1v1h-1zM108 210h1v1h-1zM115 210h34v1h-34zM151 210h10v1h-10zM169 210h4v1h-4zM180 210h5v1h-5zM187 210h2v1h-2zM191 210h9v1h-9zM16 211h17v1h-17zM35 211h8v1h-8zM44 211h4v1h-4zM50 211h2v1h-2zM58 211h2v1h-2zM66 211h2v1h-2zM71 211h7v1h-7zM88 211h1v1h-1zM92 211h2v1h-2zM103 211h3v1h-3zM109 211h41v1h-41zM151 211h10v1h-10zM163 211h4v1h-4zM168 211h5v1h-5zM180 211h10v1h-10zM191 211h9v1h-9zM15 212h15v1h-15zM36 212h7v1h-7zM45 212h3v1h-3zM58 212h2v1h-2zM66 212h2v1h-2zM100 212h1v1h-1zM114 212h33v1h-33zM150 212h10v1h-10zM168 212h4v1h-4zM181 212h7v1h-7zM191 212h9v1h-9zM15 213h19v1h-19zM37 213h3v1h-3zM42 213h1v1h-1zM45 213h4v1h-4zM50 213h2v1h-2zM55 213h1v1h-1zM58 213h2v1h-2zM66 213h2v1h-2zM70 213h2v1h-2zM74 213h4v1h-4zM88 213h1v1h-1zM91 213h4v1h-4zM97 213h2v1h-2zM102 213h47v1h-47zM150 213h11v1h-11zM163 213h4v1h-4zM168 213h5v1h-5zM176 213h1v1h-1zM180 213h9v1h-9zM191 213h9v1h-9zM14 214h18v1h-18zM38 214h3v1h-3zM43 214h1v1h-1zM45 214h4v1h-4zM58 214h2v1h-2zM67 214h2v1h-2zM74 214h2v1h-2zM105 214h1v1h-1zM111 214h1v1h-1zM113 214h35v1h-35zM149 214h11v1h-11zM163 214h1v1h-1zM167 214h5v1h-5zM181 214h3v1h-3zM185 214h2v1h-2zM191 214h9v1h-9zM14 215h19v1h-19zM34 215h1v1h-1zM37 215h4v1h-4zM43 215h1v1h-1zM45 215h4v1h-4zM51 215h1v1h-1zM58 215h2v1h-2zM64 215h1v1h-1zM67 215h2v1h-2zM71 215h2v1h-2zM74 215h4v1h-4zM93 215h5v1h-5zM99 215h49v1h-49zM149 215h12v1h-12zM162 215h3v1h-3zM166 215h6v1h-6zM175 215h1v1h-1zM179 215h21v1h-21zM13 216h21v1h-21zM39 216h2v1h-2zM44 216h5v1h-5zM58 216h1v1h-1zM67 216h2v1h-2zM75 216h1v1h-1zM104 216h6v1h-6zM111 216h36v1h-36zM148 216h11v1h-11zM167 216h4v1h-4zM181 216h2v1h-2zM191 216h1v1h-1zM194 216h6v1h-6zM12 217h22v1h-22zM39 217h3v1h-3zM44 217h9v1h-9zM57 217h3v1h-3zM67 217h2v1h-2zM71 217h2v1h-2zM74 217h4v1h-4zM92 217h1v1h-1zM94 217h53v1h-53zM148 217h12v1h-12zM162 217h9v1h-9zM174 217h1v1h-1zM177 217h23v1h-23zM12 218h23v1h-23zM41 218h1v1h-1zM45 218h6v1h-6zM66 218h1v1h-1zM75 218h2v1h-2zM78 218h1v1h-1zM95 218h1v1h-1zM99 218h1v1h-1zM102 218h4v1h-4zM107 218h2v1h-2zM110 218h34v1h-34zM145 218h1v1h-1zM148 218h11v1h-11zM161 218h1v1h-1zM167 218h4v1h-4zM181 218h3v1h-3zM186 218h2v1h-2zM194 218h6v1h-6zM11 219h25v1h-25zM40 219h2v1h-2zM45 219h6v1h-6zM58 219h2v1h-2zM66 219h3v1h-3zM70 219h1v1h-1zM72 219h1v1h-1zM75 219h4v1h-4zM84 219h1v1h-1zM89 219h1v1h-1zM92 219h54v1h-54zM147 219h12v1h-12zM160 219h1v1h-1zM162 219h9v1h-9zM174 219h1v1h-1zM179 219h5v1h-5zM185 219h4v1h-4zM191 219h9v1h-9zM11 220h26v1h-26zM41 220h2v1h-2zM45 220h7v1h-7zM67 220h2v1h-2zM76 220h3v1h-3zM93 220h1v1h-1zM96 220h1v1h-1zM100 220h6v1h-6zM107 220h38v1h-38zM147 220h11v1h-11zM162 220h1v1h-1zM166 220h5v1h-5zM180 220h3v1h-3zM186 220h2v1h-2zM194 220h6v1h-6zM11 221h27v1h-27zM41 221h2v1h-2zM45 221h7v1h-7zM57 221h3v1h-3zM65 221h4v1h-4zM71 221h2v1h-2zM75 221h2v1h-2zM78 221h2v1h-2zM88 221h1v1h-1zM93 221h2v1h-2zM96 221h49v1h-49zM146 221h12v1h-12zM161 221h10v1h-10zM173 221h1v1h-1zM176 221h7v1h-7zM185 221h4v1h-4zM193 221h7v1h-7zM10 222h18v1h-18zM29 222h9v1h-9zM42 222h2v1h-2zM45 222h1v1h-1zM47 222h6v1h-6zM58 222h2v1h-2zM67 222h2v1h-2zM76 222h4v1h-4zM94 222h1v1h-1zM98 222h2v1h-2zM102 222h42v1h-42zM145 222h13v1h-13zM161 222h2v1h-2zM166 222h4v1h-4zM179 222h4v1h-4zM185 222h3v1h-3zM193 222h1v1h-1zM195 222h5v1h-5zM10 223h29v1h-29zM42 223h2v1h-2zM45 223h8v1h-8zM58 223h2v1h-2zM67 223h3v1h-3zM71 223h1v1h-1zM76 223h2v1h-2zM79 223h2v1h-2zM89 223h1v1h-1zM94 223h2v1h-2zM100 223h1v1h-1zM102 223h31v1h-31zM134 223h9v1h-9zM145 223h12v1h-12zM160 223h10v1h-10zM177 223h6v1h-6zM185 223h4v1h-4zM194 223h6v1h-6zM10 224h13v1h-13zM24 224h15v1h-15zM42 224h3v1h-3zM47 224h6v1h-6zM58 224h2v1h-2zM67 224h3v1h-3zM71 224h2v1h-2zM74 224h1v1h-1zM77 224h4v1h-4zM89 224h1v1h-1zM99 224h2v1h-2zM102 224h10v1h-10zM113 224h30v1h-30zM144 224h13v1h-13zM160 224h3v1h-3zM164 224h6v1h-6zM177 224h1v1h-1zM179 224h4v1h-4zM185 224h4v1h-4zM195 224h5v1h-5zM9 225h14v1h-14zM24 225h6v1h-6zM31 225h8v1h-8zM42 225h3v1h-3zM47 225h6v1h-6zM58 225h2v1h-2zM68 225h2v1h-2zM72 225h1v1h-1zM77 225h2v1h-2zM80 225h2v1h-2zM100 225h1v1h-1zM104 225h2v1h-2zM107 225h1v1h-1zM109 225h1v1h-1zM112 225h12v1h-12zM127 225h9v1h-9zM137 225h2v1h-2zM144 225h13v1h-13zM159 225h3v1h-3zM164 225h6v1h-6zM179 225h4v1h-4zM186 225h3v1h-3zM195 225h5v1h-5zM9 226h22v1h-22zM32 226h8v1h-8zM43 226h3v1h-3zM48 226h5v1h-5zM58 226h2v1h-2zM67 226h3v1h-3zM72 226h2v1h-2zM77 226h3v1h-3zM81 226h1v1h-1zM90 226h1v1h-1zM102 226h23v1h-23zM127 226h8v1h-8zM137 226h2v1h-2zM140 226h2v1h-2zM143 226h13v1h-13zM158 226h13v1h-13zM179 226h4v1h-4zM185 226h5v1h-5zM195 226h5v1h-5zM8 227h11v1h-11zM20 227h4v1h-4zM25 227h5v1h-5zM32 227h9v1h-9zM43 227h3v1h-3zM49 227h3v1h-3zM58 227h1v1h-1zM68 227h1v1h-1zM72 227h2v1h-2zM78 227h1v1h-1zM81 227h2v1h-2zM103 227h1v1h-1zM106 227h1v1h-1zM109 227h2v1h-2zM126 227h3v1h-3zM130 227h3v1h-3zM135 227h1v1h-1zM137 227h1v1h-1zM142 227h13v1h-13zM159 227h4v1h-4zM164 227h6v1h-6zM179 227h4v1h-4zM185 227h3v1h-3zM195 227h5v1h-5zM8 228h23v1h-23zM32 228h9v1h-9zM43 228h4v1h-4zM51 228h2v1h-2zM57 228h3v1h-3zM64 228h1v1h-1zM68 228h2v1h-2zM72 228h2v1h-2zM78 228h6v1h-6zM89 228h1v1h-1zM96 228h2v1h-2zM100 228h1v1h-1zM103 228h14v1h-14zM118 228h22v1h-22zM142 228h13v1h-13zM157 228h6v1h-6zM164 228h7v1h-7zM177 228h6v1h-6zM185 228h6v1h-6zM195 228h5v1h-5zM8 229h13v1h-13zM23 229h1v1h-1zM25 229h5v1h-5zM33 229h8v1h-8zM44 229h3v1h-3zM57 229h2v1h-2zM69 229h1v1h-1zM73 229h1v1h-1zM79 229h2v1h-2zM83 229h1v1h-1zM107 229h1v1h-1zM109 229h2v1h-2zM118 229h1v1h-1zM126 229h1v1h-1zM129 229h3v1h-3zM141 229h10v1h-10zM152 229h2v1h-2zM158 229h1v1h-1zM164 229h4v1h-4zM179 229h3v1h-3zM186 229h1v1h-1zM188 229h2v1h-2zM194 229h5v1h-5zM7 230h24v1h-24zM33 230h9v1h-9zM44 230h4v1h-4zM57 230h3v1h-3zM68 230h3v1h-3zM73 230h2v1h-2zM79 230h3v1h-3zM83 230h2v1h-2zM101 230h33v1h-33zM135 230h2v1h-2zM138 230h1v1h-1zM140 230h14v1h-14zM157 230h14v1h-14zM177 230h6v1h-6zM185 230h7v1h-7zM194 230h6v1h-6zM7 231h15v1h-15zM27 231h4v1h-4zM34 231h8v1h-8zM45 231h4v1h-4zM57 231h2v1h-2zM70 231h1v1h-1zM74 231h1v1h-1zM80 231h1v1h-1zM84 231h2v1h-2zM107 231h1v1h-1zM110 231h1v1h-1zM127 231h4v1h-4zM140 231h13v1h-13zM157 231h2v1h-2zM164 231h6v1h-6zM179 231h3v1h-3zM187 231h3v1h-3zM195 231h3v1h-3zM7 232h16v1h-16zM24 232h8v1h-8zM34 232h9v1h-9zM45 232h6v1h-6zM56 232h3v1h-3zM68 232h3v1h-3zM74 232h2v1h-2zM80 232h4v1h-4zM85 232h1v1h-1zM104 232h26v1h-26zM131 232h4v1h-4zM138 232h15v1h-15zM155 232h15v1h-15zM173 232h1v1h-1zM177 232h6v1h-6zM186 232h6v1h-6zM194 232h5v1h-5zM6 233h12v1h-12zM20 233h4v1h-4zM28 233h3v1h-3zM34 233h7v1h-7zM42 233h1v1h-1zM45 233h6v1h-6zM57 233h2v1h-2zM75 233h1v1h-1zM81 233h2v1h-2zM85 233h2v1h-2zM108 233h2v1h-2zM112 233h2v1h-2zM124 233h1v1h-1zM132 233h1v1h-1zM138 233h6v1h-6zM145 233h2v1h-2zM148 233h3v1h-3zM155 233h3v1h-3zM164 233h4v1h-4zM179 233h3v1h-3zM188 233h1v1h-1zM195 233h3v1h-3zM5 234h36v1h-36zM42 234h2v1h-2zM45 234h7v1h-7zM56 234h3v1h-3zM68 234h3v1h-3zM75 234h2v1h-2zM82 234h2v1h-2zM86 234h2v1h-2zM89 234h1v1h-1zM107 234h13v1h-13zM123 234h2v1h-2zM131 234h3v1h-3zM137 234h15v1h-15zM154 234h16v1h-16zM172 234h1v1h-1zM175 234h1v1h-1zM177 234h5v1h-5zM185 234h7v1h-7zM194 234h6v1h-6zM6 235h13v1h-13zM23 235h2v1h-2zM30 235h12v1h-12zM43 235h1v1h-1zM46 235h6v1h-6zM57 235h2v1h-2zM75 235h2v1h-2zM82 235h2v1h-2zM90 235h1v1h-1zM107 235h1v1h-1zM109 235h2v1h-2zM112 235h2v1h-2zM116 235h1v1h-1zM119 235h1v1h-1zM130 235h1v1h-1zM136 235h15v1h-15zM156 235h2v1h-2zM163 235h3v1h-3zM167 235h1v1h-1zM179 235h3v1h-3zM188 235h1v1h-1zM195 235h3v1h-3zM5 236h17v1h-17zM24 236h5v1h-5zM30 236h12v1h-12zM43 236h2v1h-2zM46 236h7v1h-7zM56 236h3v1h-3zM68 236h4v1h-4zM75 236h3v1h-3zM83 236h3v1h-3zM88 236h1v1h-1zM90 236h2v1h-2zM108 236h10v1h-10zM119 236h1v1h-1zM130 236h2v1h-2zM135 236h16v1h-16zM152 236h17v1h-17zM171 236h1v1h-1zM178 236h4v1h-4zM185 236h6v1h-6zM194 236h4v1h-4zM199 236h1v1h-1zM5 237h12v1h-12zM18 237h1v1h-1zM31 237h12v1h-12zM44 237h1v1h-1zM47 237h4v1h-4zM57 237h2v1h-2zM77 237h1v1h-1zM84 237h1v1h-1zM86 237h1v1h-1zM91 237h2v1h-2zM108 237h9v1h-9zM127 237h2v1h-2zM134 237h15v1h-15zM155 237h1v1h-1zM163 237h3v1h-3zM179 237h3v1h-3zM188 237h2v1h-2zM195 237h3v1h-3zM4 238h18v1h-18zM25 238h4v1h-4zM31 238h14v1h-14zM47 238h6v1h-6zM56 238h3v1h-3zM69 238h3v1h-3zM77 238h2v1h-2zM84 238h2v1h-2zM87 238h1v1h-1zM91 238h3v1h-3zM109 238h2v1h-2zM112 238h2v1h-2zM115 238h2v1h-2zM127 238h1v1h-1zM133 238h17v1h-17zM151 238h17v1h-17zM173 238h1v1h-1zM175 238h1v1h-1zM178 238h4v1h-4zM185 238h5v1h-5zM194 238h4v1h-4zM4 239h15v1h-15zM25 239h2v1h-2zM32 239h11v1h-11zM48 239h3v1h-3zM57 239h1v1h-1zM70 239h1v1h-1zM78 239h2v1h-2zM85 239h1v1h-1zM88 239h1v1h-1zM93 239h2v1h-2zM107 239h1v1h-1zM109 239h10v1h-10zM128 239h1v1h-1zM131 239h12v1h-12zM144 239h4v1h-4zM151 239h1v1h-1zM161 239h3v1h-3zM179 239h2v1h-2zM186 239h1v1h-1zM195 239h2v1h-2zM4 240h17v1h-17zM26 240h2v1h-2zM30 240h14v1h-14zM45 240h1v1h-1zM48 240h4v1h-4zM56 240h3v1h-3zM70 240h2v1h-2zM78 240h2v1h-2zM85 240h2v1h-2zM88 240h2v1h-2zM93 240h2v1h-2zM112 240h2v1h-2zM130 240h18v1h-18zM150 240h18v1h-18zM174 240h2v1h-2zM177 240h5v1h-5zM185 240h5v1h-5zM195 240h3v1h-3zM4 241h11v1h-11zM18 241h3v1h-3zM32 241h12v1h-12zM48 241h4v1h-4zM56 241h2v1h-2zM70 241h1v1h-1zM80 241h2v1h-2zM86 241h2v1h-2zM89 241h1v1h-1zM94 241h2v1h-2zM110 241h8v1h-8zM124 241h2v1h-2zM129 241h18v1h-18zM150 241h1v1h-1zM154 241h1v1h-1zM156 241h1v1h-1zM160 241h1v1h-1zM162 241h3v1h-3zM166 241h1v1h-1zM179 241h3v1h-3zM186 241h1v1h-1zM188 241h2v1h-2zM195 241h3v1h-3zM199 241h1v1h-1zM4 242h13v1h-13zM18 242h7v1h-7zM31 242h14v1h-14zM46 242h1v1h-1zM49 242h3v1h-3zM56 242h3v1h-3zM70 242h3v1h-3zM80 242h3v1h-3zM85 242h4v1h-4zM90 242h1v1h-1zM94 242h2v1h-2zM113 242h1v1h-1zM128 242h19v1h-19zM148 242h3v1h-3zM152 242h15v1h-15zM177 242h5v1h-5zM185 242h6v1h-6zM195 242h2v1h-2zM4 243h12v1h-12zM18 243h1v1h-1zM20 243h7v1h-7zM33 243h4v1h-4zM39 243h6v1h-6zM49 243h3v1h-3zM56 243h2v1h-2zM70 243h2v1h-2zM81 243h2v1h-2zM86 243h4v1h-4zM96 243h2v1h-2zM108 243h10v1h-10zM126 243h13v1h-13zM140 243h5v1h-5zM148 243h2v1h-2zM151 243h1v1h-1zM155 243h1v1h-1zM158 243h8v1h-8zM179 243h2v1h-2zM186 243h5v1h-5zM195 243h5v1h-5zM4 244h14v1h-14zM20 244h9v1h-9zM33 244h5v1h-5zM39 244h7v1h-7zM49 244h4v1h-4zM56 244h3v1h-3zM71 244h2v1h-2zM82 244h2v1h-2zM86 244h5v1h-5zM97 244h2v1h-2zM125 244h9v1h-9zM135 244h3v1h-3zM139 244h6v1h-6zM147 244h3v1h-3zM151 244h1v1h-1zM153 244h13v1h-13zM168 244h2v1h-2zM176 244h1v1h-1zM178 244h3v1h-3zM185 244h6v1h-6zM195 244h4v1h-4zM5 245h13v1h-13zM21 245h10v1h-10zM34 245h4v1h-4zM40 245h6v1h-6zM50 245h2v1h-2zM56 245h3v1h-3zM60 245h1v1h-1zM71 245h2v1h-2zM83 245h1v1h-1zM87 245h5v1h-5zM98 245h2v1h-2zM110 245h3v1h-3zM114 245h2v1h-2zM122 245h12v1h-12zM135 245h3v1h-3zM139 245h6v1h-6zM147 245h3v1h-3zM152 245h2v1h-2zM157 245h9v1h-9zM178 245h3v1h-3zM186 245h5v1h-5zM195 245h4v1h-4zM4 246h14v1h-14zM21 246h11v1h-11zM35 246h3v1h-3zM40 246h7v1h-7zM50 246h2v1h-2zM56 246h2v1h-2zM71 246h2v1h-2zM82 246h3v1h-3zM87 246h6v1h-6zM97 246h1v1h-1zM99 246h2v1h-2zM121 246h23v1h-23zM146 246h3v1h-3zM151 246h3v1h-3zM156 246h3v1h-3zM160 246h5v1h-5zM168 246h2v1h-2zM172 246h1v1h-1zM177 246h4v1h-4zM186 246h5v1h-5zM195 246h3v1h-3zM4 247h14v1h-14zM22 247h11v1h-11zM35 247h3v1h-3zM41 247h1v1h-1zM43 247h5v1h-5zM50 247h2v1h-2zM56 247h3v1h-3zM69 247h1v1h-1zM71 247h3v1h-3zM79 247h1v1h-1zM83 247h2v1h-2zM88 247h4v1h-4zM93 247h1v1h-1zM97 247h1v1h-1zM100 247h2v1h-2zM119 247h10v1h-10zM130 247h12v1h-12zM145 247h4v1h-4zM151 247h2v1h-2zM157 247h2v1h-2zM160 247h5v1h-5zM178 247h3v1h-3zM186 247h6v1h-6zM195 247h5v1h-5zM4 248h15v1h-15zM23 248h11v1h-11zM36 248h3v1h-3zM42 248h6v1h-6zM51 248h1v1h-1zM56 248h3v1h-3zM61 248h1v1h-1zM69 248h1v1h-1zM71 248h3v1h-3zM79 248h1v1h-1zM84 248h2v1h-2zM88 248h5v1h-5zM98 248h1v1h-1zM101 248h3v1h-3zM116 248h26v1h-26zM145 248h3v1h-3zM150 248h4v1h-4zM156 248h3v1h-3zM160 248h5v1h-5zM177 248h4v1h-4zM186 248h6v1h-6zM195 248h5v1h-5zM4 249h9v1h-9zM15 249h4v1h-4zM23 249h5v1h-5zM29 249h6v1h-6zM37 249h3v1h-3zM44 249h5v1h-5zM52 249h1v1h-1zM56 249h4v1h-4zM69 249h1v1h-1zM71 249h2v1h-2zM80 249h2v1h-2zM85 249h1v1h-1zM90 249h4v1h-4zM98 249h2v1h-2zM103 249h38v1h-38zM144 249h4v1h-4zM151 249h2v1h-2zM156 249h2v1h-2zM160 249h5v1h-5zM177 249h4v1h-4zM186 249h6v1h-6zM196 249h1v1h-1zM198 249h2v1h-2zM3 250h11v1h-11zM16 250h3v1h-3zM22 250h1v1h-1zM24 250h12v1h-12zM38 250h2v1h-2zM45 250h3v1h-3zM56 250h4v1h-4zM72 250h2v1h-2zM80 250h2v1h-2zM85 250h2v1h-2zM90 250h5v1h-5zM99 250h1v1h-1zM104 250h26v1h-26zM131 250h9v1h-9zM143 250h5v1h-5zM150 250h2v1h-2zM153 250h1v1h-1zM155 250h3v1h-3zM159 250h5v1h-5zM177 250h4v1h-4zM187 250h4v1h-4zM196 250h2v1h-2zM199 250h1v1h-1zM3 251h4v1h-4zM8 251h6v1h-6zM18 251h2v1h-2zM22 251h1v1h-1zM25 251h5v1h-5zM32 251h5v1h-5zM39 251h2v1h-2zM44 251h1v1h-1zM47 251h2v1h-2zM56 251h5v1h-5zM64 251h1v1h-1zM71 251h4v1h-4zM80 251h2v1h-2zM85 251h3v1h-3zM91 251h4v1h-4zM99 251h2v1h-2zM103 251h1v1h-1zM106 251h33v1h-33zM142 251h9v1h-9zM155 251h10v1h-10zM168 251h1v1h-1zM177 251h4v1h-4zM183 251h1v1h-1zM186 251h6v1h-6zM196 251h4v1h-4zM2 252h6v1h-6zM10 252h3v1h-3zM19 252h1v1h-1zM25 252h5v1h-5zM33 252h4v1h-4zM40 252h1v1h-1zM56 252h4v1h-4zM72 252h3v1h-3zM81 252h1v1h-1zM85 252h3v1h-3zM92 252h1v1h-1zM94 252h1v1h-1zM100 252h1v1h-1zM103 252h2v1h-2zM108 252h8v1h-8zM117 252h21v1h-21zM141 252h6v1h-6zM149 252h2v1h-2zM155 252h7v1h-7zM177 252h3v1h-3zM187 252h1v1h-1zM190 252h1v1h-1zM1 253h8v1h-8zM11 253h2v1h-2zM15 253h1v1h-1zM20 253h1v1h-1zM25 253h1v1h-1zM27 253h4v1h-4zM34 253h5v1h-5zM40 253h2v1h-2zM46 253h2v1h-2zM49 253h2v1h-2zM56 253h4v1h-4zM72 253h3v1h-3zM81 253h2v1h-2zM86 253h3v1h-3zM94 253h2v1h-2zM100 253h2v1h-2zM104 253h33v1h-33zM140 253h7v1h-7zM149 253h15v1h-15zM166 253h4v1h-4zM172 253h1v1h-1zM176 253h5v1h-5zM183 253h1v1h-1zM186 253h7v1h-7zM198 253h2v1h-2zM1 254h9v1h-9zM13 254h1v1h-1zM21 254h1v1h-1zM28 254h2v1h-2zM31 254h1v1h-1zM35 254h4v1h-4zM41 254h1v1h-1zM47 254h1v1h-1zM50 254h1v1h-1zM56 254h5v1h-5zM72 254h2v1h-2zM82 254h1v1h-1zM86 254h3v1h-3zM101 254h1v1h-1zM109 254h4v1h-4zM114 254h12v1h-12zM127 254h5v1h-5zM134 254h3v1h-3zM139 254h2v1h-2zM143 254h3v1h-3zM151 254h1v1h-1zM153 254h2v1h-2zM156 254h2v1h-2zM159 254h4v1h-4zM176 254h4v1h-4zM188 254h1v1h-1zM190 254h1v1h-1zM199 254h1v1h-1zM0 255h17v1h-17zM22 255h1v1h-1zM27 255h1v1h-1zM29 255h4v1h-4zM36 255h4v1h-4zM42 255h2v1h-2zM48 255h1v1h-1zM56 255h5v1h-5zM65 255h1v1h-1zM72 255h4v1h-4zM82 255h2v1h-2zM87 255h5v1h-5zM96 255h2v1h-2zM101 255h3v1h-3zM106 255h2v1h-2zM109 255h25v1h-25zM139 255h7v1h-7zM148 255h15v1h-15zM165 255h4v1h-4zM170 255h2v1h-2zM175 255h6v1h-6zM186 255h2v1h-2zM189 255h2v1h-2zM192 255h1v1h-1zM198 255h2v1h-2zM1 256h14v1h-14zM16 256h2v1h-2zM37 256h3v1h-3zM57 256h3v1h-3zM73 256h2v1h-2zM82 256h2v1h-2zM88 256h4v1h-4zM102 256h1v1h-1zM107 256h5v1h-5zM113 256h20v1h-20zM140 256h1v1h-1zM142 256h3v1h-3zM157 256h2v1h-2zM177 256h3v1h-3zM187 256h1v1h-1zM0 257h22v1h-22zM24 257h1v1h-1zM33 257h2v1h-2zM38 257h3v1h-3zM43 257h5v1h-5zM56 257h6v1h-6zM73 257h3v1h-3zM83 257h2v1h-2zM89 257h4v1h-4zM103 257h1v1h-1zM105 257h26v1h-26zM135 257h2v1h-2zM139 257h6v1h-6zM147 257h3v1h-3zM151 257h12v1h-12zM165 257h4v1h-4zM170 257h2v1h-2zM175 257h6v1h-6zM186 257h7v1h-7zM198 257h2v1h-2zM0 258h14v1h-14zM15 258h6v1h-6zM34 258h1v1h-1zM38 258h3v1h-3zM58 258h3v1h-3zM73 258h3v1h-3zM84 258h1v1h-1zM89 258h4v1h-4zM106 258h3v1h-3zM110 258h20v1h-20zM133 258h3v1h-3zM141 258h3v1h-3zM148 258h1v1h-1zM156 258h1v1h-1zM177 258h3v1h-3zM0 259h25v1h-25zM34 259h2v1h-2zM39 259h3v1h-3zM44 259h1v1h-1zM57 259h5v1h-5zM73 259h4v1h-4zM84 259h2v1h-2zM91 259h4v1h-4zM104 259h1v1h-1zM107 259h21v1h-21zM132 259h4v1h-4zM139 259h4v1h-4zM146 259h5v1h-5zM153 259h18v1h-18zM175 259h6v1h-6zM187 259h4v1h-4zM0 260h16v1h-16zM23 260h1v1h-1zM25 260h1v1h-1zM36 260h1v1h-1zM40 260h2v1h-2zM59 260h2v1h-2zM74 260h2v1h-2zM85 260h2v1h-2zM92 260h3v1h-3zM110 260h2v1h-2zM115 260h2v1h-2zM119 260h1v1h-1zM124 260h1v1h-1zM132 260h3v1h-3zM139 260h3v1h-3zM158 260h1v1h-1zM169 260h1v1h-1zM177 260h3v1h-3zM0 261h29v1h-29zM36 261h2v1h-2zM40 261h3v1h-3zM45 261h2v1h-2zM50 261h1v1h-1zM57 261h5v1h-5zM71 261h1v1h-1zM73 261h4v1h-4zM86 261h2v1h-2zM92 261h4v1h-4zM109 261h14v1h-14zM128 261h7v1h-7zM138 261h4v1h-4zM145 261h2v1h-2zM148 261h22v1h-22zM174 261h7v1h-7zM187 261h4v1h-4zM0 262h10v1h-10zM16 262h3v1h-3zM24 262h2v1h-2zM27 262h1v1h-1zM37 262h1v1h-1zM41 262h3v1h-3zM57 262h3v1h-3zM61 262h1v1h-1zM74 262h2v1h-2zM93 262h3v1h-3zM111 262h7v1h-7zM119 262h1v1h-1zM130 262h3v1h-3zM137 262h4v1h-4zM157 262h2v1h-2zM168 262h1v1h-1zM177 262h3v1h-3zM0 263h11v1h-11zM12 263h1v1h-1zM16 263h17v1h-17zM37 263h2v1h-2zM41 263h3v1h-3zM49 263h2v1h-2zM57 263h4v1h-4zM68 263h1v1h-1zM71 263h2v1h-2zM74 263h3v1h-3zM87 263h3v1h-3zM94 263h3v1h-3zM124 263h10v1h-10zM136 263h5v1h-5zM143 263h3v1h-3zM147 263h4v1h-4zM152 263h19v1h-19zM174 263h7v1h-7zM183 263h1v1h-1zM188 263h4v1h-4zM0 264h11v1h-11zM18 264h1v1h-1zM28 264h4v1h-4zM42 264h2v1h-2zM58 264h4v1h-4zM75 264h2v1h-2zM88 264h1v1h-1zM95 264h3v1h-3zM107 264h1v1h-1zM123 264h1v1h-1zM128 264h4v1h-4zM136 264h4v1h-4zM157 264h2v1h-2zM160 264h1v1h-1zM165 264h1v1h-1zM167 264h1v1h-1zM177 264h1v1h-1zM179 264h1v1h-1zM0 265h14v1h-14zM19 265h9v1h-9zM29 265h5v1h-5zM39 265h1v1h-1zM42 265h3v1h-3zM57 265h6v1h-6zM69 265h1v1h-1zM74 265h3v1h-3zM89 265h3v1h-3zM95 265h4v1h-4zM110 265h2v1h-2zM113 265h19v1h-19zM134 265h6v1h-6zM146 265h3v1h-3zM151 265h2v1h-2zM154 265h16v1h-16zM175 265h6v1h-6zM183 265h1v1h-1zM189 265h2v1h-2zM0 266h8v1h-8zM9 266h3v1h-3zM31 266h3v1h-3zM44 266h2v1h-2zM59 266h4v1h-4zM75 266h2v1h-2zM91 266h1v1h-1zM97 266h2v1h-2zM124 266h7v1h-7zM133 266h6v1h-6zM146 266h1v1h-1zM154 266h2v1h-2zM157 266h1v1h-1zM159 266h2v1h-2zM163 266h2v1h-2zM166 266h2v1h-2zM177 266h3v1h-3zM0 267h14v1h-14zM15 267h2v1h-2zM23 267h1v1h-1zM26 267h1v1h-1zM32 267h4v1h-4zM43 267h3v1h-3zM57 267h6v1h-6zM70 267h1v1h-1zM75 267h3v1h-3zM97 267h3v1h-3zM111 267h1v1h-1zM119 267h2v1h-2zM123 267h8v1h-8zM132 267h6v1h-6zM144 267h3v1h-3zM151 267h6v1h-6zM159 267h9v1h-9zM169 267h1v1h-1zM175 267h6v1h-6zM183 267h1v1h-1zM188 267h3v1h-3zM0 268h11v1h-11zM13 268h3v1h-3zM34 268h3v1h-3zM41 268h1v1h-1zM45 268h1v1h-1zM59 268h4v1h-4zM76 268h2v1h-2zM92 268h2v1h-2zM98 268h3v1h-3zM123 268h3v1h-3zM127 268h10v1h-10zM154 268h1v1h-1zM156 268h2v1h-2zM165 268h2v1h-2zM178 268h3v1h-3zM0 269h14v1h-14zM15 269h4v1h-4zM25 269h1v1h-1zM34 269h4v1h-4zM44 269h3v1h-3zM57 269h6v1h-6zM74 269h5v1h-5zM92 269h2v1h-2zM98 269h3v1h-3zM116 269h1v1h-1zM119 269h4v1h-4zM124 269h2v1h-2zM127 269h2v1h-2zM130 269h7v1h-7zM146 269h1v1h-1zM151 269h7v1h-7zM161 269h1v1h-1zM164 269h3v1h-3zM168 269h1v1h-1zM176 269h5v1h-5zM0 270h11v1h-11zM12 270h2v1h-2zM18 270h1v1h-1zM36 270h3v1h-3zM45 270h2v1h-2zM60 270h3v1h-3zM76 270h2v1h-2zM94 270h1v1h-1zM99 270h3v1h-3zM117 270h5v1h-5zM124 270h2v1h-2zM128 270h9v1h-9zM154 270h3v1h-3zM165 270h2v1h-2zM168 270h1v1h-1zM177 270h1v1h-1zM179 270h2v1h-2zM0 271h20v1h-20zM21 271h1v1h-1zM37 271h3v1h-3zM45 271h3v1h-3zM59 271h4v1h-4zM76 271h2v1h-2zM94 271h1v1h-1zM99 271h3v1h-3zM118 271h1v1h-1zM120 271h2v1h-2zM128 271h7v1h-7zM141 271h1v1h-1zM144 271h2v1h-2zM154 271h1v1h-1zM156 271h1v1h-1zM165 271h2v1h-2zM168 271h1v1h-1zM176 271h5v1h-5zM0 272h9v1h-9zM14 272h5v1h-5zM20 272h3v1h-3zM38 272h3v1h-3zM47 272h1v1h-1zM58 272h2v1h-2zM61 272h2v1h-2zM76 272h3v1h-3zM100 272h4v1h-4zM117 272h3v1h-3zM121 272h3v1h-3zM127 272h8v1h-8zM137 272h1v1h-1zM145 272h1v1h-1zM149 272h1v1h-1zM153 272h1v1h-1zM155 272h1v1h-1zM159 272h1v1h-1zM163 272h4v1h-4zM178 272h3v1h-3zM0 273h14v1h-14zM15 273h2v1h-2zM39 273h2v1h-2zM47 273h1v1h-1zM59 273h4v1h-4zM76 273h3v1h-3zM101 273h3v1h-3zM127 273h5v1h-5zM163 273h1v1h-1zM177 273h4v1h-4zM0 274h13v1h-13zM14 274h9v1h-9zM24 274h1v1h-1zM40 274h2v1h-2zM61 274h2v1h-2zM70 274h1v1h-1zM77 274h3v1h-3zM96 274h1v1h-1zM101 274h4v1h-4zM108 274h1v1h-1zM118 274h1v1h-1zM121 274h1v1h-1zM126 274h8v1h-8zM136 274h1v1h-1zM139 274h2v1h-2zM144 274h1v1h-1zM148 274h2v1h-2zM152 274h1v1h-1zM156 274h1v1h-1zM161 274h1v1h-1zM163 274h2v1h-2zM176 274h5v1h-5zM0 275h9v1h-9zM11 275h2v1h-2zM15 275h2v1h-2zM21 275h2v1h-2zM41 275h1v1h-1zM61 275h2v1h-2zM77 275h2v1h-2zM102 275h3v1h-3zM126 275h6v1h-6zM178 275h3v1h-3zM0 276h7v1h-7zM10 276h2v1h-2zM14 276h6v1h-6zM21 276h7v1h-7zM42 276h2v1h-2zM58 276h1v1h-1zM61 276h2v1h-2zM77 276h3v1h-3zM97 276h1v1h-1zM103 276h4v1h-4zM116 276h6v1h-6zM124 276h8v1h-8zM137 276h1v1h-1zM145 276h2v1h-2zM150 276h1v1h-1zM153 276h2v1h-2zM156 276h1v1h-1zM158 276h1v1h-1zM161 276h1v1h-1zM164 276h1v1h-1zM179 276h2v1h-2zM1 277h6v1h-6zM43 277h1v1h-1zM78 277h1v1h-1zM104 277h2v1h-2zM125 277h3v1h-3zM0 278h7v1h-7zM9 278h2v1h-2zM13 278h1v1h-1zM16 278h3v1h-3zM22 278h1v1h-1zM24 278h6v1h-6zM44 278h1v1h-1zM49 278h1v1h-1zM59 278h1v1h-1zM61 278h2v1h-2zM77 278h4v1h-4zM105 278h3v1h-3zM124 278h6v1h-6zM143 278h2v1h-2zM152 278h1v1h-1zM154 278h1v1h-1zM156 278h2v1h-2zM159 278h3v1h-3zM177 278h2v1h-2zM180 278h1v1h-1zM105 279h1v1h-1zM0 280h3v1h-3zM4 280h1v1h-1zM11 280h2v1h-2zM27 280h1v1h-1zM45 280h1v1h-1zM80 280h1v1h-1zM106 280h3v1h-3zM120 280h2v1h-2zM123 280h5v1h-5zM146 280h1v1h-1zM150 280h1v1h-1zM157 280h3v1h-3zM163 280h1v1h-1zM176 280h3v1h-3zM180 280h1v1h-1zM124 281h2v1h-2zM108 282h1v1h-1zM123 282h2v1h-2zM7 283h1v1h-1zM23 283h1v1h-1zM50 285h1v1h-1z" /><path fill="#8b949e" d="M94 9h1v1h-1zM107 13h3v1h-3zM129 20h1v1h-1zM129 26h1v1h-1zM99 30h1v1h-1zM136 38h2v1h-2zM33 40h1v1h-1zM159 44h1v1h-1zM117 50h1v1h-1zM69 65h4v1h-4zM74 65h1v1h-1zM76 65h2v1h-2zM70 67h1v1h-1zM75 67h1v1h-1zM72 69h2v1h-2zM75 69h5v1h-5zM101 69h1v1h-1zM67 71h1v1h-1zM69 71h4v1h-4zM75 71h1v1h-1zM98 71h2v1h-2zM102 71h1v1h-1zM61 73h1v1h-1zM68 73h3v1h-3zM76 73h1v1h-1zM79 73h3v1h-3zM83 73h2v1h-2zM97 73h5v1h-5zM63 75h1v1h-1zM70 75h1v1h-1zM77 75h7v1h-7zM98 75h2v1h-2zM105 75h1v1h-1zM110 75h1v1h-1zM63 77h1v1h-1zM65 77h1v1h-1zM71 77h4v1h-4zM100 77h1v1h-1zM64 79h4v1h-4zM70 79h8v1h-8zM84 79h2v1h-2zM81 80h1v1h-1zM65 81h2v1h-2zM78 81h5v1h-5zM88 81h1v1h-1zM70 82h1v1h-1zM81 82h1v1h-1zM65 83h1v1h-1zM68 83h2v1h-2zM81 83h2v1h-2zM81 84h2v1h-2zM82 85h1v1h-1zM80 86h3v1h-3zM80 90h2v1h-2zM80 92h3v1h-3zM164 92h1v1h-1zM80 94h2v1h-2zM110 94h1v1h-1zM114 94h3v1h-3zM124 94h1v1h-1zM81 96h1v1h-1zM103 96h2v1h-2zM113 96h5v1h-5zM114 97h1v1h-1zM80 98h2v1h-2zM102 98h18v1h-18zM126 98h1v1h-1zM131 99h1v1h-1zM80 100h1v1h-1zM93 100h1v1h-1zM128 100h4v1h-4zM58 101h1v1h-1zM119 101h1v1h-1zM128 101h5v1h-5zM57 102h2v1h-2zM69 102h2v1h-2zM109 102h14v1h-14zM128 102h6v1h-6zM57 103h3v1h-3zM67 103h4v1h-4zM83 103h1v1h-1zM114 103h10v1h-10zM128 103h6v1h-6zM171 103h1v1h-1zM56 104h3v1h-3zM66 104h3v1h-3zM84 104h2v1h-2zM117 104h7v1h-7zM129 104h6v1h-6zM56 105h9v1h-9zM83 105h5v1h-5zM118 105h6v1h-6zM127 105h8v1h-8zM56 106h3v1h-3zM83 106h5v1h-5zM120 106h4v1h-4zM129 106h7v1h-7zM48 107h1v1h-1zM56 107h2v1h-2zM64 107h3v1h-3zM81 107h9v1h-9zM116 107h10v1h-10zM128 107h9v1h-9zM85 108h4v1h-4zM118 108h1v1h-1zM120 108h7v1h-7zM129 108h7v1h-7zM48 109h1v1h-1zM59 109h4v1h-4zM83 109h9v1h-9zM111 109h27v1h-27zM85 110h5v1h-5zM116 110h3v1h-3zM120 110h2v1h-2zM123 110h13v1h-13zM137 110h1v1h-1zM48 111h1v1h-1zM55 111h1v1h-1zM57 111h2v1h-2zM84 111h10v1h-10zM114 111h4v1h-4zM120 111h1v1h-1zM123 111h16v1h-16zM85 112h5v1h-5zM118 112h1v1h-1zM120 112h19v1h-19zM48 113h1v1h-1zM55 113h2v1h-2zM80 113h3v1h-3zM85 113h7v1h-7zM94 113h2v1h-2zM108 113h1v1h-1zM111 113h4v1h-4zM119 113h20v1h-20zM80 114h1v1h-1zM86 114h5v1h-5zM116 114h1v1h-1zM120 114h18v1h-18zM78 115h14v1h-14zM97 115h1v1h-1zM115 115h2v1h-2zM118 115h3v1h-3zM122 115h18v1h-18zM78 116h14v1h-14zM116 116h24v1h-24zM78 117h15v1h-15zM111 117h3v1h-3zM116 117h23v1h-23zM78 118h7v1h-7zM86 118h9v1h-9zM108 118h2v1h-2zM112 118h27v1h-27zM154 118h1v1h-1zM89 119h6v1h-6zM118 119h21v1h-21zM72 120h1v1h-1zM78 120h4v1h-4zM90 120h7v1h-7zM100 120h1v1h-1zM108 120h2v1h-2zM111 120h29v1h-29zM93 121h4v1h-4zM111 121h1v1h-1zM115 121h24v1h-24zM67 122h1v1h-1zM70 122h2v1h-2zM80 122h1v1h-1zM88 122h2v1h-2zM93 122h5v1h-5zM103 122h3v1h-3zM108 122h3v1h-3zM112 122h28v1h-28zM157 122h1v1h-1zM160 122h1v1h-1zM96 123h2v1h-2zM109 123h1v1h-1zM113 123h26v1h-26zM56 124h2v1h-2zM70 124h2v1h-2zM95 124h3v1h-3zM102 124h1v1h-1zM104 124h2v1h-2zM109 124h31v1h-31zM160 124h1v1h-1zM70 125h1v1h-1zM109 125h27v1h-27zM137 125h2v1h-2zM70 126h2v1h-2zM105 126h1v1h-1zM109 126h31v1h-31zM160 126h1v1h-1zM49 127h1v1h-1zM111 127h1v1h-1zM113 127h23v1h-23zM48 128h2v1h-2zM103 128h2v1h-2zM109 128h22v1h-22zM132 128h2v1h-2zM135 128h1v1h-1zM137 128h2v1h-2zM148 128h1v1h-1zM159 128h1v1h-1zM111 129h24v1h-24zM159 129h1v1h-1zM48 130h1v1h-1zM98 130h1v1h-1zM100 130h4v1h-4zM106 130h2v1h-2zM112 130h20v1h-20zM134 130h1v1h-1zM139 130h1v1h-1zM146 130h1v1h-1zM159 130h1v1h-1zM48 131h2v1h-2zM100 131h8v1h-8zM110 131h20v1h-20zM131 131h4v1h-4zM136 131h3v1h-3zM146 131h1v1h-1zM158 131h2v1h-2zM102 132h5v1h-5zM113 132h1v1h-1zM115 132h19v1h-19zM158 132h1v1h-1zM48 133h2v1h-2zM62 133h3v1h-3zM68 133h1v1h-1zM70 133h1v1h-1zM105 133h31v1h-31zM137 133h2v1h-2zM151 133h3v1h-3zM158 133h1v1h-1zM49 134h1v1h-1zM110 134h1v1h-1zM115 134h15v1h-15zM132 134h3v1h-3zM152 134h2v1h-2zM157 134h1v1h-1zM49 135h2v1h-2zM62 135h7v1h-7zM70 135h1v1h-1zM110 135h26v1h-26zM137 135h1v1h-1zM145 135h1v1h-1zM150 135h3v1h-3zM157 135h1v1h-1zM49 136h2v1h-2zM110 136h1v1h-1zM112 136h3v1h-3zM117 136h11v1h-11zM156 136h2v1h-2zM49 137h2v1h-2zM64 137h2v1h-2zM67 137h2v1h-2zM112 137h22v1h-22zM136 137h1v1h-1zM145 137h2v1h-2zM148 137h2v1h-2zM155 137h2v1h-2zM112 138h20v1h-20zM146 138h2v1h-2zM154 138h3v1h-3zM50 139h2v1h-2zM65 139h1v1h-1zM81 139h1v1h-1zM85 139h1v1h-1zM91 139h2v1h-2zM114 139h1v1h-1zM116 139h8v1h-8zM129 139h2v1h-2zM132 139h1v1h-1zM134 139h1v1h-1zM145 139h3v1h-3zM152 139h5v1h-5zM51 140h1v1h-1zM84 140h1v1h-1zM114 140h12v1h-12zM145 140h3v1h-3zM153 140h3v1h-3zM51 141h1v1h-1zM97 141h1v1h-1zM114 141h11v1h-11zM133 141h1v1h-1zM136 141h1v1h-1zM145 141h3v1h-3zM152 141h4v1h-4zM51 142h2v1h-2zM115 142h15v1h-15zM146 142h2v1h-2zM151 142h4v1h-4zM51 143h2v1h-2zM116 143h10v1h-10zM135 143h1v1h-1zM149 143h6v1h-6zM52 144h1v1h-1zM114 144h14v1h-14zM130 144h1v1h-1zM136 144h1v1h-1zM149 144h4v1h-4zM52 145h1v1h-1zM118 145h2v1h-2zM150 145h2v1h-2zM52 146h3v1h-3zM87 146h7v1h-7zM115 146h11v1h-11zM128 146h1v1h-1zM150 146h1v1h-1zM53 147h1v1h-1zM90 147h1v1h-1zM117 147h2v1h-2zM120 147h3v1h-3zM125 147h1v1h-1zM53 148h3v1h-3zM78 148h17v1h-17zM98 148h2v1h-2zM115 148h3v1h-3zM119 148h4v1h-4zM125 148h2v1h-2zM54 149h1v1h-1zM95 149h5v1h-5zM121 149h1v1h-1zM127 149h1v1h-1zM53 150h3v1h-3zM92 150h1v1h-1zM100 150h1v1h-1zM102 150h2v1h-2zM105 150h2v1h-2zM108 150h2v1h-2zM117 150h1v1h-1zM121 150h2v1h-2zM124 150h1v1h-1zM132 150h1v1h-1zM56 151h1v1h-1zM100 151h9v1h-9zM115 151h1v1h-1zM122 151h1v1h-1zM130 151h1v1h-1zM69 152h1v1h-1zM101 152h1v1h-1zM104 152h2v1h-2zM107 152h2v1h-2zM100 153h10v1h-10zM119 153h1v1h-1zM123 153h1v1h-1zM128 153h1v1h-1zM105 154h2v1h-2zM108 154h1v1h-1zM99 155h11v1h-11zM124 155h1v1h-1zM129 155h1v1h-1zM142 155h1v1h-1zM142 156h1v1h-1zM59 157h2v1h-2zM100 157h9v1h-9zM142 157h1v1h-1zM141 158h2v1h-2zM103 159h1v1h-1zM142 159h1v1h-1zM140 160h4v1h-4zM62 161h1v1h-1zM102 161h1v1h-1zM100 162h2v1h-2zM139 162h4v1h-4zM142 163h1v1h-1zM97 164h1v1h-1zM99 164h2v1h-2zM138 164h6v1h-6zM94 165h1v1h-1zM104 165h1v1h-1zM140 165h3v1h-3zM138 166h6v1h-6zM89 167h1v1h-1zM91 167h1v1h-1zM140 167h1v1h-1zM137 168h7v1h-7zM139 169h2v1h-2zM142 169h1v1h-1zM138 170h6v1h-6zM139 171h5v1h-5zM138 172h7v1h-7zM139 173h6v1h-6zM138 174h7v1h-7zM139 175h6v1h-6zM138 176h2v1h-2zM141 176h4v1h-4zM155 176h1v1h-1zM162 176h4v1h-4zM177 176h5v1h-5zM138 177h7v1h-7zM177 177h3v1h-3zM141 178h2v1h-2zM169 178h3v1h-3zM175 178h3v1h-3zM192 178h2v1h-2zM130 179h2v1h-2zM138 179h7v1h-7zM172 179h2v1h-2zM182 179h4v1h-4zM188 179h12v1h-12zM173 180h1v1h-1zM182 180h2v1h-2zM189 180h1v1h-1zM196 180h1v1h-1zM129 181h3v1h-3zM136 181h8v1h-8zM165 181h2v1h-2zM173 181h2v1h-2zM180 181h4v1h-4zM187 181h7v1h-7zM197 181h3v1h-3zM66 183h1v1h-1zM130 183h2v1h-2zM136 183h2v1h-2zM140 183h3v1h-3zM174 183h1v1h-1zM179 183h3v1h-3zM186 183h5v1h-5zM198 183h1v1h-1zM64 185h1v1h-1zM74 185h2v1h-2zM129 185h3v1h-3zM136 185h5v1h-5zM162 185h1v1h-1zM175 185h3v1h-3zM179 185h2v1h-2zM184 185h5v1h-5zM196 185h1v1h-1zM198 185h2v1h-2zM63 187h1v1h-1zM73 187h1v1h-1zM129 187h8v1h-8zM138 187h1v1h-1zM158 187h1v1h-1zM162 187h1v1h-1zM175 187h4v1h-4zM185 187h3v1h-3zM194 187h1v1h-1zM197 187h3v1h-3zM162 188h1v1h-1zM175 189h3v1h-3zM185 189h2v1h-2zM198 189h1v1h-1zM49 191h1v1h-1zM157 191h1v1h-1zM162 191h1v1h-1zM183 191h2v1h-2zM196 191h1v1h-1zM199 191h1v1h-1zM198 193h1v1h-1zM39 194h4v1h-4zM130 194h2v1h-2zM156 195h1v1h-1zM162 195h1v1h-1zM197 195h1v1h-1zM34 196h5v1h-5zM130 196h2v1h-2zM135 196h1v1h-1zM156 197h1v1h-1zM162 197h1v1h-1zM199 197h1v1h-1zM31 198h4v1h-4zM130 198h3v1h-3zM156 199h1v1h-1zM161 199h2v1h-2zM193 199h1v1h-1zM195 199h2v1h-2zM199 199h1v1h-1zM28 200h4v1h-4zM133 200h1v1h-1zM23 202h8v1h-8zM32 202h2v1h-2zM132 202h1v1h-1zM154 203h2v1h-2zM161 203h1v1h-1zM21 204h1v1h-1zM27 204h2v1h-2zM32 204h3v1h-3zM154 205h1v1h-1zM171 205h1v1h-1zM199 205h1v1h-1zM153 207h1v1h-1zM18 209h1v1h-1zM153 209h1v1h-1zM196 209h1v1h-1zM17 211h1v1h-1zM151 211h2v1h-2zM16 213h3v1h-3zM151 213h1v1h-1zM159 213h1v1h-1zM15 215h2v1h-2zM20 215h3v1h-3zM25 215h2v1h-2zM150 215h1v1h-1zM13 217h5v1h-5zM22 217h3v1h-3zM27 217h3v1h-3zM149 217h2v1h-2zM13 219h3v1h-3zM22 219h1v1h-1zM31 219h1v1h-1zM148 219h1v1h-1zM147 220h2v1h-2zM12 221h3v1h-3zM30 221h2v1h-2zM50 221h1v1h-1zM147 221h1v1h-1zM147 222h1v1h-1zM11 223h4v1h-4zM24 223h1v1h-1zM49 223h1v1h-1zM145 224h2v1h-2zM10 225h3v1h-3zM145 225h1v1h-1zM144 226h1v1h-1zM9 227h4v1h-4zM45 228h1v1h-1zM143 228h1v1h-1zM9 229h5v1h-5zM141 230h2v1h-2zM8 231h3v1h-3zM141 231h1v1h-1zM38 232h1v1h-1zM140 232h2v1h-2zM8 233h3v1h-3zM39 234h1v1h-1zM138 234h2v1h-2zM7 235h1v1h-1zM137 235h1v1h-1zM6 236h2v1h-2zM40 236h1v1h-1zM136 236h1v1h-1zM6 238h4v1h-4zM35 238h1v1h-1zM134 238h1v1h-1zM133 239h1v1h-1zM8 240h1v1h-1zM132 240h1v1h-1zM131 241h1v1h-1zM5 242h1v1h-1zM10 242h3v1h-3zM34 242h1v1h-1zM129 242h1v1h-1zM128 243h1v1h-1zM10 244h2v1h-2zM126 244h1v1h-1zM124 245h3v1h-3zM123 246h1v1h-1zM120 247h4v1h-4zM112 249h7v1h-7zM9 259h1v1h-1z" /><path fill="#f0f6fc" d="" /></g><text class="head text" x="400" y="35">aswath<tspan class="muted">@github</tspan></text>
  <text class="muted body" x="400" y="58">──────────────────────────────────────────────────────────</text>

  <text class="body value" x="400" y="82">Tech guy who can do strategy, consulting,<tspan x="400" dy="22">operations and a bunch of other stuff.</tspan></text>

  <text class="body text" x="400" y="135">- Contact <tspan class="muted">────────────────────────────────────────────────</tspan></text>
  <text class="body" x="400" y="157"><tspan class="key" x="400">Email</tspan><tspan class="muted"> - </tspan><tspan class="value">aswathsureshjhu@gmail.com</tspan><tspan x="400" dy="22" class="key">LinkedIn</tspan><tspan class="muted"> - </tspan><tspan class="value">in/aswathsuresh25</tspan><tspan x="400" dy="22" class="key">Website</tspan><tspan class="muted"> - </tspan><tspan class="value">https://aswath.app/</tspan></text>

  <text class="body text" x="400" y="232">- Selected Experience <tspan class="muted">────────────────────────────────────</tspan></text>
  <text class="body" x="400" y="254"><tspan class="muted" x="400">. </tspan><tspan class="key">Eligio AI</tspan><tspan class="muted"> - </tspan><tspan class="value">Automating patient triage</tspan><tspan x="400" dy="22" class="muted">. </tspan><tspan class="key">Campbell</tspan><tspan class="muted"> - </tspan><tspan class="value">Developed trading strategies</tspan><tspan x="400" dy="22" class="muted">. </tspan><tspan class="key">Teachmint</tspan><tspan class="muted"> - </tspan><tspan class="value">Revamped entire data module</tspan><tspan x="400" dy="22" class="muted">. </tspan><tspan class="key">Sustlabs</tspan><tspan class="muted"> - </tspan><tspan class="value">Machine learning for energy</tspan><tspan x="400" dy="22" class="muted">. </tspan><tspan class="key">IIT Madras</tspan><tspan class="muted"> - </tspan><tspan class="value">Data visualization research</tspan></text>

  <text class="body text" x="400" y="373">- Selected Projects <tspan class="muted">──────────────────────────────────────</tspan></text>
  <text class="body" x="400" y="395"><tspan class="muted" x="400">. </tspan><tspan class="key">Backup Brain</tspan><tspan class="muted"> - </tspan><tspan class="value">Evaluating RAG architectures</tspan><tspan x="400" dy="22" class="muted">. </tspan><tspan class="key">Lipread</tspan><tspan class="muted"> - </tspan><tspan class="value">Audio, video and text models for lipreading</tspan><tspan x="400" dy="22" class="muted">. </tspan><tspan class="key">Cricket Optimization</tspan><tspan class="muted"> - </tspan><tspan class="value">Evolutionary algorithms for sports</tspan><tspan x="400" dy="22" class="muted">. </tspan><tspan class="key">Sewage Prediction</tspan><tspan class="muted"> - </tspan><tspan class="value">Machine learning for water quality</tspan></text>

  <text class="body text" x="400" y="492">- Education <tspan class="muted">──────────────────────────────────────────────</tspan></text>
  <text class="body" x="400" y="514"><tspan class="key">Johns Hopkins</tspan><tspan class="muted">  ·  </tspan><tspan class="key">IIT Bombay</tspan></text>
</svg>
