<?xml version='1.0' encoding='utf-8'?>
<svg xmlns="http://www.w3.org/2000/svg" width="1000" height="540" viewBox="0 0 1000 540" role="img" aria-labelledby="title desc">
  <title id="title">Aswath's terminal-style GitHub profile</title>
  <desc id="desc">An ASCII portrait of Aswath beside his projects, interests, links, and live GitHub statistics.</desc>
  <defs>
    <clipPath id="portrait-clip"><rect x="8" y="8" width="365" height="524" rx="12" /></clipPath></defs>
  <style>
    .bg{fill:#f6f8fa}.border{fill:none;stroke:#d0d7de;stroke-width:2}.text{fill:#24292f}.muted{fill:#57606a}.key{fill:#bc4c00}.value{fill:#0969da}.green{fill:#1a7f37}
    text{font-family:Consolas,"SFMono-Regular",Menlo,"Liberation Mono",monospace;white-space:pre}.head{font-size:19px;font-weight:700}.body{font-size:15px}.small{font-size:13px}
  </style>
  <rect class="bg" width="1000" height="540" rx="15" />
  <rect class="border" x="1" y="1" width="998" height="538" rx="14" />

  <g id="portrait_vectors" clip-path="url(#portrait-clip)" transform="translate(8 8) scale(1.825)"><rect width="200" height="287" fill="#0e131c" /><path fill="#303945" d="M89 3h4v1h-4zM72 4h2v1h-2zM87 4h2v1h-2zM94 4h1v1h-1zM65 5h3v1h-3zM71 5h1v1h-1zM95 5h1v1h-1zM108 5h1v1h-1zM64 6h2v1h-2zM69 6h2v1h-2zM79 6h3v1h-3zM89 6h3v1h-3zM98 6h5v1h-5zM108 6h3v1h-3zM116 6h1v1h-1zM121 6h3v1h-3zM61 7h1v1h-1zM63 7h2v1h-2zM68 7h3v1h-3zM77 7h3v1h-3zM81 7h1v1h-1zM91 7h2v1h-2zM97 7h6v1h-6zM104 7h1v1h-1zM117 7h2v1h-2zM123 7h3v1h-3zM60 8h3v1h-3zM67 8h3v1h-3zM76 8h1v1h-1zM83 8h1v1h-1zM85 8h2v1h-2zM93 8h2v1h-2zM97 8h1v1h-1zM103 8h4v1h-4zM111 8h2v1h-2zM119 8h1v1h-1zM125 8h2v1h-2zM59 9h4v1h-4zM67 9h3v1h-3zM76 9h1v1h-1zM85 9h2v1h-2zM90 9h9v1h-9zM106 9h5v1h-5zM112 9h2v1h-2zM119 9h1v1h-1zM125 9h3v1h-3zM66 10h1v1h-1zM68 10h2v1h-2zM75 10h1v1h-1zM81 10h1v1h-1zM89 10h1v1h-1zM94 10h4v1h-4zM110 10h1v1h-1zM114 10h1v1h-1zM127 10h1v1h-1zM52 11h1v1h-1zM58 11h5v1h-5zM66 11h3v1h-3zM75 11h1v1h-1zM80 11h1v1h-1zM83 11h1v1h-1zM88 11h1v1h-1zM90 11h1v1h-1zM95 11h4v1h-4zM102 11h6v1h-6zM111 11h1v1h-1zM113 11h2v1h-2zM117 11h5v1h-5zM127 11h1v1h-1zM52 12h4v1h-4zM59 12h1v1h-1zM64 12h2v1h-2zM67 12h1v1h-1zM72 12h1v1h-1zM78 12h2v1h-2zM84 12h1v1h-1zM92 12h2v1h-2zM98 12h1v1h-1zM101 12h1v1h-1zM104 12h6v1h-6zM111 12h1v1h-1zM114 12h1v1h-1zM116 12h2v1h-2zM121 12h3v1h-3zM131 12h2v1h-2zM50 13h2v1h-2zM58 13h3v1h-3zM66 13h2v1h-2zM71 13h1v1h-1zM77 13h3v1h-3zM89 13h2v1h-2zM98 13h1v1h-1zM102 13h9v1h-9zM112 13h1v1h-1zM114 13h1v1h-1zM116 13h2v1h-2zM123 13h3v1h-3zM128 13h1v1h-1zM49 14h1v1h-1zM58 14h1v1h-1zM61 14h1v1h-1zM66 14h1v1h-1zM76 14h1v1h-1zM80 14h1v1h-1zM83 14h2v1h-2zM87 14h2v1h-2zM94 14h5v1h-5zM106 14h5v1h-5zM112 14h1v1h-1zM117 14h2v1h-2zM120 14h1v1h-1zM124 14h2v1h-2zM48 15h2v1h-2zM58 15h1v1h-1zM62 15h1v1h-1zM65 15h1v1h-1zM75 15h1v1h-1zM77 15h1v1h-1zM81 15h1v1h-1zM84 15h5v1h-5zM94 15h7v1h-7zM107 15h4v1h-4zM112 15h3v1h-3zM116 15h2v1h-2zM119 15h4v1h-4zM124 15h2v1h-2zM135 15h5v1h-5zM47 16h1v1h-1zM53 16h4v1h-4zM67 16h1v1h-1zM98 16h4v1h-4zM111 16h1v1h-1zM116 16h2v1h-2zM125 16h1v1h-1zM127 16h1v1h-1zM132 16h3v1h-3zM140 16h1v1h-1zM47 17h1v1h-1zM52 17h1v1h-1zM57 17h3v1h-3zM61 17h1v1h-1zM64 17h1v1h-1zM67 17h2v1h-2zM70 17h2v1h-2zM89 17h8v1h-8zM99 17h4v1h-4zM106 17h1v1h-1zM110 17h1v1h-1zM112 17h3v1h-3zM116 17h2v1h-2zM124 17h3v1h-3zM129 17h7v1h-7zM140 17h2v1h-2zM46 18h2v1h-2zM50 18h2v1h-2zM53 18h3v1h-3zM60 18h1v1h-1zM90 18h2v1h-2zM95 18h3v1h-3zM101 18h3v1h-3zM107 18h1v1h-1zM111 18h1v1h-1zM125 18h2v1h-2zM128 18h5v1h-5zM141 18h1v1h-1zM46 19h13v1h-13zM65 19h1v1h-1zM69 19h1v1h-1zM72 19h12v1h-12zM93 19h7v1h-7zM103 19h3v1h-3zM108 19h3v1h-3zM112 19h1v1h-1zM115 19h1v1h-1zM119 19h4v1h-4zM126 19h7v1h-7zM141 19h2v1h-2zM46 20h4v1h-4zM58 20h2v1h-2zM73 20h2v1h-2zM96 20h5v1h-5zM104 20h2v1h-2zM109 20h2v1h-2zM114 20h2v1h-2zM118 20h1v1h-1zM123 20h1v1h-1zM127 20h5v1h-5zM135 20h1v1h-1zM139 20h1v1h-1zM141 20h3v1h-3zM45 21h4v1h-4zM60 21h2v1h-2zM63 21h1v1h-1zM67 21h1v1h-1zM84 21h2v1h-2zM98 21h4v1h-4zM104 21h3v1h-3zM110 21h2v1h-2zM122 21h2v1h-2zM128 21h2v1h-2zM134 21h1v1h-1zM139 21h1v1h-1zM142 21h2v1h-2zM44 22h4v1h-4zM52 22h5v1h-5zM62 22h1v1h-1zM83 22h1v1h-1zM98 22h1v1h-1zM100 22h3v1h-3zM105 22h2v1h-2zM111 22h2v1h-2zM115 22h6v1h-6zM123 22h1v1h-1zM128 22h3v1h-3zM134 22h1v1h-1zM139 22h1v1h-1zM141 22h2v1h-2zM43 23h3v1h-3zM51 23h1v1h-1zM57 23h1v1h-1zM75 23h1v1h-1zM81 23h2v1h-2zM87 23h6v1h-6zM102 23h2v1h-2zM106 23h2v1h-2zM112 23h2v1h-2zM115 23h7v1h-7zM124 23h2v1h-2zM130 23h1v1h-1zM136 23h1v1h-1zM141 23h1v1h-1zM146 23h3v1h-3zM43 24h4v1h-4zM50 24h1v1h-1zM53 24h1v1h-1zM89 24h1v1h-1zM92 24h2v1h-2zM103 24h2v1h-2zM106 24h2v1h-2zM112 24h2v1h-2zM115 24h1v1h-1zM119 24h1v1h-1zM125 24h3v1h-3zM134 24h2v1h-2zM140 24h2v1h-2zM144 24h3v1h-3zM43 25h2v1h-2zM51 25h2v1h-2zM58 25h2v1h-2zM70 25h2v1h-2zM73 25h2v1h-2zM94 25h2v1h-2zM104 25h1v1h-1zM107 25h1v1h-1zM116 25h2v1h-2zM126 25h3v1h-3zM134 25h1v1h-1zM137 25h4v1h-4zM143 25h1v1h-1zM43 26h3v1h-3zM50 26h2v1h-2zM61 26h1v1h-1zM83 26h4v1h-4zM91 26h1v1h-1zM95 26h2v1h-2zM102 26h1v1h-1zM104 26h2v1h-2zM107 26h1v1h-1zM111 26h1v1h-1zM116 26h3v1h-3zM127 26h3v1h-3zM134 26h1v1h-1zM136 26h7v1h-7zM146 26h5v1h-5zM42 27h3v1h-3zM52 27h1v1h-1zM62 27h1v1h-1zM76 27h1v1h-1zM96 27h3v1h-3zM105 27h3v1h-3zM111 27h1v1h-1zM115 27h1v1h-1zM124 27h2v1h-2zM128 27h2v1h-2zM144 27h1v1h-1zM151 27h1v1h-1zM40 28h5v1h-5zM49 28h1v1h-1zM55 28h1v1h-1zM57 28h2v1h-2zM93 28h1v1h-1zM96 28h3v1h-3zM105 28h3v1h-3zM111 28h2v1h-2zM125 28h2v1h-2zM128 28h2v1h-2zM142 28h3v1h-3zM43 29h1v1h-1zM55 29h1v1h-1zM60 29h1v1h-1zM70 29h1v1h-1zM88 29h1v1h-1zM94 29h1v1h-1zM98 29h2v1h-2zM106 29h2v1h-2zM111 29h1v1h-1zM126 29h2v1h-2zM129 29h1v1h-1zM136 29h1v1h-1zM141 29h2v1h-2zM155 29h1v1h-1zM40 30h5v1h-5zM53 30h2v1h-2zM69 30h1v1h-1zM71 30h2v1h-2zM88 30h1v1h-1zM95 30h1v1h-1zM98 30h3v1h-3zM106 30h2v1h-2zM110 30h2v1h-2zM127 30h1v1h-1zM129 30h2v1h-2zM132 30h1v1h-1zM140 30h3v1h-3zM150 30h2v1h-2zM39 31h5v1h-5zM53 31h1v1h-1zM89 31h1v1h-1zM93 31h1v1h-1zM95 31h2v1h-2zM98 31h3v1h-3zM107 31h1v1h-1zM111 31h1v1h-1zM119 31h4v1h-4zM139 31h2v1h-2zM144 31h1v1h-1zM152 31h5v1h-5zM38 32h1v1h-1zM40 32h4v1h-4zM83 32h1v1h-1zM96 32h1v1h-1zM98 32h4v1h-4zM107 32h1v1h-1zM110 32h2v1h-2zM123 32h1v1h-1zM139 32h1v1h-1zM148 32h1v1h-1zM151 32h7v1h-7zM37 33h2v1h-2zM41 33h2v1h-2zM56 33h1v1h-1zM60 33h1v1h-1zM67 33h1v1h-1zM83 33h1v1h-1zM90 33h1v1h-1zM96 33h2v1h-2zM99 33h3v1h-3zM110 33h1v1h-1zM134 33h1v1h-1zM136 33h1v1h-1zM140 33h7v1h-7zM148 33h3v1h-3zM158 33h1v1h-1zM36 34h2v1h-2zM41 34h2v1h-2zM84 34h1v1h-1zM95 34h3v1h-3zM99 34h3v1h-3zM110 34h2v1h-2zM124 34h5v1h-5zM135 34h1v1h-1zM138 34h1v1h-1zM141 34h7v1h-7zM151 34h1v1h-1zM159 34h1v1h-1zM36 35h2v1h-2zM43 35h2v1h-2zM60 35h1v1h-1zM69 35h2v1h-2zM88 35h1v1h-1zM93 35h1v1h-1zM97 35h1v1h-1zM99 35h3v1h-3zM103 35h1v1h-1zM109 35h2v1h-2zM120 35h5v1h-5zM127 35h6v1h-6zM137 35h15v1h-15zM160 35h1v1h-1zM36 36h2v1h-2zM40 36h3v1h-3zM83 36h1v1h-1zM88 36h1v1h-1zM97 36h1v1h-1zM99 36h3v1h-3zM109 36h2v1h-2zM119 36h5v1h-5zM126 36h8v1h-8zM139 36h7v1h-7zM148 36h2v1h-2zM152 36h1v1h-1zM160 36h1v1h-1zM36 37h1v1h-1zM39 37h3v1h-3zM71 37h1v1h-1zM88 37h1v1h-1zM100 37h2v1h-2zM104 37h1v1h-1zM109 37h1v1h-1zM111 37h1v1h-1zM116 37h3v1h-3zM124 37h2v1h-2zM131 37h5v1h-5zM155 37h2v1h-2zM36 38h4v1h-4zM80 38h1v1h-1zM89 38h1v1h-1zM99 38h3v1h-3zM115 38h2v1h-2zM129 38h1v1h-1zM133 38h4v1h-4zM142 38h1v1h-1zM151 38h1v1h-1zM153 38h2v1h-2zM157 38h2v1h-2zM35 39h4v1h-4zM43 39h2v1h-2zM72 39h1v1h-1zM76 39h1v1h-1zM86 39h1v1h-1zM89 39h1v1h-1zM94 39h1v1h-1zM100 39h1v1h-1zM103 39h1v1h-1zM113 39h4v1h-4zM119 39h1v1h-1zM121 39h2v1h-2zM127 39h2v1h-2zM135 39h2v1h-2zM146 39h5v1h-5zM152 39h1v1h-1zM158 39h2v1h-2zM34 40h5v1h-5zM41 40h3v1h-3zM52 40h1v1h-1zM90 40h1v1h-1zM100 40h2v1h-2zM103 40h1v1h-1zM112 40h3v1h-3zM135 40h4v1h-4zM147 40h7v1h-7zM34 41h3v1h-3zM41 41h2v1h-2zM51 41h1v1h-1zM73 41h1v1h-1zM88 41h1v1h-1zM91 41h1v1h-1zM95 41h1v1h-1zM97 41h1v1h-1zM100 41h1v1h-1zM111 41h1v1h-1zM130 41h2v1h-2zM136 41h3v1h-3zM147 41h1v1h-1zM151 41h4v1h-4zM33 42h3v1h-3zM39 42h4v1h-4zM89 42h1v1h-1zM91 42h2v1h-2zM100 42h2v1h-2zM105 42h1v1h-1zM108 42h1v1h-1zM127 42h1v1h-1zM131 42h2v1h-2zM137 42h3v1h-3zM143 42h1v1h-1zM151 42h5v1h-5zM161 42h1v1h-1zM32 43h3v1h-3zM40 43h2v1h-2zM58 43h1v1h-1zM74 43h2v1h-2zM89 43h1v1h-1zM91 43h2v1h-2zM99 43h1v1h-1zM104 43h1v1h-1zM117 43h1v1h-1zM128 43h1v1h-1zM133 43h1v1h-1zM138 43h2v1h-2zM143 43h2v1h-2zM148 43h1v1h-1zM155 43h2v1h-2zM161 43h2v1h-2zM23 44h2v1h-2zM29 44h1v1h-1zM32 44h3v1h-3zM38 44h3v1h-3zM76 44h1v1h-1zM93 44h2v1h-2zM99 44h1v1h-1zM107 44h5v1h-5zM128 44h1v1h-1zM134 44h2v1h-2zM138 44h3v1h-3zM144 44h2v1h-2zM149 44h2v1h-2zM155 44h3v1h-3zM160 44h1v1h-1zM23 45h1v1h-1zM32 45h3v1h-3zM39 45h2v1h-2zM44 45h1v1h-1zM48 45h3v1h-3zM77 45h1v1h-1zM94 45h2v1h-2zM103 45h1v1h-1zM105 45h9v1h-9zM129 45h1v1h-1zM135 45h2v1h-2zM139 45h3v1h-3zM145 45h2v1h-2zM150 45h1v1h-1zM156 45h3v1h-3zM160 45h1v1h-1zM163 45h1v1h-1zM23 46h1v1h-1zM27 46h2v1h-2zM30 46h1v1h-1zM32 46h3v1h-3zM38 46h2v1h-2zM43 46h1v1h-1zM47 46h3v1h-3zM82 46h1v1h-1zM87 46h1v1h-1zM98 46h1v1h-1zM106 46h1v1h-1zM108 46h7v1h-7zM119 46h1v1h-1zM122 46h1v1h-1zM130 46h2v1h-2zM134 46h1v1h-1zM136 46h2v1h-2zM140 46h3v1h-3zM145 46h2v1h-2zM148 46h1v1h-1zM150 46h1v1h-1zM152 46h3v1h-3zM156 46h3v1h-3zM160 46h1v1h-1zM163 46h1v1h-1zM27 47h1v1h-1zM30 47h1v1h-1zM32 47h3v1h-3zM38 47h1v1h-1zM47 47h1v1h-1zM71 47h1v1h-1zM77 47h1v1h-1zM83 47h1v1h-1zM88 47h1v1h-1zM92 47h1v1h-1zM100 47h2v1h-2zM107 47h1v1h-1zM112 47h4v1h-4zM119 47h1v1h-1zM122 47h1v1h-1zM131 47h1v1h-1zM136 47h3v1h-3zM140 47h3v1h-3zM147 47h2v1h-2zM151 47h1v1h-1zM155 47h1v1h-1zM157 47h3v1h-3zM163 47h1v1h-1zM23 48h1v1h-1zM27 48h2v1h-2zM30 48h1v1h-1zM32 48h3v1h-3zM38 48h2v1h-2zM47 48h1v1h-1zM84 48h3v1h-3zM101 48h3v1h-3zM112 48h5v1h-5zM119 48h2v1h-2zM122 48h1v1h-1zM133 48h1v1h-1zM136 48h3v1h-3zM141 48h2v1h-2zM147 48h3v1h-3zM151 48h1v1h-1zM155 48h1v1h-1zM158 48h2v1h-2zM28 49h1v1h-1zM31 49h3v1h-3zM44 49h1v1h-1zM47 49h3v1h-3zM57 49h1v1h-1zM64 49h1v1h-1zM67 49h1v1h-1zM103 49h3v1h-3zM114 49h4v1h-4zM120 49h1v1h-1zM122 49h1v1h-1zM134 49h1v1h-1zM138 49h1v1h-1zM141 49h3v1h-3zM148 49h2v1h-2zM152 49h1v1h-1zM159 49h1v1h-1zM23 50h1v1h-1zM27 50h2v1h-2zM31 50h4v1h-4zM38 50h1v1h-1zM40 50h1v1h-1zM44 50h1v1h-1zM46 50h3v1h-3zM105 50h4v1h-4zM115 50h3v1h-3zM120 50h1v1h-1zM122 50h1v1h-1zM135 50h1v1h-1zM137 50h3v1h-3zM141 50h3v1h-3zM146 50h4v1h-4zM152 50h1v1h-1zM159 50h1v1h-1zM23 51h1v1h-1zM31 51h2v1h-2zM36 51h2v1h-2zM46 51h2v1h-2zM87 51h3v1h-3zM102 51h1v1h-1zM107 51h3v1h-3zM116 51h2v1h-2zM120 51h1v1h-1zM132 51h1v1h-1zM138 51h1v1h-1zM143 51h1v1h-1zM145 51h2v1h-2zM148 51h1v1h-1zM156 51h1v1h-1zM159 51h1v1h-1zM163 51h5v1h-5zM23 52h2v1h-2zM28 52h2v1h-2zM31 52h3v1h-3zM37 52h2v1h-2zM46 52h4v1h-4zM70 52h1v1h-1zM72 52h1v1h-1zM89 52h1v1h-1zM107 52h4v1h-4zM116 52h3v1h-3zM122 52h1v1h-1zM132 52h2v1h-2zM138 52h2v1h-2zM142 52h2v1h-2zM145 52h5v1h-5zM151 52h1v1h-1zM155 52h1v1h-1zM159 52h1v1h-1zM166 52h2v1h-2zM24 53h2v1h-2zM29 53h1v1h-1zM32 53h2v1h-2zM35 53h1v1h-1zM44 53h1v1h-1zM46 53h1v1h-1zM49 53h1v1h-1zM76 53h1v1h-1zM98 53h1v1h-1zM106 53h1v1h-1zM109 53h2v1h-2zM116 53h3v1h-3zM122 53h1v1h-1zM129 53h3v1h-3zM133 53h2v1h-2zM143 53h1v1h-1zM145 53h2v1h-2zM148 53h1v1h-1zM159 53h1v1h-1zM168 53h1v1h-1zM24 54h2v1h-2zM32 54h2v1h-2zM36 54h3v1h-3zM46 54h1v1h-1zM48 54h2v1h-2zM80 54h1v1h-1zM107 54h1v1h-1zM109 54h2v1h-2zM117 54h2v1h-2zM122 54h1v1h-1zM130 54h8v1h-8zM142 54h2v1h-2zM145 54h4v1h-4zM152 54h2v1h-2zM159 54h1v1h-1zM168 54h2v1h-2zM25 55h2v1h-2zM32 55h2v1h-2zM40 55h1v1h-1zM65 55h1v1h-1zM94 55h1v1h-1zM107 55h1v1h-1zM111 55h1v1h-1zM118 55h1v1h-1zM126 55h1v1h-1zM134 55h1v1h-1zM136 55h2v1h-2zM145 55h1v1h-1zM148 55h2v1h-2zM151 55h1v1h-1zM155 55h4v1h-4zM160 55h1v1h-1zM168 55h2v1h-2zM25 56h3v1h-3zM32 56h3v1h-3zM38 56h1v1h-1zM47 56h1v1h-1zM70 56h4v1h-4zM94 56h1v1h-1zM99 56h1v1h-1zM111 56h1v1h-1zM117 56h2v1h-2zM138 56h1v1h-1zM144 56h1v1h-1zM148 56h2v1h-2zM157 56h6v1h-6zM168 56h1v1h-1zM170 56h1v1h-1zM22 57h1v1h-1zM24 57h2v1h-2zM27 57h2v1h-2zM34 57h1v1h-1zM58 57h1v1h-1zM66 57h2v1h-2zM71 57h2v1h-2zM75 57h1v1h-1zM78 57h1v1h-1zM111 57h1v1h-1zM117 57h2v1h-2zM130 57h2v1h-2zM139 57h1v1h-1zM143 57h1v1h-1zM146 57h1v1h-1zM148 57h1v1h-1zM155 57h4v1h-4zM162 57h2v1h-2zM168 57h1v1h-1zM171 57h1v1h-1zM21 58h1v1h-1zM23 58h4v1h-4zM28 58h2v1h-2zM34 58h1v1h-1zM65 58h1v1h-1zM68 58h8v1h-8zM79 58h2v1h-2zM84 58h1v1h-1zM95 58h1v1h-1zM98 58h1v1h-1zM107 58h1v1h-1zM111 58h2v1h-2zM117 58h2v1h-2zM122 58h1v1h-1zM131 58h4v1h-4zM142 58h2v1h-2zM145 58h2v1h-2zM154 58h1v1h-1zM156 58h5v1h-5zM163 58h2v1h-2zM168 58h1v1h-1zM171 58h1v1h-1zM21 59h1v1h-1zM23 59h3v1h-3zM29 59h1v1h-1zM35 59h1v1h-1zM69 59h8v1h-8zM79 59h2v1h-2zM85 59h1v1h-1zM92 59h1v1h-1zM95 59h1v1h-1zM111 59h1v1h-1zM117 59h2v1h-2zM134 59h1v1h-1zM140 59h3v1h-3zM145 59h2v1h-2zM149 59h1v1h-1zM155 59h1v1h-1zM157 59h5v1h-5zM164 59h1v1h-1zM168 59h1v1h-1zM171 59h1v1h-1zM21 60h1v1h-1zM23 60h3v1h-3zM29 60h2v1h-2zM36 60h2v1h-2zM64 60h5v1h-5zM70 60h7v1h-7zM80 60h1v1h-1zM85 60h1v1h-1zM103 60h1v1h-1zM111 60h2v1h-2zM117 60h2v1h-2zM132 60h3v1h-3zM138 60h4v1h-4zM144 60h2v1h-2zM150 60h1v1h-1zM156 60h4v1h-4zM161 60h2v1h-2zM164 60h2v1h-2zM167 60h2v1h-2zM171 60h1v1h-1zM21 61h1v1h-1zM23 61h2v1h-2zM29 61h2v1h-2zM37 61h2v1h-2zM64 61h2v1h-2zM67 61h3v1h-3zM71 61h6v1h-6zM78 61h1v1h-1zM84 61h2v1h-2zM116 61h2v1h-2zM124 61h1v1h-1zM137 61h4v1h-4zM143 61h2v1h-2zM150 61h2v1h-2zM154 61h1v1h-1zM158 61h4v1h-4zM165 61h3v1h-3zM171 61h1v1h-1zM21 62h4v1h-4zM29 62h3v1h-3zM38 62h1v1h-1zM52 62h1v1h-1zM61 62h1v1h-1zM64 62h1v1h-1zM66 62h5v1h-5zM72 62h6v1h-6zM79 62h2v1h-2zM106 62h1v1h-1zM116 62h1v1h-1zM125 62h2v1h-2zM132 62h2v1h-2zM135 62h5v1h-5zM142 62h3v1h-3zM151 62h1v1h-1zM153 62h4v1h-4zM163 62h1v1h-1zM165 62h1v1h-1zM169 62h1v1h-1zM21 63h1v1h-1zM23 63h2v1h-2zM30 63h2v1h-2zM38 63h1v1h-1zM59 63h2v1h-2zM64 63h15v1h-15zM80 63h1v1h-1zM85 63h1v1h-1zM97 63h1v1h-1zM102 63h1v1h-1zM108 63h1v1h-1zM114 63h1v1h-1zM122 63h1v1h-1zM127 63h1v1h-1zM131 63h2v1h-2zM136 63h1v1h-1zM142 63h2v1h-2zM148 63h1v1h-1zM152 63h1v1h-1zM155 63h5v1h-5zM161 63h2v1h-2zM165 63h3v1h-3zM169 63h1v1h-1zM21 64h1v1h-1zM23 64h2v1h-2zM58 64h1v1h-1zM65 64h15v1h-15zM107 64h6v1h-6zM123 64h2v1h-2zM129 64h3v1h-3zM141 64h3v1h-3zM150 64h1v1h-1zM152 64h2v1h-2zM160 64h2v1h-2zM164 64h1v1h-1zM167 64h2v1h-2zM21 65h1v1h-1zM23 65h2v1h-2zM31 65h1v1h-1zM35 65h3v1h-3zM40 65h1v1h-1zM44 65h1v1h-1zM57 65h4v1h-4zM62 65h1v1h-1zM65 65h16v1h-16zM85 65h2v1h-2zM94 65h1v1h-1zM97 65h3v1h-3zM109 65h3v1h-3zM123 65h8v1h-8zM139 65h4v1h-4zM150 65h2v1h-2zM153 65h2v1h-2zM158 65h3v1h-3zM165 65h5v1h-5zM23 66h2v1h-2zM32 66h2v1h-2zM36 66h4v1h-4zM57 66h1v1h-1zM63 66h1v1h-1zM66 66h15v1h-15zM97 66h2v1h-2zM127 66h1v1h-1zM144 66h1v1h-1zM151 66h1v1h-1zM155 66h4v1h-4zM163 66h1v1h-1zM165 66h1v1h-1zM168 66h2v1h-2zM23 67h2v1h-2zM34 67h1v1h-1zM39 67h2v1h-2zM56 67h9v1h-9zM66 67h16v1h-16zM85 67h3v1h-3zM93 67h1v1h-1zM97 67h5v1h-5zM103 67h1v1h-1zM106 67h1v1h-1zM127 67h1v1h-1zM142 67h2v1h-2zM145 67h1v1h-1zM151 67h1v1h-1zM167 67h4v1h-4zM23 68h3v1h-3zM34 68h2v1h-2zM55 68h2v1h-2zM61 68h4v1h-4zM69 68h12v1h-12zM85 68h3v1h-3zM96 68h1v1h-1zM99 68h3v1h-3zM103 68h1v1h-1zM146 68h2v1h-2zM164 68h1v1h-1zM168 68h3v1h-3zM23 69h3v1h-3zM32 69h2v1h-2zM47 69h1v1h-1zM55 69h28v1h-28zM86 69h2v1h-2zM91 69h2v1h-2zM96 69h6v1h-6zM103 69h2v1h-2zM108 69h1v1h-1zM126 69h1v1h-1zM136 69h1v1h-1zM143 69h1v1h-1zM146 69h3v1h-3zM159 69h4v1h-4zM168 69h3v1h-3zM31 70h2v1h-2zM54 70h1v1h-1zM58 70h3v1h-3zM62 70h20v1h-20zM91 70h1v1h-1zM97 70h2v1h-2zM100 70h3v1h-3zM104 70h2v1h-2zM122 70h1v1h-1zM147 70h2v1h-2zM155 70h3v1h-3zM161 70h2v1h-2zM169 70h2v1h-2zM16 71h2v1h-2zM25 71h7v1h-7zM36 71h1v1h-1zM39 71h2v1h-2zM54 71h30v1h-30zM91 71h2v1h-2zM95 71h11v1h-11zM108 71h4v1h-4zM119 71h2v1h-2zM123 71h2v1h-2zM127 71h1v1h-1zM135 71h3v1h-3zM147 71h4v1h-4zM152 71h1v1h-1zM156 71h4v1h-4zM161 71h3v1h-3zM167 71h1v1h-1zM169 71h3v1h-3zM16 72h2v1h-2zM21 72h1v1h-1zM26 72h1v1h-1zM28 72h2v1h-2zM34 72h2v1h-2zM38 72h1v1h-1zM53 72h1v1h-1zM57 72h2v1h-2zM60 72h14v1h-14zM75 72h10v1h-10zM91 72h1v1h-1zM96 72h5v1h-5zM102 72h1v1h-1zM104 72h2v1h-2zM108 72h3v1h-3zM120 72h3v1h-3zM124 72h1v1h-1zM136 72h1v1h-1zM144 72h1v1h-1zM149 72h2v1h-2zM153 72h1v1h-1zM159 72h1v1h-1zM162 72h1v1h-1zM166 72h1v1h-1zM169 72h2v1h-2zM16 73h2v1h-2zM20 73h2v1h-2zM27 73h1v1h-1zM33 73h2v1h-2zM37 73h2v1h-2zM53 73h33v1h-33zM91 73h1v1h-1zM95 73h11v1h-11zM108 73h5v1h-5zM114 73h1v1h-1zM121 73h6v1h-6zM135 73h3v1h-3zM143 73h1v1h-1zM145 73h2v1h-2zM150 73h2v1h-2zM153 73h3v1h-3zM160 73h1v1h-1zM162 73h1v1h-1zM166 73h2v1h-2zM169 73h1v1h-1zM17 74h1v1h-1zM20 74h1v1h-1zM28 74h2v1h-2zM54 74h2v1h-2zM57 74h18v1h-18zM76 74h10v1h-10zM91 74h1v1h-1zM94 74h1v1h-1zM96 74h7v1h-7zM104 74h2v1h-2zM108 74h5v1h-5zM123 74h1v1h-1zM136 74h2v1h-2zM146 74h1v1h-1zM148 74h1v1h-1zM151 74h1v1h-1zM155 74h1v1h-1zM160 74h1v1h-1zM165 74h1v1h-1zM169 74h1v1h-1zM17 75h4v1h-4zM30 75h1v1h-1zM53 75h22v1h-22zM76 75h10v1h-10zM89 75h1v1h-1zM91 75h1v1h-1zM94 75h1v1h-1zM96 75h7v1h-7zM104 75h2v1h-2zM108 75h5v1h-5zM114 75h2v1h-2zM118 75h2v1h-2zM124 75h1v1h-1zM136 75h2v1h-2zM141 75h3v1h-3zM146 75h1v1h-1zM149 75h1v1h-1zM151 75h1v1h-1zM155 75h2v1h-2zM160 75h3v1h-3zM164 75h1v1h-1zM167 75h2v1h-2zM175 75h2v1h-2zM18 76h1v1h-1zM52 76h2v1h-2zM56 76h20v1h-20zM78 76h6v1h-6zM87 76h2v1h-2zM94 76h1v1h-1zM97 76h5v1h-5zM104 76h1v1h-1zM108 76h4v1h-4zM118 76h1v1h-1zM136 76h1v1h-1zM142 76h2v1h-2zM151 76h1v1h-1zM161 76h1v1h-1zM167 76h1v1h-1zM176 76h1v1h-1zM17 77h4v1h-4zM22 77h1v1h-1zM26 77h1v1h-1zM28 77h2v1h-2zM31 77h1v1h-1zM34 77h1v1h-1zM52 77h25v1h-25zM80 77h4v1h-4zM86 77h3v1h-3zM94 77h2v1h-2zM97 77h5v1h-5zM103 77h2v1h-2zM107 77h6v1h-6zM115 77h1v1h-1zM117 77h3v1h-3zM121 77h2v1h-2zM126 77h1v1h-1zM128 77h1v1h-1zM136 77h1v1h-1zM141 77h3v1h-3zM150 77h3v1h-3zM155 77h3v1h-3zM161 77h2v1h-2zM165 77h1v1h-1zM168 77h3v1h-3zM177 77h1v1h-1zM17 78h1v1h-1zM19 78h2v1h-2zM23 78h1v1h-1zM30 78h3v1h-3zM54 78h1v1h-1zM56 78h23v1h-23zM85 78h4v1h-4zM94 78h3v1h-3zM99 78h2v1h-2zM103 78h1v1h-1zM107 78h3v1h-3zM119 78h3v1h-3zM140 78h3v1h-3zM155 78h1v1h-1zM161 78h1v1h-1zM164 78h1v1h-1zM169 78h3v1h-3zM177 78h1v1h-1zM17 79h1v1h-1zM19 79h3v1h-3zM24 79h2v1h-2zM27 79h5v1h-5zM39 79h2v1h-2zM52 79h39v1h-39zM95 79h4v1h-4zM102 79h2v1h-2zM108 79h1v1h-1zM118 79h6v1h-6zM129 79h2v1h-2zM140 79h3v1h-3zM151 79h1v1h-1zM155 79h3v1h-3zM160 79h2v1h-2zM165 79h4v1h-4zM170 79h5v1h-5zM177 79h2v1h-2zM17 80h1v1h-1zM20 80h1v1h-1zM22 80h1v1h-1zM26 80h1v1h-1zM29 80h2v1h-2zM38 80h1v1h-1zM54 80h32v1h-32zM87 80h3v1h-3zM96 80h1v1h-1zM98 80h1v1h-1zM122 80h2v1h-2zM128 80h4v1h-4zM140 80h3v1h-3zM151 80h1v1h-1zM155 80h1v1h-1zM159 80h2v1h-2zM166 80h3v1h-3zM171 80h1v1h-1zM174 80h1v1h-1zM16 81h2v1h-2zM20 81h4v1h-4zM27 81h2v1h-2zM37 81h2v1h-2zM51 81h39v1h-39zM91 81h2v1h-2zM98 81h1v1h-1zM100 81h1v1h-1zM123 81h2v1h-2zM129 81h3v1h-3zM140 81h1v1h-1zM155 81h1v1h-1zM157 81h4v1h-4zM164 81h6v1h-6zM172 81h1v1h-1zM174 81h2v1h-2zM177 81h2v1h-2zM17 82h1v1h-1zM23 82h4v1h-4zM33 82h1v1h-1zM51 82h23v1h-23zM75 82h10v1h-10zM86 82h7v1h-7zM111 82h1v1h-1zM124 82h1v1h-1zM130 82h3v1h-3zM151 82h1v1h-1zM155 82h3v1h-3zM159 82h1v1h-1zM163 82h1v1h-1zM165 82h1v1h-1zM170 82h1v1h-1zM172 82h1v1h-1zM175 82h1v1h-1zM177 82h2v1h-2zM17 83h1v1h-1zM37 83h3v1h-3zM51 83h20v1h-20zM72 83h2v1h-2zM76 83h2v1h-2zM79 83h6v1h-6zM86 83h2v1h-2zM90 83h1v1h-1zM93 83h1v1h-1zM131 83h2v1h-2zM149 83h3v1h-3zM154 83h3v1h-3zM158 83h2v1h-2zM163 83h1v1h-1zM166 83h2v1h-2zM170 83h4v1h-4zM175 83h3v1h-3zM18 84h1v1h-1zM23 84h1v1h-1zM36 84h3v1h-3zM51 84h1v1h-1zM53 84h11v1h-11zM65 84h5v1h-5zM71 84h2v1h-2zM74 84h1v1h-1zM79 84h6v1h-6zM86 84h1v1h-1zM91 84h1v1h-1zM94 84h5v1h-5zM115 84h1v1h-1zM126 84h1v1h-1zM131 84h2v1h-2zM148 84h1v1h-1zM154 84h1v1h-1zM158 84h1v1h-1zM163 84h2v1h-2zM168 84h1v1h-1zM173 84h1v1h-1zM176 84h1v1h-1zM18 85h2v1h-2zM33 85h4v1h-4zM50 85h9v1h-9zM61 85h5v1h-5zM67 85h3v1h-3zM72 85h1v1h-1zM74 85h3v1h-3zM79 85h5v1h-5zM86 85h1v1h-1zM96 85h3v1h-3zM100 85h1v1h-1zM109 85h1v1h-1zM112 85h2v1h-2zM116 85h3v1h-3zM121 85h1v1h-1zM132 85h2v1h-2zM152 85h1v1h-1zM154 85h3v1h-3zM160 85h1v1h-1zM164 85h3v1h-3zM168 85h2v1h-2zM175 85h2v1h-2zM19 86h4v1h-4zM26 86h3v1h-3zM32 86h2v1h-2zM35 86h1v1h-1zM44 86h1v1h-1zM50 86h4v1h-4zM56 86h1v1h-1zM58 86h2v1h-2zM69 86h2v1h-2zM73 86h4v1h-4zM78 86h6v1h-6zM86 86h1v1h-1zM107 86h2v1h-2zM110 86h14v1h-14zM127 86h1v1h-1zM132 86h2v1h-2zM141 86h2v1h-2zM146 86h1v1h-1zM154 86h1v1h-1zM156 86h1v1h-1zM166 86h6v1h-6zM173 86h3v1h-3zM22 87h5v1h-5zM31 87h2v1h-2zM35 87h1v1h-1zM50 87h3v1h-3zM55 87h1v1h-1zM74 87h1v1h-1zM80 87h4v1h-4zM86 87h2v1h-2zM105 87h17v1h-17zM123 87h1v1h-1zM132 87h1v1h-1zM144 87h1v1h-1zM151 87h3v1h-3zM155 87h1v1h-1zM168 87h3v1h-3zM172 87h1v1h-1zM178 87h2v1h-2zM25 88h1v1h-1zM30 88h2v1h-2zM50 88h2v1h-2zM72 88h1v1h-1zM80 88h5v1h-5zM86 88h2v1h-2zM103 88h3v1h-3zM113 88h12v1h-12zM128 88h1v1h-1zM132 88h1v1h-1zM149 88h2v1h-2zM152 88h1v1h-1zM155 88h1v1h-1zM158 88h2v1h-2zM177 88h2v1h-2zM22 89h2v1h-2zM27 89h1v1h-1zM30 89h1v1h-1zM49 89h2v1h-2zM79 89h6v1h-6zM87 89h2v1h-2zM102 89h1v1h-1zM110 89h2v1h-2zM116 89h10v1h-10zM129 89h1v1h-1zM147 89h3v1h-3zM151 89h2v1h-2zM154 89h2v1h-2zM160 89h4v1h-4zM175 89h1v1h-1zM177 89h1v1h-1zM21 90h2v1h-2zM28 90h1v1h-1zM30 90h2v1h-2zM40 90h1v1h-1zM58 90h1v1h-1zM77 90h1v1h-1zM79 90h7v1h-7zM88 90h2v1h-2zM96 90h4v1h-4zM108 90h1v1h-1zM114 90h2v1h-2zM118 90h8v1h-8zM128 90h3v1h-3zM134 90h1v1h-1zM147 90h1v1h-1zM149 90h3v1h-3zM154 90h3v1h-3zM163 90h2v1h-2zM172 90h1v1h-1zM176 90h2v1h-2zM21 91h1v1h-1zM26 91h1v1h-1zM28 91h2v1h-2zM76 91h1v1h-1zM79 91h7v1h-7zM89 91h3v1h-3zM93 91h5v1h-5zM115 91h3v1h-3zM119 91h6v1h-6zM127 91h2v1h-2zM138 91h2v1h-2zM148 91h2v1h-2zM155 91h1v1h-1zM157 91h6v1h-6zM164 91h2v1h-2zM176 91h1v1h-1zM20 92h2v1h-2zM26 92h1v1h-1zM29 92h2v1h-2zM57 92h1v1h-1zM76 92h22v1h-22zM101 92h1v1h-1zM107 92h1v1h-1zM112 92h2v1h-2zM117 92h2v1h-2zM120 92h2v1h-2zM123 92h1v1h-1zM126 92h6v1h-6zM134 92h1v1h-1zM139 92h2v1h-2zM147 92h1v1h-1zM152 92h1v1h-1zM154 92h1v1h-1zM156 92h8v1h-8zM165 92h1v1h-1zM168 92h1v1h-1zM171 92h1v1h-1zM175 92h1v1h-1zM19 93h2v1h-2zM25 93h1v1h-1zM59 93h9v1h-9zM72 93h1v1h-1zM75 93h1v1h-1zM78 93h15v1h-15zM94 93h2v1h-2zM100 93h1v1h-1zM103 93h1v1h-1zM112 93h3v1h-3zM121 93h10v1h-10zM141 93h5v1h-5zM155 93h1v1h-1zM161 93h3v1h-3zM165 93h1v1h-1zM169 93h3v1h-3zM173 93h2v1h-2zM176 93h1v1h-1zM19 94h2v1h-2zM23 94h2v1h-2zM32 94h2v1h-2zM55 94h10v1h-10zM69 94h5v1h-5zM77 94h19v1h-19zM98 94h2v1h-2zM102 94h2v1h-2zM108 94h3v1h-3zM112 94h5v1h-5zM119 94h1v1h-1zM121 94h5v1h-5zM127 94h3v1h-3zM155 94h1v1h-1zM159 94h1v1h-1zM163 94h4v1h-4zM169 94h2v1h-2zM176 94h1v1h-1zM17 95h1v1h-1zM19 95h1v1h-1zM23 95h1v1h-1zM31 95h2v1h-2zM56 95h3v1h-3zM74 95h1v1h-1zM79 95h16v1h-16zM98 95h1v1h-1zM101 95h3v1h-3zM112 95h6v1h-6zM122 95h5v1h-5zM160 95h3v1h-3zM164 95h2v1h-2zM175 95h1v1h-1zM17 96h1v1h-1zM20 96h1v1h-1zM23 96h1v1h-1zM28 96h4v1h-4zM51 96h1v1h-1zM53 96h5v1h-5zM61 96h1v1h-1zM65 96h3v1h-3zM72 96h4v1h-4zM79 96h17v1h-17zM97 96h2v1h-2zM100 96h6v1h-6zM108 96h1v1h-1zM111 96h7v1h-7zM123 96h8v1h-8zM132 96h1v1h-1zM147 96h1v1h-1zM152 96h1v1h-1zM159 96h1v1h-1zM162 96h2v1h-2zM165 96h2v1h-2zM174 96h2v1h-2zM17 97h1v1h-1zM20 97h1v1h-1zM27 97h4v1h-4zM35 97h1v1h-1zM52 97h5v1h-5zM69 97h1v1h-1zM80 97h9v1h-9zM90 97h5v1h-5zM96 97h2v1h-2zM100 97h7v1h-7zM109 97h10v1h-10zM123 97h6v1h-6zM131 97h3v1h-3zM151 97h1v1h-1zM153 97h2v1h-2zM171 97h3v1h-3zM18 98h1v1h-1zM20 98h2v1h-2zM23 98h7v1h-7zM35 98h1v1h-1zM47 98h1v1h-1zM50 98h6v1h-6zM61 98h1v1h-1zM71 98h1v1h-1zM75 98h3v1h-3zM80 98h17v1h-17zM99 98h20v1h-20zM122 98h12v1h-12zM143 98h2v1h-2zM154 98h2v1h-2zM164 98h1v1h-1zM166 98h2v1h-2zM169 98h3v1h-3zM18 99h1v1h-1zM21 99h1v1h-1zM23 99h2v1h-2zM34 99h2v1h-2zM50 99h5v1h-5zM60 99h2v1h-2zM72 99h1v1h-1zM80 99h8v1h-8zM89 99h1v1h-1zM91 99h4v1h-4zM98 99h1v1h-1zM100 99h18v1h-18zM119 99h1v1h-1zM123 99h11v1h-11zM144 99h2v1h-2zM174 99h1v1h-1zM18 100h1v1h-1zM21 100h4v1h-4zM27 100h1v1h-1zM31 100h1v1h-1zM34 100h1v1h-1zM39 100h1v1h-1zM49 100h6v1h-6zM59 100h2v1h-2zM66 100h1v1h-1zM70 100h1v1h-1zM73 100h3v1h-3zM79 100h6v1h-6zM86 100h5v1h-5zM92 100h3v1h-3zM97 100h2v1h-2zM105 100h3v1h-3zM112 100h1v1h-1zM115 100h1v1h-1zM117 100h1v1h-1zM120 100h1v1h-1zM123 100h13v1h-13zM140 100h2v1h-2zM145 100h2v1h-2zM162 100h1v1h-1zM167 100h1v1h-1zM174 100h2v1h-2zM179 100h1v1h-1zM19 101h1v1h-1zM22 101h1v1h-1zM30 101h1v1h-1zM33 101h2v1h-2zM49 101h5v1h-5zM58 101h3v1h-3zM66 101h1v1h-1zM69 101h3v1h-3zM74 101h2v1h-2zM79 101h12v1h-12zM93 101h2v1h-2zM99 101h23v1h-23zM123 101h12v1h-12zM145 101h2v1h-2zM154 101h1v1h-1zM163 101h3v1h-3zM175 101h1v1h-1zM177 101h2v1h-2zM20 102h3v1h-3zM25 102h1v1h-1zM29 102h2v1h-2zM33 102h2v1h-2zM38 102h1v1h-1zM49 102h5v1h-5zM58 102h4v1h-4zM64 102h2v1h-2zM69 102h3v1h-3zM74 102h2v1h-2zM78 102h14v1h-14zM93 102h8v1h-8zM102 102h33v1h-33zM145 102h2v1h-2zM164 102h4v1h-4zM171 102h2v1h-2zM174 102h4v1h-4zM22 103h1v1h-1zM49 103h5v1h-5zM57 103h5v1h-5zM68 103h5v1h-5zM78 103h15v1h-15zM96 103h2v1h-2zM103 103h3v1h-3zM107 103h29v1h-29zM142 103h1v1h-1zM146 103h2v1h-2zM152 103h1v1h-1zM164 103h5v1h-5zM175 103h1v1h-1zM22 104h1v1h-1zM49 104h4v1h-4zM57 104h6v1h-6zM66 104h7v1h-7zM76 104h1v1h-1zM78 104h15v1h-15zM99 104h1v1h-1zM106 104h30v1h-30zM142 104h1v1h-1zM146 104h2v1h-2zM165 104h6v1h-6zM174 104h2v1h-2zM23 105h1v1h-1zM27 105h1v1h-1zM30 105h2v1h-2zM34 105h1v1h-1zM49 105h4v1h-4zM56 105h14v1h-14zM75 105h1v1h-1zM78 105h14v1h-14zM93 105h2v1h-2zM99 105h1v1h-1zM101 105h36v1h-36zM142 105h2v1h-2zM146 105h2v1h-2zM151 105h1v1h-1zM155 105h4v1h-4zM161 105h2v1h-2zM167 105h1v1h-1zM169 105h6v1h-6zM31 106h1v1h-1zM35 106h1v1h-1zM49 106h4v1h-4zM56 106h9v1h-9zM68 106h7v1h-7zM77 106h18v1h-18zM101 106h7v1h-7zM109 106h2v1h-2zM112 106h25v1h-25zM143 106h1v1h-1zM147 106h1v1h-1zM159 106h1v1h-1zM168 106h1v1h-1zM170 106h2v1h-2zM23 107h2v1h-2zM26 107h1v1h-1zM31 107h3v1h-3zM35 107h3v1h-3zM49 107h4v1h-4zM57 107h4v1h-4zM64 107h8v1h-8zM74 107h1v1h-1zM77 107h60v1h-60zM143 107h1v1h-1zM146 107h2v1h-2zM160 107h1v1h-1zM163 107h1v1h-1zM168 107h2v1h-2zM172 107h1v1h-1zM25 108h1v1h-1zM28 108h2v1h-2zM33 108h1v1h-1zM49 108h4v1h-4zM61 108h9v1h-9zM77 108h21v1h-21zM99 108h39v1h-39zM146 108h1v1h-1zM160 108h2v1h-2zM164 108h1v1h-1zM169 108h2v1h-2zM20 109h1v1h-1zM23 109h1v1h-1zM30 109h1v1h-1zM33 109h2v1h-2zM49 109h6v1h-6zM59 109h9v1h-9zM69 109h1v1h-1zM71 109h2v1h-2zM76 109h62v1h-62zM140 109h1v1h-1zM146 109h1v1h-1zM155 109h1v1h-1zM160 109h3v1h-3zM164 109h1v1h-1zM169 109h2v1h-2zM175 109h1v1h-1zM177 109h2v1h-2zM23 110h1v1h-1zM26 110h2v1h-2zM30 110h1v1h-1zM34 110h4v1h-4zM49 110h5v1h-5zM56 110h12v1h-12zM71 110h3v1h-3zM76 110h24v1h-24zM102 110h36v1h-36zM162 110h1v1h-1zM165 110h1v1h-1zM170 110h2v1h-2zM175 110h1v1h-1zM178 110h2v1h-2zM21 111h1v1h-1zM35 111h3v1h-3zM49 111h5v1h-5zM55 111h11v1h-11zM68 111h6v1h-6zM76 111h63v1h-63zM153 111h1v1h-1zM155 111h1v1h-1zM162 111h1v1h-1zM164 111h2v1h-2zM170 111h2v1h-2zM176 111h1v1h-1zM178 111h1v1h-1zM21 112h2v1h-2zM34 112h2v1h-2zM49 112h4v1h-4zM56 112h8v1h-8zM66 112h1v1h-1zM68 112h3v1h-3zM72 112h1v1h-1zM75 112h2v1h-2zM78 112h20v1h-20zM99 112h3v1h-3zM103 112h35v1h-35zM153 112h1v1h-1zM171 112h1v1h-1zM176 112h3v1h-3zM22 113h2v1h-2zM27 113h2v1h-2zM30 113h1v1h-1zM32 113h4v1h-4zM40 113h1v1h-1zM49 113h25v1h-25zM75 113h63v1h-63zM142 113h1v1h-1zM152 113h2v1h-2zM156 113h2v1h-2zM163 113h3v1h-3zM171 113h1v1h-1zM175 113h4v1h-4zM23 114h2v1h-2zM30 114h4v1h-4zM39 114h2v1h-2zM50 114h2v1h-2zM55 114h4v1h-4zM62 114h11v1h-11zM75 114h2v1h-2zM78 114h25v1h-25zM104 114h34v1h-34zM169 114h1v1h-1zM172 114h1v1h-1zM174 114h2v1h-2zM23 115h10v1h-10zM38 115h3v1h-3zM49 115h9v1h-9zM59 115h14v1h-14zM74 115h66v1h-66zM148 115h2v1h-2zM152 115h2v1h-2zM156 115h1v1h-1zM161 115h1v1h-1zM164 115h1v1h-1zM170 115h5v1h-5zM176 115h1v1h-1zM28 116h2v1h-2zM43 116h1v1h-1zM50 116h2v1h-2zM54 116h1v1h-1zM56 116h16v1h-16zM74 116h65v1h-65zM147 116h2v1h-2zM151 116h3v1h-3zM159 116h1v1h-1zM167 116h1v1h-1zM175 116h1v1h-1zM42 117h1v1h-1zM49 117h3v1h-3zM53 117h2v1h-2zM56 117h16v1h-16zM73 117h66v1h-66zM145 117h3v1h-3zM151 117h2v1h-2zM156 117h1v1h-1zM159 117h2v1h-2zM167 117h3v1h-3zM175 117h1v1h-1zM40 118h1v1h-1zM50 118h22v1h-22zM73 118h67v1h-67zM145 118h3v1h-3zM150 118h3v1h-3zM154 118h1v1h-1zM156 118h2v1h-2zM160 118h2v1h-2zM167 118h6v1h-6zM35 119h1v1h-1zM39 119h1v1h-1zM50 119h21v1h-21zM73 119h67v1h-67zM146 119h2v1h-2zM149 119h3v1h-3zM154 119h1v1h-1zM156 119h2v1h-2zM160 119h3v1h-3zM30 120h1v1h-1zM33 120h2v1h-2zM43 120h1v1h-1zM50 120h21v1h-21zM72 120h25v1h-25zM98 120h42v1h-42zM146 120h1v1h-1zM149 120h1v1h-1zM153 120h2v1h-2zM156 120h2v1h-2zM160 120h4v1h-4zM170 120h2v1h-2zM31 121h2v1h-2zM50 121h20v1h-20zM72 121h2v1h-2zM75 121h23v1h-23zM99 121h40v1h-40zM153 121h2v1h-2zM156 121h2v1h-2zM163 121h4v1h-4zM168 121h2v1h-2zM28 122h2v1h-2zM34 122h1v1h-1zM38 122h1v1h-1zM40 122h1v1h-1zM50 122h20v1h-20zM71 122h27v1h-27zM99 122h42v1h-42zM145 122h2v1h-2zM152 122h3v1h-3zM156 122h2v1h-2zM163 122h6v1h-6zM170 122h3v1h-3zM30 123h1v1h-1zM32 123h1v1h-1zM41 123h1v1h-1zM50 123h20v1h-20zM71 123h16v1h-16zM89 123h9v1h-9zM100 123h39v1h-39zM140 123h1v1h-1zM150 123h8v1h-8zM168 123h3v1h-3zM36 124h1v1h-1zM40 124h2v1h-2zM50 124h35v1h-35zM92 124h6v1h-6zM100 124h39v1h-39zM140 124h1v1h-1zM144 124h2v1h-2zM149 124h1v1h-1zM151 124h7v1h-7zM164 124h3v1h-3zM38 125h1v1h-1zM50 125h19v1h-19zM70 125h5v1h-5zM78 125h6v1h-6zM93 125h5v1h-5zM100 125h39v1h-39zM144 125h2v1h-2zM152 125h6v1h-6zM159 125h1v1h-1zM165 125h1v1h-1zM36 126h1v1h-1zM38 126h1v1h-1zM40 126h2v1h-2zM50 126h24v1h-24zM79 126h5v1h-5zM87 126h1v1h-1zM93 126h4v1h-4zM99 126h41v1h-41zM143 126h4v1h-4zM148 126h10v1h-10zM159 126h1v1h-1zM165 126h1v1h-1zM36 127h1v1h-1zM38 127h1v1h-1zM40 127h2v1h-2zM45 127h2v1h-2zM49 127h21v1h-21zM71 127h3v1h-3zM80 127h5v1h-5zM86 127h3v1h-3zM90 127h6v1h-6zM99 127h40v1h-40zM144 127h3v1h-3zM149 127h9v1h-9zM164 127h1v1h-1zM171 127h1v1h-1zM36 128h1v1h-1zM40 128h2v1h-2zM44 128h1v1h-1zM49 128h21v1h-21zM71 128h4v1h-4zM81 128h3v1h-3zM86 128h9v1h-9zM98 128h41v1h-41zM140 128h1v1h-1zM144 128h3v1h-3zM149 128h9v1h-9zM160 128h1v1h-1zM171 128h1v1h-1zM38 129h1v1h-1zM40 129h1v1h-1zM49 129h21v1h-21zM72 129h8v1h-8zM81 129h3v1h-3zM85 129h2v1h-2zM90 129h3v1h-3zM96 129h43v1h-43zM143 129h1v1h-1zM146 129h1v1h-1zM148 129h4v1h-4zM153 129h5v1h-5zM159 129h1v1h-1zM161 129h2v1h-2zM170 129h2v1h-2zM40 130h2v1h-2zM49 130h22v1h-22zM74 130h4v1h-4zM80 130h6v1h-6zM92 130h47v1h-47zM143 130h3v1h-3zM148 130h4v1h-4zM153 130h5v1h-5zM159 130h1v1h-1zM162 130h3v1h-3zM168 130h3v1h-3zM40 131h1v1h-1zM49 131h24v1h-24zM76 131h1v1h-1zM81 131h3v1h-3zM85 131h1v1h-1zM88 131h1v1h-1zM93 131h46v1h-46zM143 131h2v1h-2zM152 131h5v1h-5zM160 131h1v1h-1zM163 131h7v1h-7zM39 132h2v1h-2zM47 132h1v1h-1zM50 132h25v1h-25zM82 132h3v1h-3zM94 132h45v1h-45zM143 132h2v1h-2zM148 132h2v1h-2zM151 132h6v1h-6zM162 132h1v1h-1zM165 132h1v1h-1zM168 132h1v1h-1zM37 133h3v1h-3zM42 133h1v1h-1zM44 133h1v1h-1zM47 133h1v1h-1zM50 133h25v1h-25zM84 133h2v1h-2zM93 133h4v1h-4zM98 133h42v1h-42zM142 133h2v1h-2zM148 133h8v1h-8zM157 133h2v1h-2zM167 133h1v1h-1zM34 134h5v1h-5zM40 134h1v1h-1zM44 134h1v1h-1zM50 134h25v1h-25zM82 134h1v1h-1zM88 134h1v1h-1zM92 134h1v1h-1zM95 134h1v1h-1zM98 134h42v1h-42zM142 134h2v1h-2zM147 134h9v1h-9zM158 134h2v1h-2zM163 134h1v1h-1zM165 134h2v1h-2zM44 135h1v1h-1zM47 135h1v1h-1zM50 135h24v1h-24zM82 135h2v1h-2zM91 135h1v1h-1zM94 135h2v1h-2zM97 135h3v1h-3zM101 135h38v1h-38zM140 135h1v1h-1zM142 135h14v1h-14zM159 135h2v1h-2zM164 135h1v1h-1zM38 136h1v1h-1zM43 136h1v1h-1zM47 136h1v1h-1zM50 136h23v1h-23zM82 136h2v1h-2zM85 136h1v1h-1zM93 136h1v1h-1zM99 136h1v1h-1zM105 136h34v1h-34zM142 136h13v1h-13zM160 136h3v1h-3zM45 137h1v1h-1zM47 137h1v1h-1zM50 137h23v1h-23zM82 137h3v1h-3zM86 137h2v1h-2zM96 137h1v1h-1zM100 137h1v1h-1zM104 137h2v1h-2zM107 137h33v1h-33zM141 137h14v1h-14zM158 137h1v1h-1zM161 137h2v1h-2zM49 138h1v1h-1zM51 138h20v1h-20zM81 138h2v1h-2zM86 138h9v1h-9zM97 138h2v1h-2zM100 138h2v1h-2zM104 138h2v1h-2zM108 138h30v1h-30zM139 138h1v1h-1zM142 138h14v1h-14zM159 138h1v1h-1zM47 139h3v1h-3zM51 139h20v1h-20zM79 139h18v1h-18zM98 139h1v1h-1zM102 139h4v1h-4zM107 139h1v1h-1zM109 139h31v1h-31zM141 139h14v1h-14zM156 139h1v1h-1zM160 139h1v1h-1zM164 139h1v1h-1zM52 140h17v1h-17zM78 140h9v1h-9zM88 140h2v1h-2zM91 140h1v1h-1zM93 140h7v1h-7zM103 140h1v1h-1zM106 140h2v1h-2zM110 140h30v1h-30zM142 140h4v1h-4zM147 140h1v1h-1zM149 140h5v1h-5zM160 140h1v1h-1zM165 140h1v1h-1zM52 141h15v1h-15zM77 141h6v1h-6zM84 141h16v1h-16zM101 141h1v1h-1zM104 141h1v1h-1zM106 141h3v1h-3zM110 141h30v1h-30zM141 141h6v1h-6zM148 141h6v1h-6zM155 141h1v1h-1zM157 141h3v1h-3zM164 141h2v1h-2zM52 142h14v1h-14zM72 142h1v1h-1zM76 142h7v1h-7zM84 142h1v1h-1zM88 142h6v1h-6zM96 142h7v1h-7zM104 142h2v1h-2zM107 142h3v1h-3zM111 142h28v1h-28zM142 142h11v1h-11zM158 142h7v1h-7zM50 143h1v1h-1zM52 143h13v1h-13zM72 143h1v1h-1zM75 143h8v1h-8zM84 143h2v1h-2zM87 143h4v1h-4zM97 143h1v1h-1zM99 143h10v1h-10zM112 143h28v1h-28zM142 143h10v1h-10zM160 143h4v1h-4zM51 144h1v1h-1zM53 144h12v1h-12zM66 144h1v1h-1zM68 144h2v1h-2zM73 144h9v1h-9zM85 144h1v1h-1zM91 144h1v1h-1zM101 144h1v1h-1zM104 144h34v1h-34zM142 144h9v1h-9zM154 144h1v1h-1zM156 144h1v1h-1zM159 144h2v1h-2zM51 145h1v1h-1zM53 145h11v1h-11zM73 145h5v1h-5zM88 145h8v1h-8zM104 145h2v1h-2zM107 145h1v1h-1zM111 145h27v1h-27zM143 145h8v1h-8zM157 145h2v1h-2zM162 145h1v1h-1zM51 146h1v1h-1zM53 146h11v1h-11zM66 146h2v1h-2zM70 146h1v1h-1zM72 146h2v1h-2zM76 146h1v1h-1zM79 146h22v1h-22zM104 146h2v1h-2zM108 146h30v1h-30zM143 146h6v1h-6zM159 146h1v1h-1zM51 147h1v1h-1zM54 147h11v1h-11zM71 147h3v1h-3zM78 147h30v1h-30zM109 147h29v1h-29zM145 147h2v1h-2zM51 148h1v1h-1zM54 148h11v1h-11zM67 148h3v1h-3zM71 148h1v1h-1zM77 148h61v1h-61zM154 148h2v1h-2zM52 149h1v1h-1zM54 149h11v1h-11zM69 149h3v1h-3zM77 149h34v1h-34zM112 149h19v1h-19zM132 149h6v1h-6zM140 149h2v1h-2zM151 149h4v1h-4zM52 150h1v1h-1zM54 150h11v1h-11zM69 150h3v1h-3zM75 150h57v1h-57zM133 150h5v1h-5zM140 150h2v1h-2zM152 150h3v1h-3zM52 151h13v1h-13zM67 151h4v1h-4zM72 151h4v1h-4zM77 151h12v1h-12zM90 151h43v1h-43zM134 151h3v1h-3zM140 151h2v1h-2zM150 151h1v1h-1zM152 151h4v1h-4zM52 152h1v1h-1zM55 152h11v1h-11zM67 152h1v1h-1zM70 152h1v1h-1zM72 152h14v1h-14zM88 152h1v1h-1zM91 152h22v1h-22zM114 152h20v1h-20zM135 152h3v1h-3zM140 152h2v1h-2zM151 152h1v1h-1zM155 152h1v1h-1zM53 153h15v1h-15zM70 153h2v1h-2zM73 153h9v1h-9zM94 153h42v1h-42zM139 153h3v1h-3zM149 153h2v1h-2zM152 153h1v1h-1zM155 153h4v1h-4zM56 154h9v1h-9zM66 154h1v1h-1zM71 154h10v1h-10zM95 154h15v1h-15zM111 154h19v1h-19zM131 154h1v1h-1zM133 154h1v1h-1zM135 154h1v1h-1zM139 154h3v1h-3zM148 154h1v1h-1zM151 154h1v1h-1zM54 155h1v1h-1zM56 155h11v1h-11zM68 155h11v1h-11zM94 155h39v1h-39zM134 155h3v1h-3zM139 155h3v1h-3zM143 155h1v1h-1zM148 155h4v1h-4zM154 155h2v1h-2zM57 156h9v1h-9zM69 156h11v1h-11zM88 156h2v1h-2zM92 156h1v1h-1zM95 156h18v1h-18zM114 156h16v1h-16zM131 156h2v1h-2zM134 156h1v1h-1zM139 156h3v1h-3zM150 156h1v1h-1zM155 156h1v1h-1zM159 156h1v1h-1zM54 157h1v1h-1zM57 157h9v1h-9zM69 157h11v1h-11zM88 157h3v1h-3zM93 157h18v1h-18zM112 157h1v1h-1zM115 157h12v1h-12zM128 157h3v1h-3zM132 157h3v1h-3zM138 157h4v1h-4zM151 157h1v1h-1zM155 157h1v1h-1zM159 157h1v1h-1zM55 158h1v1h-1zM60 158h19v1h-19zM82 158h1v1h-1zM87 158h21v1h-21zM109 158h2v1h-2zM113 158h1v1h-1zM115 158h5v1h-5zM121 158h6v1h-6zM130 158h1v1h-1zM132 158h2v1h-2zM138 158h4v1h-4zM148 158h1v1h-1zM151 158h1v1h-1zM155 158h4v1h-4zM59 159h20v1h-20zM83 159h1v1h-1zM85 159h1v1h-1zM87 159h25v1h-25zM114 159h1v1h-1zM116 159h1v1h-1zM118 159h2v1h-2zM121 159h5v1h-5zM127 159h5v1h-5zM133 159h1v1h-1zM137 159h5v1h-5zM149 159h2v1h-2zM155 159h2v1h-2zM56 160h1v1h-1zM60 160h20v1h-20zM81 160h5v1h-5zM87 160h22v1h-22zM111 160h1v1h-1zM114 160h1v1h-1zM116 160h1v1h-1zM118 160h2v1h-2zM121 160h5v1h-5zM127 160h1v1h-1zM130 160h3v1h-3zM137 160h5v1h-5zM150 160h1v1h-1zM56 161h1v1h-1zM59 161h1v1h-1zM61 161h6v1h-6zM68 161h2v1h-2zM71 161h16v1h-16zM88 161h5v1h-5zM94 161h11v1h-11zM107 161h4v1h-4zM112 161h1v1h-1zM115 161h1v1h-1zM118 161h8v1h-8zM128 161h1v1h-1zM131 161h1v1h-1zM137 161h5v1h-5zM57 162h1v1h-1zM62 162h5v1h-5zM68 162h34v1h-34zM103 162h3v1h-3zM115 162h2v1h-2zM118 162h2v1h-2zM121 162h2v1h-2zM124 162h4v1h-4zM129 162h2v1h-2zM136 162h6v1h-6zM146 162h1v1h-1zM150 162h1v1h-1zM57 163h1v1h-1zM62 163h4v1h-4zM67 163h2v1h-2zM70 163h1v1h-1zM72 163h22v1h-22zM95 163h8v1h-8zM105 163h3v1h-3zM112 163h1v1h-1zM116 163h1v1h-1zM119 163h1v1h-1zM121 163h1v1h-1zM127 163h4v1h-4zM135 163h7v1h-7zM150 163h2v1h-2zM58 164h1v1h-1zM63 164h6v1h-6zM71 164h13v1h-13zM86 164h5v1h-5zM94 164h9v1h-9zM106 164h1v1h-1zM108 164h1v1h-1zM112 164h2v1h-2zM116 164h1v1h-1zM119 164h2v1h-2zM122 164h1v1h-1zM124 164h1v1h-1zM127 164h3v1h-3zM134 164h8v1h-8zM151 164h1v1h-1zM58 165h1v1h-1zM63 165h3v1h-3zM69 165h4v1h-4zM74 165h9v1h-9zM84 165h1v1h-1zM91 165h8v1h-8zM100 165h2v1h-2zM103 165h2v1h-2zM108 165h2v1h-2zM116 165h1v1h-1zM120 165h1v1h-1zM122 165h1v1h-1zM125 165h2v1h-2zM134 165h8v1h-8zM147 165h1v1h-1zM151 165h1v1h-1zM60 166h1v1h-1zM62 166h1v1h-1zM64 166h2v1h-2zM68 166h1v1h-1zM74 166h7v1h-7zM82 166h19v1h-19zM103 166h4v1h-4zM110 166h2v1h-2zM117 166h1v1h-1zM120 166h1v1h-1zM123 166h2v1h-2zM126 166h2v1h-2zM134 166h8v1h-8zM65 167h1v1h-1zM73 167h7v1h-7zM81 167h3v1h-3zM85 167h9v1h-9zM95 167h1v1h-1zM97 167h1v1h-1zM99 167h3v1h-3zM103 167h2v1h-2zM106 167h2v1h-2zM126 167h1v1h-1zM134 167h8v1h-8zM144 167h1v1h-1zM151 167h1v1h-1zM61 168h1v1h-1zM65 168h1v1h-1zM69 168h1v1h-1zM71 168h1v1h-1zM73 168h1v1h-1zM76 168h1v1h-1zM78 168h2v1h-2zM81 168h1v1h-1zM83 168h11v1h-11zM95 168h10v1h-10zM107 168h2v1h-2zM122 168h1v1h-1zM131 168h11v1h-11zM144 168h1v1h-1zM150 168h1v1h-1zM72 169h1v1h-1zM77 169h1v1h-1zM80 169h1v1h-1zM82 169h1v1h-1zM84 169h6v1h-6zM91 169h4v1h-4zM96 169h2v1h-2zM99 169h2v1h-2zM104 169h1v1h-1zM109 169h1v1h-1zM133 169h9v1h-9zM63 170h1v1h-1zM66 170h3v1h-3zM80 170h1v1h-1zM82 170h1v1h-1zM84 170h4v1h-4zM89 170h1v1h-1zM91 170h11v1h-11zM104 170h2v1h-2zM107 170h1v1h-1zM109 170h1v1h-1zM111 170h1v1h-1zM116 170h1v1h-1zM127 170h1v1h-1zM129 170h14v1h-14zM78 171h1v1h-1zM80 171h1v1h-1zM83 171h1v1h-1zM85 171h1v1h-1zM88 171h3v1h-3zM95 171h1v1h-1zM97 171h1v1h-1zM131 171h1v1h-1zM133 171h10v1h-10zM65 172h1v1h-1zM73 172h1v1h-1zM75 172h1v1h-1zM77 172h4v1h-4zM82 172h2v1h-2zM85 172h1v1h-1zM88 172h2v1h-2zM91 172h2v1h-2zM94 172h6v1h-6zM106 172h1v1h-1zM128 172h15v1h-15zM66 173h1v1h-1zM72 173h1v1h-1zM80 173h2v1h-2zM86 173h2v1h-2zM89 173h1v1h-1zM91 173h2v1h-2zM94 173h1v1h-1zM96 173h2v1h-2zM99 173h1v1h-1zM128 173h2v1h-2zM132 173h11v1h-11zM67 174h1v1h-1zM80 174h2v1h-2zM86 174h2v1h-2zM91 174h2v1h-2zM96 174h3v1h-3zM125 174h5v1h-5zM131 174h12v1h-12zM145 174h7v1h-7zM68 175h1v1h-1zM73 175h1v1h-1zM80 175h2v1h-2zM86 175h1v1h-1zM88 175h1v1h-1zM91 175h1v1h-1zM96 175h2v1h-2zM127 175h3v1h-3zM132 175h11v1h-11zM147 175h6v1h-6zM155 175h7v1h-7zM173 175h6v1h-6zM69 176h2v1h-2zM73 176h1v1h-1zM81 176h1v1h-1zM86 176h1v1h-1zM89 176h3v1h-3zM96 176h2v1h-2zM104 176h1v1h-1zM107 176h1v1h-1zM125 176h6v1h-6zM132 176h12v1h-12zM149 176h6v1h-6zM157 176h8v1h-8zM169 176h12v1h-12zM70 177h1v1h-1zM77 177h1v1h-1zM81 177h1v1h-1zM94 177h1v1h-1zM118 177h2v1h-2zM122 177h1v1h-1zM125 177h19v1h-19zM150 177h6v1h-6zM159 177h9v1h-9zM169 177h14v1h-14zM185 177h7v1h-7zM94 178h1v1h-1zM125 178h19v1h-19zM151 178h7v1h-7zM159 178h4v1h-4zM164 178h30v1h-30zM82 179h1v1h-1zM86 179h2v1h-2zM117 179h1v1h-1zM119 179h1v1h-1zM122 179h22v1h-22zM146 179h1v1h-1zM152 179h7v1h-7zM160 179h3v1h-3zM165 179h1v1h-1zM167 179h4v1h-4zM172 179h4v1h-4zM177 179h18v1h-18zM87 180h1v1h-1zM123 180h21v1h-21zM152 180h7v1h-7zM160 180h4v1h-4zM167 180h4v1h-4zM172 180h23v1h-23zM87 181h1v1h-1zM95 181h1v1h-1zM99 181h1v1h-1zM114 181h1v1h-1zM117 181h2v1h-2zM120 181h24v1h-24zM147 181h1v1h-1zM152 181h7v1h-7zM160 181h4v1h-4zM168 181h4v1h-4zM174 181h21v1h-21zM73 182h2v1h-2zM121 182h10v1h-10zM132 182h12v1h-12zM152 182h7v1h-7zM161 182h3v1h-3zM169 182h3v1h-3zM173 182h18v1h-18zM192 182h3v1h-3zM66 183h7v1h-7zM74 183h2v1h-2zM99 183h1v1h-1zM114 183h31v1h-31zM147 183h2v1h-2zM152 183h8v1h-8zM161 183h5v1h-5zM169 183h26v1h-26zM65 184h5v1h-5zM75 184h2v1h-2zM121 184h2v1h-2zM124 184h21v1h-21zM147 184h1v1h-1zM152 184h8v1h-8zM161 184h5v1h-5zM170 184h8v1h-8zM180 184h6v1h-6zM189 184h6v1h-6zM63 185h5v1h-5zM74 185h3v1h-3zM108 185h2v1h-2zM111 185h34v1h-34zM147 185h4v1h-4zM152 185h8v1h-8zM161 185h6v1h-6zM170 185h8v1h-8zM179 185h16v1h-16zM62 186h4v1h-4zM73 186h4v1h-4zM79 186h1v1h-1zM117 186h1v1h-1zM122 186h23v1h-23zM153 186h7v1h-7zM163 186h3v1h-3zM170 186h7v1h-7zM179 186h5v1h-5zM188 186h7v1h-7zM53 187h6v1h-6zM63 187h3v1h-3zM72 187h5v1h-5zM79 187h2v1h-2zM110 187h35v1h-35zM147 187h4v1h-4zM153 187h7v1h-7zM162 187h5v1h-5zM170 187h7v1h-7zM179 187h7v1h-7zM188 187h7v1h-7zM52 188h2v1h-2zM57 188h3v1h-3zM63 188h3v1h-3zM73 188h4v1h-4zM79 188h1v1h-1zM84 188h1v1h-1zM99 188h1v1h-1zM114 188h2v1h-2zM119 188h1v1h-1zM121 188h24v1h-24zM148 188h1v1h-1zM153 188h7v1h-7zM163 188h3v1h-3zM170 188h6v1h-6zM179 188h5v1h-5zM188 188h7v1h-7zM51 189h2v1h-2zM59 189h2v1h-2zM62 189h4v1h-4zM71 189h6v1h-6zM79 189h2v1h-2zM105 189h1v1h-1zM108 189h37v1h-37zM148 189h3v1h-3zM153 189h8v1h-8zM162 189h5v1h-5zM170 189h7v1h-7zM178 189h8v1h-8zM187 189h8v1h-8zM50 190h4v1h-4zM62 190h3v1h-3zM71 190h5v1h-5zM80 190h1v1h-1zM87 190h1v1h-1zM94 190h1v1h-1zM98 190h1v1h-1zM116 190h1v1h-1zM118 190h28v1h-28zM148 190h2v1h-2zM153 190h8v1h-8zM163 190h3v1h-3zM170 190h6v1h-6zM178 190h6v1h-6zM188 190h7v1h-7zM48 191h5v1h-5zM62 191h3v1h-3zM71 191h6v1h-6zM80 191h2v1h-2zM104 191h42v1h-42zM148 191h3v1h-3zM153 191h8v1h-8zM162 191h4v1h-4zM169 191h7v1h-7zM178 191h17v1h-17zM47 192h6v1h-6zM58 192h7v1h-7zM71 192h6v1h-6zM80 192h2v1h-2zM88 192h1v1h-1zM95 192h1v1h-1zM103 192h1v1h-1zM115 192h31v1h-31zM153 192h8v1h-8zM163 192h3v1h-3zM170 192h5v1h-5zM178 192h5v1h-5zM187 192h8v1h-8zM43 193h10v1h-10zM62 193h3v1h-3zM72 193h3v1h-3zM80 193h2v1h-2zM88 193h2v1h-2zM107 193h1v1h-1zM109 193h38v1h-38zM148 193h3v1h-3zM152 193h9v1h-9zM162 193h4v1h-4zM168 193h7v1h-7zM177 193h18v1h-18zM39 194h14v1h-14zM58 194h5v1h-5zM67 194h1v1h-1zM71 194h4v1h-4zM76 194h1v1h-1zM81 194h2v1h-2zM90 194h1v1h-1zM96 194h1v1h-1zM103 194h1v1h-1zM108 194h4v1h-4zM113 194h34v1h-34zM153 194h8v1h-8zM163 194h2v1h-2zM169 194h5v1h-5zM177 194h6v1h-6zM187 194h8v1h-8zM38 195h7v1h-7zM47 195h7v1h-7zM67 195h1v1h-1zM72 195h2v1h-2zM81 195h1v1h-1zM90 195h1v1h-1zM102 195h1v1h-1zM107 195h4v1h-4zM112 195h3v1h-3zM116 195h31v1h-31zM148 195h3v1h-3zM152 195h9v1h-9zM162 195h3v1h-3zM169 195h5v1h-5zM177 195h18v1h-18zM34 196h12v1h-12zM49 196h5v1h-5zM56 196h1v1h-1zM66 196h2v1h-2zM71 196h6v1h-6zM81 196h3v1h-3zM91 196h7v1h-7zM104 196h46v1h-46zM152 196h8v1h-8zM162 196h2v1h-2zM165 196h1v1h-1zM169 196h4v1h-4zM177 196h5v1h-5zM183 196h3v1h-3zM187 196h8v1h-8zM33 197h11v1h-11zM50 197h3v1h-3zM66 197h1v1h-1zM113 197h34v1h-34zM148 197h3v1h-3zM152 197h9v1h-9zM162 197h3v1h-3zM169 197h5v1h-5zM176 197h10v1h-10zM187 197h8v1h-8zM31 198h16v1h-16zM53 198h1v1h-1zM57 198h1v1h-1zM66 198h2v1h-2zM70 198h7v1h-7zM82 198h2v1h-2zM92 198h7v1h-7zM100 198h3v1h-3zM104 198h47v1h-47zM152 198h8v1h-8zM162 198h2v1h-2zM168 198h3v1h-3zM172 198h1v1h-1zM179 198h1v1h-1zM183 198h3v1h-3zM187 198h8v1h-8zM29 199h8v1h-8zM38 199h1v1h-1zM40 199h4v1h-4zM47 199h1v1h-1zM54 199h1v1h-1zM57 199h2v1h-2zM66 199h1v1h-1zM107 199h2v1h-2zM110 199h41v1h-41zM152 199h8v1h-8zM162 199h3v1h-3zM168 199h3v1h-3zM172 199h1v1h-1zM177 199h9v1h-9zM187 199h8v1h-8zM27 200h22v1h-22zM54 200h1v1h-1zM58 200h1v1h-1zM66 200h2v1h-2zM70 200h7v1h-7zM79 200h1v1h-1zM83 200h3v1h-3zM88 200h1v1h-1zM94 200h9v1h-9zM104 200h46v1h-46zM152 200h8v1h-8zM163 200h1v1h-1zM168 200h3v1h-3zM182 200h2v1h-2zM187 200h8v1h-8zM25 201h12v1h-12zM40 201h6v1h-6zM58 201h2v1h-2zM66 201h2v1h-2zM98 201h1v1h-1zM106 201h44v1h-44zM151 201h9v1h-9zM161 201h3v1h-3zM167 201h4v1h-4zM172 201h14v1h-14zM187 201h8v1h-8zM24 202h14v1h-14zM40 202h7v1h-7zM48 202h1v1h-1zM55 202h2v1h-2zM58 202h3v1h-3zM66 202h2v1h-2zM70 202h7v1h-7zM83 202h2v1h-2zM94 202h56v1h-56zM151 202h9v1h-9zM167 202h3v1h-3zM172 202h4v1h-4zM177 202h2v1h-2zM180 202h1v1h-1zM182 202h2v1h-2zM187 202h8v1h-8zM23 203h16v1h-16zM42 203h6v1h-6zM56 203h1v1h-1zM59 203h2v1h-2zM66 203h2v1h-2zM75 203h2v1h-2zM97 203h2v1h-2zM100 203h1v1h-1zM107 203h2v1h-2zM110 203h39v1h-39zM151 203h9v1h-9zM161 203h3v1h-3zM167 203h4v1h-4zM172 203h23v1h-23zM23 204h17v1h-17zM41 204h6v1h-6zM48 204h1v1h-1zM50 204h1v1h-1zM56 204h2v1h-2zM59 204h2v1h-2zM66 204h2v1h-2zM73 204h1v1h-1zM75 204h2v1h-2zM97 204h1v1h-1zM99 204h9v1h-9zM109 204h40v1h-40zM151 204h8v1h-8zM166 204h4v1h-4zM173 204h3v1h-3zM177 204h1v1h-1zM181 204h2v1h-2zM187 204h8v1h-8zM22 205h19v1h-19zM43 205h5v1h-5zM50 205h1v1h-1zM56 205h2v1h-2zM59 205h2v1h-2zM66 205h2v1h-2zM71 205h1v1h-1zM74 205h1v1h-1zM76 205h1v1h-1zM97 205h2v1h-2zM100 205h2v1h-2zM103 205h3v1h-3zM107 205h42v1h-42zM150 205h9v1h-9zM160 205h3v1h-3zM166 205h4v1h-4zM172 205h3v1h-3zM176 205h10v1h-10zM187 205h8v1h-8zM21 206h9v1h-9zM31 206h10v1h-10zM43 206h5v1h-5zM50 206h1v1h-1zM57 206h1v1h-1zM59 206h2v1h-2zM66 206h2v1h-2zM70 206h1v1h-1zM76 206h1v1h-1zM90 206h1v1h-1zM102 206h46v1h-46zM150 206h9v1h-9zM161 206h1v1h-1zM166 206h4v1h-4zM179 206h3v1h-3zM183 206h1v1h-1zM186 206h9v1h-9zM21 207h11v1h-11zM34 207h8v1h-8zM44 207h5v1h-5zM51 207h1v1h-1zM59 207h2v1h-2zM66 207h2v1h-2zM71 207h6v1h-6zM90 207h2v1h-2zM98 207h3v1h-3zM102 207h2v1h-2zM105 207h5v1h-5zM112 207h5v1h-5zM118 207h30v1h-30zM149 207h10v1h-10zM160 207h3v1h-3zM166 207h4v1h-4zM176 207h10v1h-10zM187 207h8v1h-8zM21 208h9v1h-9zM32 208h1v1h-1zM34 208h9v1h-9zM44 208h5v1h-5zM51 208h2v1h-2zM57 208h1v1h-1zM59 208h2v1h-2zM66 208h2v1h-2zM91 208h1v1h-1zM100 208h2v1h-2zM113 208h3v1h-3zM117 208h31v1h-31zM149 208h9v1h-9zM166 208h3v1h-3zM176 208h8v1h-8zM186 208h9v1h-9zM20 209h14v1h-14zM36 209h7v1h-7zM46 209h3v1h-3zM51 209h2v1h-2zM57 209h1v1h-1zM59 209h2v1h-2zM66 209h2v1h-2zM71 209h1v1h-1zM73 209h5v1h-5zM91 209h2v1h-2zM101 209h2v1h-2zM109 209h39v1h-39zM149 209h10v1h-10zM160 209h3v1h-3zM165 209h4v1h-4zM176 209h9v1h-9zM187 209h8v1h-8zM20 210h13v1h-13zM37 210h7v1h-7zM46 210h3v1h-3zM59 210h2v1h-2zM66 210h3v1h-3zM74 210h2v1h-2zM107 210h1v1h-1zM114 210h33v1h-33zM148 210h9v1h-9zM166 210h3v1h-3zM176 210h4v1h-4zM182 210h3v1h-3zM187 210h8v1h-8zM19 211h17v1h-17zM37 211h8v1h-8zM46 211h4v1h-4zM51 211h2v1h-2zM59 211h2v1h-2zM67 211h2v1h-2zM71 211h7v1h-7zM88 211h1v1h-1zM92 211h2v1h-2zM102 211h3v1h-3zM108 211h39v1h-39zM148 211h10v1h-10zM160 211h3v1h-3zM165 211h4v1h-4zM176 211h9v1h-9zM187 211h8v1h-8zM19 212h14v1h-14zM39 212h6v1h-6zM47 212h3v1h-3zM59 212h2v1h-2zM67 212h2v1h-2zM75 212h1v1h-1zM100 212h1v1h-1zM113 212h32v1h-32zM148 212h9v1h-9zM165 212h3v1h-3zM177 212h7v1h-7zM186 212h9v1h-9zM18 213h16v1h-16zM35 213h1v1h-1zM39 213h4v1h-4zM44 213h1v1h-1zM47 213h3v1h-3zM52 213h1v1h-1zM57 213h1v1h-1zM59 213h2v1h-2zM67 213h2v1h-2zM71 213h2v1h-2zM74 213h4v1h-4zM88 213h1v1h-1zM91 213h1v1h-1zM93 213h2v1h-2zM97 213h1v1h-1zM101 213h45v1h-45zM147 213h11v1h-11zM159 213h10v1h-10zM172 213h1v1h-1zM176 213h9v1h-9zM186 213h9v1h-9zM18 214h17v1h-17zM40 214h3v1h-3zM45 214h1v1h-1zM47 214h4v1h-4zM59 214h2v1h-2zM68 214h2v1h-2zM75 214h1v1h-1zM104 214h1v1h-1zM110 214h1v1h-1zM112 214h33v1h-33zM147 214h10v1h-10zM163 214h5v1h-5zM177 214h3v1h-3zM181 214h1v1h-1zM187 214h8v1h-8zM17 215h18v1h-18zM36 215h2v1h-2zM39 215h4v1h-4zM45 215h1v1h-1zM47 215h4v1h-4zM53 215h1v1h-1zM59 215h2v1h-2zM65 215h1v1h-1zM68 215h2v1h-2zM72 215h2v1h-2zM75 215h4v1h-4zM92 215h2v1h-2zM95 215h3v1h-3zM99 215h46v1h-46zM147 215h10v1h-10zM159 215h2v1h-2zM163 215h5v1h-5zM171 215h1v1h-1zM175 215h10v1h-10zM186 215h9v1h-9zM17 216h19v1h-19zM42 216h1v1h-1zM46 216h5v1h-5zM59 216h2v1h-2zM68 216h2v1h-2zM76 216h1v1h-1zM103 216h4v1h-4zM108 216h1v1h-1zM110 216h34v1h-34zM146 216h10v1h-10zM163 216h4v1h-4zM177 216h2v1h-2zM187 216h1v1h-1zM189 216h6v1h-6zM16 217h21v1h-21zM41 217h4v1h-4zM46 217h8v1h-8zM59 217h2v1h-2zM68 217h2v1h-2zM71 217h3v1h-3zM75 217h4v1h-4zM91 217h2v1h-2zM94 217h50v1h-50zM145 217h11v1h-11zM158 217h10v1h-10zM170 217h1v1h-1zM173 217h22v1h-22zM15 218h22v1h-22zM43 218h1v1h-1zM47 218h5v1h-5zM60 218h1v1h-1zM67 218h1v1h-1zM76 218h1v1h-1zM78 218h1v1h-1zM99 218h1v1h-1zM102 218h3v1h-3zM106 218h2v1h-2zM109 218h32v1h-32zM142 218h1v1h-1zM145 218h10v1h-10zM158 218h1v1h-1zM163 218h4v1h-4zM177 218h2v1h-2zM181 218h2v1h-2zM190 218h5v1h-5zM15 219h23v1h-23zM42 219h2v1h-2zM47 219h6v1h-6zM59 219h2v1h-2zM67 219h3v1h-3zM71 219h1v1h-1zM73 219h1v1h-1zM75 219h5v1h-5zM84 219h1v1h-1zM89 219h1v1h-1zM92 219h51v1h-51zM145 219h11v1h-11zM157 219h1v1h-1zM159 219h8v1h-8zM175 219h10v1h-10zM186 219h9v1h-9zM15 220h24v1h-24zM43 220h2v1h-2zM47 220h7v1h-7zM68 220h2v1h-2zM76 220h4v1h-4zM93 220h1v1h-1zM95 220h2v1h-2zM99 220h6v1h-6zM106 220h36v1h-36zM144 220h11v1h-11zM159 220h1v1h-1zM162 220h5v1h-5zM176 220h3v1h-3zM181 220h3v1h-3zM189 220h6v1h-6zM14 221h26v1h-26zM43 221h2v1h-2zM47 221h7v1h-7zM59 221h2v1h-2zM66 221h4v1h-4zM72 221h2v1h-2zM76 221h4v1h-4zM88 221h1v1h-1zM93 221h2v1h-2zM96 221h1v1h-1zM98 221h1v1h-1zM100 221h40v1h-40zM141 221h1v1h-1zM144 221h11v1h-11zM158 221h10v1h-10zM169 221h1v1h-1zM172 221h7v1h-7zM181 221h3v1h-3zM186 221h1v1h-1zM188 221h7v1h-7zM13 222h28v1h-28zM44 222h2v1h-2zM47 222h1v1h-1zM49 222h5v1h-5zM60 222h1v1h-1zM68 222h2v1h-2zM76 222h5v1h-5zM93 222h1v1h-1zM98 222h1v1h-1zM101 222h39v1h-39zM141 222h1v1h-1zM143 222h12v1h-12zM157 222h3v1h-3zM162 222h5v1h-5zM175 222h3v1h-3zM181 222h3v1h-3zM188 222h1v1h-1zM190 222h5v1h-5zM13 223h29v1h-29zM44 223h2v1h-2zM47 223h8v1h-8zM59 223h2v1h-2zM68 223h2v1h-2zM72 223h1v1h-1zM76 223h3v1h-3zM80 223h1v1h-1zM89 223h1v1h-1zM94 223h1v1h-1zM97 223h1v1h-1zM99 223h1v1h-1zM101 223h30v1h-30zM132 223h9v1h-9zM143 223h11v1h-11zM157 223h9v1h-9zM173 223h6v1h-6zM181 223h3v1h-3zM189 223h6v1h-6zM13 224h13v1h-13zM27 224h14v1h-14zM44 224h3v1h-3zM49 224h5v1h-5zM59 224h3v1h-3zM68 224h3v1h-3zM72 224h1v1h-1zM75 224h1v1h-1zM77 224h5v1h-5zM89 224h1v1h-1zM94 224h1v1h-1zM99 224h1v1h-1zM102 224h9v1h-9zM112 224h28v1h-28zM142 224h12v1h-12zM157 224h3v1h-3zM161 224h5v1h-5zM173 224h1v1h-1zM175 224h4v1h-4zM181 224h4v1h-4zM190 224h5v1h-5zM13 225h13v1h-13zM27 225h5v1h-5zM33 225h9v1h-9zM44 225h3v1h-3zM49 225h5v1h-5zM60 225h1v1h-1zM68 225h2v1h-2zM72 225h2v1h-2zM75 225h1v1h-1zM78 225h1v1h-1zM81 225h1v1h-1zM95 225h1v1h-1zM103 225h2v1h-2zM106 225h1v1h-1zM108 225h1v1h-1zM111 225h12v1h-12zM125 225h9v1h-9zM135 225h2v1h-2zM141 225h13v1h-13zM156 225h3v1h-3zM161 225h5v1h-5zM175 225h3v1h-3zM181 225h3v1h-3zM190 225h5v1h-5zM12 226h21v1h-21zM34 226h9v1h-9zM45 226h3v1h-3zM50 226h5v1h-5zM59 226h2v1h-2zM68 226h3v1h-3zM73 226h1v1h-1zM78 226h2v1h-2zM81 226h2v1h-2zM90 226h1v1h-1zM95 226h1v1h-1zM102 226h22v1h-22zM125 226h8v1h-8zM135 226h2v1h-2zM138 226h2v1h-2zM141 226h12v1h-12zM155 226h12v1h-12zM175 226h4v1h-4zM181 226h4v1h-4zM190 226h5v1h-5zM12 227h10v1h-10zM23 227h4v1h-4zM28 227h5v1h-5zM34 227h9v1h-9zM45 227h3v1h-3zM51 227h4v1h-4zM59 227h2v1h-2zM69 227h1v1h-1zM73 227h1v1h-1zM76 227h1v1h-1zM78 227h2v1h-2zM82 227h1v1h-1zM103 227h1v1h-1zM105 227h2v1h-2zM108 227h2v1h-2zM124 227h3v1h-3zM128 227h3v1h-3zM133 227h1v1h-1zM135 227h1v1h-1zM140 227h12v1h-12zM156 227h4v1h-4zM161 227h5v1h-5zM175 227h3v1h-3zM181 227h3v1h-3zM190 227h5v1h-5zM12 228h22v1h-22zM35 228h9v1h-9zM45 228h4v1h-4zM51 228h1v1h-1zM53 228h2v1h-2zM59 228h2v1h-2zM65 228h1v1h-1zM69 228h2v1h-2zM73 228h2v1h-2zM78 228h3v1h-3zM82 228h2v1h-2zM89 228h1v1h-1zM96 228h1v1h-1zM99 228h1v1h-1zM103 228h13v1h-13zM117 228h6v1h-6zM124 228h12v1h-12zM137 228h1v1h-1zM139 228h13v1h-13zM154 228h5v1h-5zM160 228h8v1h-8zM173 228h6v1h-6zM180 228h6v1h-6zM190 228h5v1h-5zM11 229h13v1h-13zM26 229h1v1h-1zM28 229h5v1h-5zM36 229h7v1h-7zM46 229h3v1h-3zM52 229h1v1h-1zM54 229h1v1h-1zM58 229h3v1h-3zM70 229h1v1h-1zM74 229h1v1h-1zM79 229h2v1h-2zM83 229h1v1h-1zM106 229h1v1h-1zM108 229h2v1h-2zM116 229h1v1h-1zM124 229h2v1h-2zM127 229h3v1h-3zM139 229h9v1h-9zM149 229h2v1h-2zM155 229h1v1h-1zM161 229h4v1h-4zM175 229h3v1h-3zM181 229h2v1h-2zM184 229h2v1h-2zM190 229h4v1h-4zM11 230h22v1h-22zM36 230h8v1h-8zM46 230h4v1h-4zM59 230h2v1h-2zM69 230h3v1h-3zM74 230h2v1h-2zM77 230h1v1h-1zM80 230h2v1h-2zM83 230h2v1h-2zM98 230h1v1h-1zM101 230h31v1h-31zM133 230h2v1h-2zM138 230h13v1h-13zM153 230h14v1h-14zM173 230h6v1h-6zM180 230h8v1h-8zM190 230h5v1h-5zM11 231h14v1h-14zM29 231h4v1h-4zM37 231h7v1h-7zM47 231h4v1h-4zM58 231h2v1h-2zM71 231h1v1h-1zM75 231h1v1h-1zM80 231h2v1h-2zM84 231h2v1h-2zM106 231h1v1h-1zM109 231h1v1h-1zM116 231h1v1h-1zM120 231h1v1h-1zM125 231h4v1h-4zM137 231h13v1h-13zM154 231h1v1h-1zM160 231h6v1h-6zM175 231h3v1h-3zM182 231h3v1h-3zM190 231h3v1h-3zM10 232h16v1h-16zM27 232h7v1h-7zM36 232h9v1h-9zM47 232h6v1h-6zM58 232h2v1h-2zM69 232h3v1h-3zM75 232h2v1h-2zM81 232h3v1h-3zM85 232h1v1h-1zM103 232h23v1h-23zM127 232h1v1h-1zM129 232h4v1h-4zM136 232h14v1h-14zM152 232h14v1h-14zM169 232h1v1h-1zM173 232h5v1h-5zM181 232h7v1h-7zM190 232h4v1h-4zM10 233h12v1h-12zM23 233h3v1h-3zM31 233h3v1h-3zM37 233h6v1h-6zM44 233h1v1h-1zM47 233h6v1h-6zM58 233h2v1h-2zM75 233h2v1h-2zM81 233h3v1h-3zM86 233h1v1h-1zM107 233h2v1h-2zM111 233h2v1h-2zM122 233h2v1h-2zM130 233h1v1h-1zM136 233h8v1h-8zM145 233h1v1h-1zM147 233h1v1h-1zM152 233h3v1h-3zM160 233h5v1h-5zM175 233h3v1h-3zM181 233h1v1h-1zM183 233h2v1h-2zM190 233h3v1h-3zM9 234h34v1h-34zM44 234h2v1h-2zM47 234h7v1h-7zM58 234h2v1h-2zM65 234h1v1h-1zM69 234h3v1h-3zM75 234h2v1h-2zM82 234h3v1h-3zM86 234h2v1h-2zM89 234h1v1h-1zM106 234h12v1h-12zM120 234h1v1h-1zM122 234h1v1h-1zM129 234h3v1h-3zM135 234h9v1h-9zM145 234h4v1h-4zM151 234h15v1h-15zM168 234h2v1h-2zM171 234h1v1h-1zM173 234h5v1h-5zM181 234h4v1h-4zM186 234h2v1h-2zM190 234h5v1h-5zM9 235h13v1h-13zM26 235h2v1h-2zM33 235h11v1h-11zM45 235h1v1h-1zM48 235h6v1h-6zM58 235h2v1h-2zM76 235h2v1h-2zM83 235h1v1h-1zM90 235h1v1h-1zM106 235h1v1h-1zM108 235h2v1h-2zM111 235h2v1h-2zM114 235h2v1h-2zM117 235h2v1h-2zM128 235h1v1h-1zM134 235h14v1h-14zM153 235h2v1h-2zM158 235h1v1h-1zM160 235h3v1h-3zM164 235h1v1h-1zM175 235h3v1h-3zM183 235h1v1h-1zM190 235h3v1h-3zM9 236h16v1h-16zM27 236h17v1h-17zM45 236h2v1h-2zM48 236h7v1h-7zM58 236h2v1h-2zM69 236h3v1h-3zM76 236h3v1h-3zM83 236h3v1h-3zM88 236h1v1h-1zM90 236h2v1h-2zM107 236h9v1h-9zM128 236h2v1h-2zM133 236h10v1h-10zM144 236h4v1h-4zM149 236h16v1h-16zM167 236h1v1h-1zM174 236h4v1h-4zM180 236h6v1h-6zM189 236h4v1h-4zM194 236h1v1h-1zM9 237h11v1h-11zM21 237h1v1h-1zM30 237h1v1h-1zM34 237h11v1h-11zM46 237h1v1h-1zM49 237h3v1h-3zM53 237h1v1h-1zM58 237h2v1h-2zM70 237h1v1h-1zM77 237h2v1h-2zM84 237h1v1h-1zM86 237h1v1h-1zM91 237h2v1h-2zM107 237h8v1h-8zM125 237h2v1h-2zM132 237h15v1h-15zM152 237h1v1h-1zM160 237h2v1h-2zM164 237h1v1h-1zM175 237h3v1h-3zM183 237h2v1h-2zM190 237h3v1h-3zM8 238h17v1h-17zM28 238h4v1h-4zM33 238h14v1h-14zM49 238h6v1h-6zM58 238h2v1h-2zM70 238h3v1h-3zM77 238h3v1h-3zM84 238h2v1h-2zM87 238h1v1h-1zM91 238h3v1h-3zM108 238h2v1h-2zM111 238h2v1h-2zM114 238h2v1h-2zM125 238h1v1h-1zM131 238h16v1h-16zM148 238h17v1h-17zM169 238h1v1h-1zM171 238h1v1h-1zM174 238h4v1h-4zM181 238h5v1h-5zM187 238h1v1h-1zM190 238h3v1h-3zM8 239h14v1h-14zM28 239h2v1h-2zM34 239h11v1h-11zM49 239h4v1h-4zM58 239h2v1h-2zM71 239h1v1h-1zM78 239h2v1h-2zM85 239h2v1h-2zM88 239h1v1h-1zM93 239h1v1h-1zM109 239h8v1h-8zM122 239h1v1h-1zM127 239h1v1h-1zM129 239h11v1h-11zM141 239h4v1h-4zM148 239h1v1h-1zM158 239h3v1h-3zM175 239h2v1h-2zM181 239h1v1h-1zM190 239h2v1h-2zM8 240h16v1h-16zM29 240h2v1h-2zM33 240h13v1h-13zM47 240h1v1h-1zM50 240h4v1h-4zM58 240h2v1h-2zM70 240h3v1h-3zM78 240h3v1h-3zM85 240h2v1h-2zM88 240h2v1h-2zM93 240h2v1h-2zM111 240h2v1h-2zM129 240h16v1h-16zM147 240h8v1h-8zM156 240h8v1h-8zM170 240h2v1h-2zM173 240h5v1h-5zM180 240h6v1h-6zM190 240h3v1h-3zM8 241h10v1h-10zM21 241h3v1h-3zM35 241h4v1h-4zM40 241h6v1h-6zM50 241h3v1h-3zM58 241h2v1h-2zM70 241h2v1h-2zM80 241h2v1h-2zM86 241h2v1h-2zM89 241h1v1h-1zM94 241h2v1h-2zM109 241h8v1h-8zM123 241h1v1h-1zM127 241h17v1h-17zM147 241h1v1h-1zM151 241h1v1h-1zM153 241h1v1h-1zM158 241h3v1h-3zM163 241h1v1h-1zM175 241h2v1h-2zM181 241h1v1h-1zM184 241h2v1h-2zM190 241h3v1h-3zM194 241h1v1h-1zM8 242h13v1h-13zM22 242h6v1h-6zM33 242h14v1h-14zM48 242h1v1h-1zM51 242h3v1h-3zM58 242h2v1h-2zM61 242h1v1h-1zM70 242h4v1h-4zM80 242h3v1h-3zM86 242h3v1h-3zM90 242h1v1h-1zM94 242h2v1h-2zM126 242h18v1h-18zM146 242h2v1h-2zM149 242h14v1h-14zM173 242h5v1h-5zM181 242h5v1h-5zM190 242h2v1h-2zM8 243h12v1h-12zM21 243h1v1h-1zM23 243h6v1h-6zM34 243h1v1h-1zM36 243h4v1h-4zM41 243h6v1h-6zM51 243h3v1h-3zM58 243h2v1h-2zM71 243h2v1h-2zM81 243h2v1h-2zM86 243h4v1h-4zM95 243h2v1h-2zM107 243h10v1h-10zM124 243h13v1h-13zM138 243h4v1h-4zM145 243h2v1h-2zM148 243h1v1h-1zM152 243h1v1h-1zM155 243h8v1h-8zM175 243h2v1h-2zM182 243h4v1h-4zM190 243h5v1h-5zM8 244h14v1h-14zM23 244h8v1h-8zM35 244h5v1h-5zM41 244h7v1h-7zM51 244h3v1h-3zM58 244h2v1h-2zM71 244h2v1h-2zM82 244h2v1h-2zM86 244h5v1h-5zM95 244h1v1h-1zM97 244h1v1h-1zM123 244h9v1h-9zM133 244h10v1h-10zM145 244h2v1h-2zM148 244h1v1h-1zM150 244h13v1h-13zM165 244h2v1h-2zM172 244h1v1h-1zM174 244h3v1h-3zM181 244h6v1h-6zM190 244h4v1h-4zM9 245h12v1h-12zM24 245h9v1h-9zM36 245h4v1h-4zM42 245h6v1h-6zM52 245h2v1h-2zM58 245h2v1h-2zM61 245h1v1h-1zM72 245h1v1h-1zM83 245h2v1h-2zM87 245h5v1h-5zM98 245h1v1h-1zM109 245h3v1h-3zM113 245h2v1h-2zM121 245h11v1h-11zM133 245h1v1h-1zM135 245h7v1h-7zM144 245h3v1h-3zM149 245h2v1h-2zM154 245h8v1h-8zM174 245h3v1h-3zM181 245h6v1h-6zM191 245h3v1h-3zM8 246h13v1h-13zM24 246h10v1h-10zM37 246h4v1h-4zM42 246h7v1h-7zM52 246h2v1h-2zM58 246h2v1h-2zM72 246h1v1h-1zM83 246h2v1h-2zM87 246h5v1h-5zM97 246h1v1h-1zM99 246h1v1h-1zM120 246h21v1h-21zM143 246h4v1h-4zM148 246h3v1h-3zM153 246h3v1h-3zM157 246h5v1h-5zM165 246h1v1h-1zM168 246h1v1h-1zM173 246h4v1h-4zM181 246h5v1h-5zM191 246h2v1h-2zM8 247h14v1h-14zM25 247h11v1h-11zM38 247h3v1h-3zM43 247h1v1h-1zM45 247h5v1h-5zM52 247h2v1h-2zM57 247h3v1h-3zM70 247h1v1h-1zM72 247h2v1h-2zM79 247h1v1h-1zM84 247h1v1h-1zM88 247h4v1h-4zM93 247h1v1h-1zM97 247h1v1h-1zM99 247h3v1h-3zM117 247h10v1h-10zM128 247h12v1h-12zM143 247h3v1h-3zM148 247h2v1h-2zM154 247h2v1h-2zM157 247h5v1h-5zM174 247h3v1h-3zM181 247h7v1h-7zM191 247h4v1h-4zM8 248h14v1h-14zM26 248h11v1h-11zM39 248h2v1h-2zM44 248h6v1h-6zM52 248h2v1h-2zM58 248h2v1h-2zM70 248h1v1h-1zM72 248h2v1h-2zM80 248h1v1h-1zM84 248h2v1h-2zM88 248h5v1h-5zM100 248h4v1h-4zM115 248h25v1h-25zM142 248h4v1h-4zM147 248h4v1h-4zM153 248h3v1h-3zM157 248h4v1h-4zM173 248h4v1h-4zM181 248h6v1h-6zM191 248h4v1h-4zM7 249h10v1h-10zM18 249h4v1h-4zM26 249h5v1h-5zM32 249h6v1h-6zM39 249h3v1h-3zM46 249h4v1h-4zM53 249h1v1h-1zM58 249h3v1h-3zM70 249h1v1h-1zM72 249h2v1h-2zM80 249h2v1h-2zM85 249h1v1h-1zM89 249h5v1h-5zM98 249h2v1h-2zM102 249h36v1h-36zM142 249h4v1h-4zM148 249h2v1h-2zM153 249h2v1h-2zM156 249h5v1h-5zM173 249h4v1h-4zM181 249h6v1h-6zM191 249h4v1h-4zM7 250h10v1h-10zM19 250h4v1h-4zM25 250h1v1h-1zM27 250h11v1h-11zM40 250h3v1h-3zM47 250h3v1h-3zM53 250h1v1h-1zM58 250h3v1h-3zM72 250h2v1h-2zM80 250h2v1h-2zM85 250h2v1h-2zM90 250h5v1h-5zM98 250h1v1h-1zM104 250h15v1h-15zM120 250h8v1h-8zM129 250h9v1h-9zM141 250h4v1h-4zM148 250h1v1h-1zM150 250h1v1h-1zM152 250h3v1h-3zM156 250h3v1h-3zM160 250h1v1h-1zM173 250h3v1h-3zM183 250h3v1h-3zM191 250h2v1h-2zM194 250h1v1h-1zM7 251h4v1h-4zM12 251h5v1h-5zM21 251h2v1h-2zM25 251h1v1h-1zM28 251h4v1h-4zM35 251h4v1h-4zM41 251h2v1h-2zM46 251h1v1h-1zM48 251h3v1h-3zM54 251h1v1h-1zM58 251h4v1h-4zM65 251h1v1h-1zM72 251h3v1h-3zM81 251h2v1h-2zM85 251h3v1h-3zM91 251h4v1h-4zM99 251h1v1h-1zM102 251h1v1h-1zM105 251h32v1h-32zM139 251h1v1h-1zM141 251h5v1h-5zM147 251h2v1h-2zM152 251h7v1h-7zM160 251h1v1h-1zM173 251h4v1h-4zM179 251h1v1h-1zM181 251h7v1h-7zM191 251h4v1h-4zM6 252h6v1h-6zM13 252h4v1h-4zM22 252h1v1h-1zM28 252h5v1h-5zM35 252h5v1h-5zM42 252h1v1h-1zM58 252h4v1h-4zM73 252h2v1h-2zM81 252h2v1h-2zM85 252h3v1h-3zM92 252h1v1h-1zM94 252h1v1h-1zM99 252h1v1h-1zM103 252h1v1h-1zM107 252h7v1h-7zM116 252h20v1h-20zM139 252h5v1h-5zM147 252h1v1h-1zM152 252h6v1h-6zM173 252h3v1h-3zM183 252h1v1h-1zM185 252h2v1h-2zM5 253h8v1h-8zM15 253h2v1h-2zM18 253h1v1h-1zM23 253h1v1h-1zM28 253h1v1h-1zM30 253h4v1h-4zM36 253h5v1h-5zM42 253h2v1h-2zM48 253h2v1h-2zM51 253h1v1h-1zM57 253h5v1h-5zM73 253h3v1h-3zM81 253h3v1h-3zM86 253h3v1h-3zM93 253h3v1h-3zM100 253h2v1h-2zM103 253h32v1h-32zM138 253h6v1h-6zM146 253h14v1h-14zM163 253h3v1h-3zM169 253h1v1h-1zM172 253h5v1h-5zM179 253h1v1h-1zM181 253h7v1h-7zM193 253h2v1h-2zM5 254h8v1h-8zM16 254h1v1h-1zM24 254h1v1h-1zM29 254h1v1h-1zM31 254h3v1h-3zM37 254h4v1h-4zM43 254h1v1h-1zM49 254h1v1h-1zM52 254h1v1h-1zM58 254h4v1h-4zM73 254h2v1h-2zM83 254h1v1h-1zM86 254h3v1h-3zM94 254h1v1h-1zM100 254h2v1h-2zM108 254h10v1h-10zM119 254h1v1h-1zM121 254h1v1h-1zM123 254h7v1h-7zM132 254h3v1h-3zM138 254h1v1h-1zM141 254h2v1h-2zM148 254h1v1h-1zM150 254h2v1h-2zM153 254h1v1h-1zM156 254h4v1h-4zM172 254h4v1h-4zM183 254h1v1h-1zM186 254h1v1h-1zM194 254h1v1h-1zM4 255h16v1h-16zM21 255h1v1h-1zM25 255h1v1h-1zM30 255h1v1h-1zM32 255h2v1h-2zM35 255h1v1h-1zM38 255h4v1h-4zM44 255h2v1h-2zM50 255h1v1h-1zM57 255h5v1h-5zM66 255h1v1h-1zM73 255h3v1h-3zM82 255h2v1h-2zM87 255h5v1h-5zM96 255h1v1h-1zM101 255h2v1h-2zM105 255h2v1h-2zM108 255h24v1h-24zM137 255h6v1h-6zM145 255h14v1h-14zM162 255h3v1h-3zM166 255h2v1h-2zM171 255h6v1h-6zM181 255h3v1h-3zM185 255h1v1h-1zM187 255h1v1h-1zM193 255h2v1h-2zM5 256h13v1h-13zM19 256h2v1h-2zM39 256h3v1h-3zM58 256h4v1h-4zM74 256h2v1h-2zM83 256h1v1h-1zM88 256h4v1h-4zM101 256h2v1h-2zM106 256h5v1h-5zM112 256h14v1h-14zM127 256h4v1h-4zM137 256h1v1h-1zM140 256h2v1h-2zM154 256h2v1h-2zM173 256h3v1h-3zM183 256h1v1h-1zM4 257h21v1h-21zM27 257h1v1h-1zM35 257h2v1h-2zM40 257h3v1h-3zM45 257h5v1h-5zM57 257h6v1h-6zM73 257h4v1h-4zM83 257h2v1h-2zM89 257h4v1h-4zM98 257h1v1h-1zM102 257h1v1h-1zM104 257h25v1h-25zM133 257h2v1h-2zM137 257h5v1h-5zM145 257h2v1h-2zM148 257h11v1h-11zM161 257h2v1h-2zM164 257h1v1h-1zM166 257h2v1h-2zM171 257h5v1h-5zM182 257h6v1h-6zM193 257h2v1h-2zM4 258h13v1h-13zM18 258h6v1h-6zM37 258h1v1h-1zM40 258h3v1h-3zM59 258h3v1h-3zM74 258h2v1h-2zM84 258h1v1h-1zM89 258h4v1h-4zM105 258h3v1h-3zM109 258h19v1h-19zM131 258h3v1h-3zM138 258h3v1h-3zM148 258h1v1h-1zM153 258h1v1h-1zM173 258h3v1h-3zM4 259h24v1h-24zM36 259h3v1h-3zM41 259h3v1h-3zM46 259h1v1h-1zM59 259h4v1h-4zM73 259h4v1h-4zM84 259h3v1h-3zM91 259h4v1h-4zM103 259h1v1h-1zM106 259h14v1h-14zM121 259h5v1h-5zM130 259h4v1h-4zM136 259h5v1h-5zM143 259h6v1h-6zM150 259h18v1h-18zM171 259h5v1h-5zM179 259h1v1h-1zM183 259h3v1h-3zM4 260h13v1h-13zM18 260h1v1h-1zM26 260h1v1h-1zM28 260h1v1h-1zM38 260h1v1h-1zM42 260h3v1h-3zM61 260h1v1h-1zM75 260h2v1h-2zM85 260h2v1h-2zM92 260h3v1h-3zM109 260h2v1h-2zM114 260h2v1h-2zM118 260h1v1h-1zM122 260h1v1h-1zM130 260h3v1h-3zM136 260h4v1h-4zM155 260h1v1h-1zM165 260h1v1h-1zM173 260h3v1h-3zM4 261h28v1h-28zM38 261h2v1h-2zM42 261h3v1h-3zM47 261h2v1h-2zM52 261h1v1h-1zM58 261h5v1h-5zM65 261h1v1h-1zM72 261h1v1h-1zM74 261h3v1h-3zM86 261h2v1h-2zM92 261h4v1h-4zM108 261h13v1h-13zM126 261h7v1h-7zM135 261h5v1h-5zM143 261h1v1h-1zM145 261h21v1h-21zM171 261h5v1h-5zM183 261h3v1h-3zM4 262h9v1h-9zM20 262h2v1h-2zM27 262h2v1h-2zM30 262h1v1h-1zM39 262h1v1h-1zM43 262h3v1h-3zM59 262h2v1h-2zM62 262h1v1h-1zM75 262h2v1h-2zM93 262h3v1h-3zM110 262h7v1h-7zM128 262h3v1h-3zM135 262h4v1h-4zM154 262h2v1h-2zM165 262h1v1h-1zM173 262h3v1h-3zM4 263h13v1h-13zM19 263h16v1h-16zM39 263h2v1h-2zM43 263h3v1h-3zM51 263h2v1h-2zM58 263h5v1h-5zM69 263h1v1h-1zM72 263h1v1h-1zM74 263h3v1h-3zM87 263h3v1h-3zM94 263h3v1h-3zM122 263h10v1h-10zM134 263h4v1h-4zM140 263h8v1h-8zM149 263h18v1h-18zM170 263h7v1h-7zM179 263h1v1h-1zM184 263h2v1h-2zM187 263h1v1h-1zM4 264h11v1h-11zM21 264h1v1h-1zM31 264h4v1h-4zM44 264h2v1h-2zM59 264h4v1h-4zM76 264h1v1h-1zM88 264h1v1h-1zM95 264h3v1h-3zM106 264h1v1h-1zM121 264h2v1h-2zM126 264h4v1h-4zM134 264h4v1h-4zM154 264h1v1h-1zM156 264h2v1h-2zM164 264h1v1h-1zM173 264h1v1h-1zM175 264h1v1h-1zM4 265h13v1h-13zM22 265h15v1h-15zM41 265h1v1h-1zM44 265h3v1h-3zM59 265h5v1h-5zM70 265h1v1h-1zM74 265h4v1h-4zM89 265h2v1h-2zM95 265h3v1h-3zM109 265h2v1h-2zM112 265h18v1h-18zM132 265h5v1h-5zM140 265h1v1h-1zM144 265h2v1h-2zM148 265h2v1h-2zM151 265h16v1h-16zM171 265h6v1h-6zM179 265h1v1h-1zM184 265h2v1h-2zM4 266h7v1h-7zM13 266h3v1h-3zM33 266h3v1h-3zM46 266h2v1h-2zM60 266h4v1h-4zM76 266h1v1h-1zM91 266h1v1h-1zM96 266h3v1h-3zM120 266h1v1h-1zM122 266h4v1h-4zM127 266h2v1h-2zM131 266h5v1h-5zM144 266h1v1h-1zM151 266h2v1h-2zM156 266h1v1h-1zM159 266h2v1h-2zM163 266h2v1h-2zM173 266h3v1h-3zM4 267h13v1h-13zM19 267h1v1h-1zM26 267h1v1h-1zM28 267h2v1h-2zM34 267h4v1h-4zM45 267h3v1h-3zM53 267h1v1h-1zM58 267h6v1h-6zM71 267h1v1h-1zM75 267h3v1h-3zM96 267h3v1h-3zM110 267h1v1h-1zM118 267h2v1h-2zM122 267h1v1h-1zM124 267h5v1h-5zM130 267h6v1h-6zM141 267h4v1h-4zM148 267h6v1h-6zM155 267h9v1h-9zM165 267h2v1h-2zM171 267h6v1h-6zM181 267h1v1h-1zM184 267h2v1h-2zM4 268h11v1h-11zM16 268h3v1h-3zM36 268h3v1h-3zM43 268h1v1h-1zM47 268h1v1h-1zM60 268h4v1h-4zM76 268h2v1h-2zM92 268h1v1h-1zM98 268h2v1h-2zM122 268h2v1h-2zM125 268h10v1h-10zM151 268h1v1h-1zM153 268h2v1h-2zM162 268h2v1h-2zM165 268h1v1h-1zM174 268h3v1h-3zM4 269h13v1h-13zM18 269h4v1h-4zM28 269h1v1h-1zM36 269h4v1h-4zM46 269h2v1h-2zM59 269h5v1h-5zM74 269h5v1h-5zM92 269h2v1h-2zM98 269h2v1h-2zM115 269h1v1h-1zM117 269h2v1h-2zM120 269h1v1h-1zM122 269h2v1h-2zM126 269h1v1h-1zM128 269h6v1h-6zM140 269h1v1h-1zM143 269h1v1h-1zM148 269h7v1h-7zM158 269h1v1h-1zM160 269h3v1h-3zM164 269h2v1h-2zM173 269h4v1h-4zM185 269h1v1h-1zM4 270h10v1h-10zM15 270h2v1h-2zM21 270h1v1h-1zM39 270h2v1h-2zM47 270h2v1h-2zM61 270h3v1h-3zM77 270h2v1h-2zM93 270h2v1h-2zM99 270h2v1h-2zM116 270h3v1h-3zM120 270h1v1h-1zM122 270h2v1h-2zM127 270h7v1h-7zM151 270h3v1h-3zM161 270h2v1h-2zM165 270h1v1h-1zM173 270h1v1h-1zM175 270h2v1h-2zM4 271h19v1h-19zM24 271h1v1h-1zM39 271h3v1h-3zM47 271h3v1h-3zM60 271h4v1h-4zM77 271h2v1h-2zM94 271h1v1h-1zM98 271h4v1h-4zM117 271h1v1h-1zM119 271h1v1h-1zM121 271h1v1h-1zM126 271h7v1h-7zM142 271h1v1h-1zM151 271h1v1h-1zM153 271h1v1h-1zM161 271h2v1h-2zM172 271h5v1h-5zM179 271h1v1h-1zM4 272h9v1h-9zM18 272h4v1h-4zM23 272h3v1h-3zM40 272h3v1h-3zM49 272h1v1h-1zM60 272h1v1h-1zM62 272h2v1h-2zM76 272h3v1h-3zM100 272h3v1h-3zM116 272h3v1h-3zM120 272h2v1h-2zM125 272h8v1h-8zM142 272h1v1h-1zM146 272h1v1h-1zM150 272h1v1h-1zM152 272h1v1h-1zM156 272h1v1h-1zM160 272h3v1h-3zM174 272h3v1h-3zM4 273h13v1h-13zM19 273h1v1h-1zM41 273h2v1h-2zM49 273h1v1h-1zM60 273h1v1h-1zM62 273h2v1h-2zM76 273h1v1h-1zM78 273h1v1h-1zM100 273h3v1h-3zM117 273h1v1h-1zM120 273h1v1h-1zM125 273h5v1h-5zM160 273h1v1h-1zM173 273h4v1h-4zM4 274h12v1h-12zM17 274h9v1h-9zM27 274h1v1h-1zM42 274h2v1h-2zM62 274h2v1h-2zM71 274h1v1h-1zM77 274h3v1h-3zM96 274h1v1h-1zM101 274h3v1h-3zM107 274h1v1h-1zM116 274h2v1h-2zM119 274h1v1h-1zM121 274h1v1h-1zM124 274h8v1h-8zM136 274h2v1h-2zM141 274h1v1h-1zM146 274h1v1h-1zM149 274h1v1h-1zM153 274h1v1h-1zM158 274h1v1h-1zM160 274h1v1h-1zM172 274h5v1h-5zM4 275h8v1h-8zM15 275h1v1h-1zM18 275h2v1h-2zM24 275h2v1h-2zM43 275h1v1h-1zM62 275h2v1h-2zM78 275h2v1h-2zM101 275h3v1h-3zM125 275h5v1h-5zM158 275h1v1h-1zM174 275h3v1h-3zM4 276h7v1h-7zM14 276h2v1h-2zM17 276h6v1h-6zM24 276h7v1h-7zM44 276h2v1h-2zM60 276h1v1h-1zM62 276h2v1h-2zM78 276h2v1h-2zM97 276h1v1h-1zM102 276h4v1h-4zM115 276h6v1h-6zM123 276h7v1h-7zM135 276h1v1h-1zM138 276h1v1h-1zM142 276h3v1h-3zM147 276h1v1h-1zM150 276h2v1h-2zM153 276h1v1h-1zM155 276h1v1h-1zM157 276h2v1h-2zM160 276h2v1h-2zM171 276h1v1h-1zM175 276h2v1h-2zM5 277h6v1h-6zM45 277h1v1h-1zM78 277h1v1h-1zM103 277h2v1h-2zM123 277h3v1h-3zM4 278h7v1h-7zM13 278h1v1h-1zM16 278h1v1h-1zM19 278h3v1h-3zM25 278h1v1h-1zM27 278h6v1h-6zM46 278h1v1h-1zM51 278h1v1h-1zM60 278h1v1h-1zM63 278h2v1h-2zM78 278h3v1h-3zM98 278h1v1h-1zM104 278h3v1h-3zM122 278h6v1h-6zM140 278h2v1h-2zM149 278h1v1h-1zM151 278h1v1h-1zM153 278h2v1h-2zM156 278h3v1h-3zM173 278h4v1h-4zM123 279h1v1h-1zM4 280h3v1h-3zM8 280h1v1h-1zM15 280h1v1h-1zM30 280h1v1h-1zM42 280h1v1h-1zM47 280h1v1h-1zM80 280h2v1h-2zM105 280h3v1h-3zM119 280h1v1h-1zM121 280h5v1h-5zM143 280h1v1h-1zM147 280h2v1h-2zM154 280h3v1h-3zM160 280h1v1h-1zM172 280h3v1h-3zM176 280h1v1h-1zM122 281h2v1h-2zM107 282h1v1h-1zM121 282h3v1h-3zM11 283h1v1h-1zM26 283h1v1h-1zM52 285h1v1h-1zM147 285h1v1h-1z" /><path fill="#8b949e" d="M60 9h1v1h-1zM94 9h1v1h-1zM107 13h2v1h-2zM127 26h1v1h-1zM98 30h1v1h-1zM134 38h1v1h-1zM35 40h2v1h-2zM115 50h2v1h-2zM70 65h4v1h-4zM75 65h1v1h-1zM77 65h2v1h-2zM71 67h1v1h-1zM75 67h2v1h-2zM73 69h1v1h-1zM76 69h5v1h-5zM65 71h1v1h-1zM68 71h1v1h-1zM70 71h4v1h-4zM76 71h1v1h-1zM97 71h3v1h-3zM69 73h3v1h-3zM76 73h1v1h-1zM79 73h3v1h-3zM83 73h2v1h-2zM97 73h4v1h-4zM64 75h1v1h-1zM71 75h1v1h-1zM78 75h7v1h-7zM98 75h2v1h-2zM109 75h1v1h-1zM64 77h1v1h-1zM66 77h1v1h-1zM72 77h4v1h-4zM94 77h1v1h-1zM60 79h1v1h-1zM65 79h4v1h-4zM71 79h8v1h-8zM84 79h2v1h-2zM81 80h2v1h-2zM66 81h2v1h-2zM79 81h5v1h-5zM88 81h1v1h-1zM71 82h1v1h-1zM81 82h1v1h-1zM66 83h1v1h-1zM69 83h2v1h-2zM81 83h2v1h-2zM81 84h2v1h-2zM82 85h1v1h-1zM81 86h2v1h-2zM81 89h1v1h-1zM80 90h2v1h-2zM81 92h2v1h-2zM160 92h1v1h-1zM81 94h1v1h-1zM103 94h1v1h-1zM109 94h1v1h-1zM113 94h3v1h-3zM122 94h1v1h-1zM81 96h1v1h-1zM102 96h3v1h-3zM112 96h5v1h-5zM113 97h1v1h-1zM81 98h1v1h-1zM101 98h17v1h-17zM124 98h1v1h-1zM129 99h1v1h-1zM60 100h1v1h-1zM80 100h1v1h-1zM93 100h1v1h-1zM126 100h5v1h-5zM59 101h1v1h-1zM118 101h1v1h-1zM126 101h5v1h-5zM59 102h2v1h-2zM70 102h1v1h-1zM108 102h13v1h-13zM126 102h6v1h-6zM58 103h3v1h-3zM68 103h3v1h-3zM83 103h2v1h-2zM113 103h9v1h-9zM126 103h6v1h-6zM58 104h2v1h-2zM61 104h1v1h-1zM67 104h3v1h-3zM84 104h2v1h-2zM116 104h6v1h-6zM127 104h6v1h-6zM57 105h9v1h-9zM83 105h5v1h-5zM117 105h5v1h-5zM125 105h8v1h-8zM57 106h4v1h-4zM62 106h1v1h-1zM83 106h5v1h-5zM118 106h4v1h-4zM127 106h7v1h-7zM50 107h1v1h-1zM58 107h1v1h-1zM66 107h2v1h-2zM81 107h9v1h-9zM115 107h10v1h-10zM126 107h9v1h-9zM85 108h4v1h-4zM117 108h1v1h-1zM119 108h6v1h-6zM127 108h7v1h-7zM50 109h1v1h-1zM61 109h3v1h-3zM77 109h1v1h-1zM83 109h9v1h-9zM110 109h26v1h-26zM85 110h5v1h-5zM115 110h2v1h-2zM118 110h2v1h-2zM122 110h12v1h-12zM135 110h1v1h-1zM50 111h1v1h-1zM59 111h1v1h-1zM84 111h10v1h-10zM113 111h4v1h-4zM118 111h2v1h-2zM121 111h16v1h-16zM85 112h5v1h-5zM117 112h1v1h-1zM119 112h17v1h-17zM50 113h1v1h-1zM57 113h2v1h-2zM81 113h2v1h-2zM85 113h7v1h-7zM94 113h2v1h-2zM107 113h1v1h-1zM110 113h4v1h-4zM115 113h1v1h-1zM117 113h20v1h-20zM87 114h4v1h-4zM115 114h1v1h-1zM118 114h18v1h-18zM50 115h1v1h-1zM79 115h13v1h-13zM114 115h2v1h-2zM117 115h2v1h-2zM120 115h17v1h-17zM79 116h13v1h-13zM115 116h22v1h-22zM79 117h14v1h-14zM110 117h3v1h-3zM115 117h22v1h-22zM78 118h7v1h-7zM86 118h9v1h-9zM107 118h2v1h-2zM111 118h2v1h-2zM114 118h23v1h-23zM151 118h1v1h-1zM89 119h5v1h-5zM116 119h21v1h-21zM72 120h1v1h-1zM79 120h4v1h-4zM90 120h6v1h-6zM99 120h1v1h-1zM107 120h2v1h-2zM110 120h28v1h-28zM72 121h1v1h-1zM93 121h3v1h-3zM110 121h1v1h-1zM112 121h1v1h-1zM114 121h23v1h-23zM55 122h1v1h-1zM68 122h1v1h-1zM71 122h2v1h-2zM81 122h1v1h-1zM88 122h2v1h-2zM93 122h4v1h-4zM102 122h4v1h-4zM107 122h3v1h-3zM111 122h26v1h-26zM154 122h1v1h-1zM157 122h1v1h-1zM71 123h1v1h-1zM96 123h1v1h-1zM108 123h1v1h-1zM112 123h25v1h-25zM58 124h2v1h-2zM71 124h2v1h-2zM94 124h3v1h-3zM101 124h1v1h-1zM104 124h1v1h-1zM108 124h29v1h-29zM157 124h1v1h-1zM71 125h1v1h-1zM108 125h26v1h-26zM135 125h2v1h-2zM50 126h1v1h-1zM57 126h1v1h-1zM62 126h1v1h-1zM71 126h2v1h-2zM104 126h1v1h-1zM109 126h29v1h-29zM50 127h1v1h-1zM71 127h1v1h-1zM110 127h1v1h-1zM112 127h22v1h-22zM50 128h1v1h-1zM103 128h1v1h-1zM108 128h21v1h-21zM130 128h2v1h-2zM133 128h1v1h-1zM135 128h1v1h-1zM145 128h1v1h-1zM156 128h1v1h-1zM50 129h1v1h-1zM110 129h23v1h-23zM136 129h1v1h-1zM156 129h1v1h-1zM50 130h1v1h-1zM97 130h1v1h-1zM100 130h3v1h-3zM106 130h1v1h-1zM111 130h19v1h-19zM132 130h1v1h-1zM137 130h1v1h-1zM144 130h1v1h-1zM50 131h2v1h-2zM99 131h8v1h-8zM109 131h24v1h-24zM134 131h3v1h-3zM144 131h1v1h-1zM155 131h2v1h-2zM50 132h1v1h-1zM102 132h4v1h-4zM112 132h1v1h-1zM114 132h18v1h-18zM155 132h1v1h-1zM50 133h2v1h-2zM63 133h3v1h-3zM69 133h1v1h-1zM71 133h1v1h-1zM100 133h1v1h-1zM104 133h30v1h-30zM135 133h2v1h-2zM143 133h1v1h-1zM148 133h3v1h-3zM154 133h2v1h-2zM109 134h1v1h-1zM114 134h14v1h-14zM130 134h3v1h-3zM143 134h1v1h-1zM149 134h2v1h-2zM154 134h1v1h-1zM51 135h2v1h-2zM63 135h7v1h-7zM71 135h1v1h-1zM109 135h25v1h-25zM135 135h1v1h-1zM143 135h1v1h-1zM148 135h2v1h-2zM154 135h1v1h-1zM51 136h1v1h-1zM109 136h1v1h-1zM111 136h3v1h-3zM116 136h10v1h-10zM153 136h2v1h-2zM51 137h2v1h-2zM65 137h2v1h-2zM68 137h2v1h-2zM111 137h21v1h-21zM134 137h1v1h-1zM143 137h1v1h-1zM145 137h2v1h-2zM152 137h2v1h-2zM111 138h4v1h-4zM116 138h14v1h-14zM143 138h2v1h-2zM151 138h3v1h-3zM52 139h1v1h-1zM66 139h1v1h-1zM81 139h2v1h-2zM85 139h1v1h-1zM91 139h2v1h-2zM113 139h1v1h-1zM115 139h8v1h-8zM127 139h2v1h-2zM130 139h1v1h-1zM132 139h1v1h-1zM143 139h2v1h-2zM150 139h4v1h-4zM52 140h1v1h-1zM84 140h1v1h-1zM113 140h9v1h-9zM123 140h1v1h-1zM143 140h2v1h-2zM150 140h3v1h-3zM52 141h2v1h-2zM97 141h1v1h-1zM113 141h10v1h-10zM131 141h1v1h-1zM134 141h1v1h-1zM142 141h3v1h-3zM149 141h4v1h-4zM53 142h1v1h-1zM114 142h15v1h-15zM143 142h2v1h-2zM148 142h4v1h-4zM53 143h1v1h-1zM115 143h9v1h-9zM133 143h1v1h-1zM146 143h6v1h-6zM53 144h2v1h-2zM113 144h13v1h-13zM133 144h1v1h-1zM146 144h4v1h-4zM116 145h3v1h-3zM147 145h2v1h-2zM54 146h2v1h-2zM87 146h7v1h-7zM114 146h10v1h-10zM126 146h2v1h-2zM147 146h1v1h-1zM55 147h1v1h-1zM90 147h1v1h-1zM116 147h1v1h-1zM119 147h3v1h-3zM123 147h1v1h-1zM54 148h3v1h-3zM63 148h1v1h-1zM79 148h16v1h-16zM98 148h2v1h-2zM114 148h8v1h-8zM123 148h2v1h-2zM55 149h2v1h-2zM95 149h4v1h-4zM120 149h1v1h-1zM125 149h1v1h-1zM55 150h3v1h-3zM92 150h1v1h-1zM95 150h1v1h-1zM99 150h1v1h-1zM102 150h1v1h-1zM104 150h2v1h-2zM107 150h2v1h-2zM116 150h1v1h-1zM120 150h1v1h-1zM122 150h2v1h-2zM130 150h1v1h-1zM57 151h1v1h-1zM100 151h8v1h-8zM114 151h1v1h-1zM121 151h1v1h-1zM128 151h1v1h-1zM70 152h1v1h-1zM96 152h1v1h-1zM100 152h1v1h-1zM104 152h1v1h-1zM106 152h2v1h-2zM121 152h1v1h-1zM100 153h9v1h-9zM118 153h1v1h-1zM121 153h1v1h-1zM126 153h1v1h-1zM140 153h1v1h-1zM104 154h2v1h-2zM107 154h1v1h-1zM99 155h10v1h-10zM116 155h1v1h-1zM122 155h1v1h-1zM127 155h1v1h-1zM140 155h1v1h-1zM139 156h2v1h-2zM61 157h1v1h-1zM100 157h8v1h-8zM121 157h1v1h-1zM140 157h1v1h-1zM139 158h2v1h-2zM102 159h1v1h-1zM140 159h1v1h-1zM138 160h3v1h-3zM63 161h1v1h-1zM101 161h1v1h-1zM99 162h2v1h-2zM137 162h4v1h-4zM97 164h1v1h-1zM99 164h1v1h-1zM136 164h5v1h-5zM94 165h1v1h-1zM138 165h3v1h-3zM135 166h6v1h-6zM89 167h1v1h-1zM91 167h1v1h-1zM138 167h1v1h-1zM140 167h1v1h-1zM91 168h1v1h-1zM135 168h7v1h-7zM137 169h2v1h-2zM140 169h1v1h-1zM136 170h6v1h-6zM136 171h5v1h-5zM136 172h6v1h-6zM136 173h6v1h-6zM136 174h6v1h-6zM136 175h6v1h-6zM136 176h1v1h-1zM138 176h2v1h-2zM141 176h1v1h-1zM152 176h1v1h-1zM158 176h4v1h-4zM173 176h5v1h-5zM136 177h7v1h-7zM173 177h2v1h-2zM179 177h1v1h-1zM138 178h2v1h-2zM141 178h1v1h-1zM166 178h2v1h-2zM171 178h3v1h-3zM188 178h1v1h-1zM128 179h2v1h-2zM136 179h6v1h-6zM168 179h2v1h-2zM178 179h4v1h-4zM183 179h12v1h-12zM169 180h1v1h-1zM178 180h2v1h-2zM184 180h2v1h-2zM189 180h1v1h-1zM191 180h1v1h-1zM127 181h3v1h-3zM134 181h7v1h-7zM162 181h1v1h-1zM170 181h1v1h-1zM176 181h4v1h-4zM183 181h6v1h-6zM193 181h2v1h-2zM177 182h1v1h-1zM67 183h1v1h-1zM69 183h1v1h-1zM128 183h2v1h-2zM134 183h2v1h-2zM138 183h2v1h-2zM170 183h1v1h-1zM175 183h3v1h-3zM181 183h5v1h-5zM193 183h1v1h-1zM65 185h2v1h-2zM75 185h2v1h-2zM127 185h3v1h-3zM134 185h4v1h-4zM171 185h3v1h-3zM175 185h2v1h-2zM180 185h4v1h-4zM191 185h1v1h-1zM193 185h2v1h-2zM64 187h2v1h-2zM127 187h8v1h-8zM155 187h1v1h-1zM158 187h1v1h-1zM171 187h4v1h-4zM181 187h2v1h-2zM189 187h1v1h-1zM192 187h3v1h-3zM159 188h1v1h-1zM171 189h3v1h-3zM181 189h2v1h-2zM193 189h1v1h-1zM51 191h1v1h-1zM179 191h2v1h-2zM191 191h1v1h-1zM194 191h1v1h-1zM193 193h1v1h-1zM42 194h4v1h-4zM129 194h1v1h-1zM153 195h1v1h-1zM159 195h1v1h-1zM192 195h1v1h-1zM37 196h5v1h-5zM128 196h2v1h-2zM133 196h1v1h-1zM153 197h1v1h-1zM158 197h1v1h-1zM194 197h1v1h-1zM33 198h3v1h-3zM37 198h1v1h-1zM129 198h2v1h-2zM153 199h1v1h-1zM158 199h1v1h-1zM191 199h1v1h-1zM194 199h1v1h-1zM31 200h3v1h-3zM131 200h1v1h-1zM26 202h8v1h-8zM35 202h1v1h-1zM130 202h1v1h-1zM151 203h2v1h-2zM24 204h1v1h-1zM30 204h2v1h-2zM35 204h2v1h-2zM151 205h1v1h-1zM194 205h1v1h-1zM150 207h1v1h-1zM21 209h1v1h-1zM150 209h1v1h-1zM191 209h1v1h-1zM20 211h2v1h-2zM148 211h2v1h-2zM19 213h3v1h-3zM148 213h1v1h-1zM156 213h1v1h-1zM18 215h2v1h-2zM23 215h3v1h-3zM28 215h2v1h-2zM147 215h1v1h-1zM17 217h4v1h-4zM25 217h3v1h-3zM30 217h3v1h-3zM147 217h1v1h-1zM16 219h3v1h-3zM25 219h1v1h-1zM33 219h2v1h-2zM146 219h1v1h-1zM145 220h1v1h-1zM15 221h3v1h-3zM33 221h2v1h-2zM144 221h2v1h-2zM144 222h2v1h-2zM15 223h3v1h-3zM27 223h1v1h-1zM36 223h1v1h-1zM51 223h1v1h-1zM143 224h1v1h-1zM14 225h3v1h-3zM142 226h1v1h-1zM13 227h4v1h-4zM140 228h2v1h-2zM12 229h6v1h-6zM139 230h1v1h-1zM176 230h1v1h-1zM12 231h2v1h-2zM41 232h1v1h-1zM47 232h1v1h-1zM138 232h1v1h-1zM12 233h2v1h-2zM42 234h1v1h-1zM136 234h1v1h-1zM11 235h1v1h-1zM135 235h1v1h-1zM10 236h1v1h-1zM43 236h1v1h-1zM134 236h1v1h-1zM10 238h3v1h-3zM132 238h1v1h-1zM131 239h1v1h-1zM130 240h1v1h-1zM129 241h1v1h-1zM9 242h1v1h-1zM14 242h2v1h-2zM37 242h1v1h-1zM126 243h1v1h-1zM14 244h1v1h-1zM123 245h2v1h-2zM28 246h1v1h-1zM122 246h1v1h-1zM119 247h3v1h-3zM126 247h1v1h-1zM111 249h7v1h-7zM15 257h1v1h-1zM12 259h2v1h-2z" /><path fill="#f0f6fc" d="" /></g><text class="head text" x="400" y="35">aswath<tspan class="muted">@github</tspan></text>
  <text class="muted body" x="400" y="58">──────────────────────────────────────────────────────────</text>

  <text class="body" x="400" y="88"><tspan class="muted" x="400">. </tspan><tspan class="key">Focus</tspan><tspan class="muted"> ................. </tspan><tspan class="value">Applied AI + data systems</tspan><tspan x="400" dy="25" class="muted">. </tspan><tspan class="key">Building</tspan><tspan class="muted"> .............. </tspan><tspan class="value">useful, human-centered software</tspan><tspan x="400" dy="25" class="muted">. </tspan><tspan class="key">Languages</tspan>.<tspan class="key">Code</tspan><tspan class="muted"> ....... </tspan><tspan class="value">Python, TypeScript, JavaScript</tspan><tspan x="400" dy="25" class="muted">. </tspan><tspan class="key">Languages</tspan>.<tspan class="key">Web</tspan><tspan class="muted"> ........ </tspan><tspan class="value">HTML, CSS, JSON</tspan><tspan x="400" dy="25" class="muted">. </tspan><tspan class="key">Tools</tspan><tspan class="muted"> ................. </tspan><tspan class="value">Jupyter, Git, GitHub</tspan></text>

  <text class="body text" x="400" y="235">- Selected Work <tspan class="muted">──────────────────────────────────────────</tspan></text>
  <text class="body" x="400" y="265"><tspan class="muted" x="400">. </tspan><tspan class="key">backup_brain</tspan><tspan class="muted"> ........... </tspan><tspan class="value">personal AI memory research</tspan><tspan x="400" dy="25" class="muted">. </tspan><tspan class="key">costack_web</tspan><tspan class="muted"> ............ </tspan><tspan class="value">salary analytics</tspan><tspan x="400" dy="25" class="muted">. </tspan><tspan class="key">multimodal_lipread</tspan><tspan class="muted"> ...... </tspan><tspan class="value">audio-video machine learning</tspan></text>

  <text class="body text" x="400" y="365">- Contact <tspan class="muted">────────────────────────────────────────────────</tspan></text>
  <text class="body" x="400" y="395"><tspan class="muted" x="400">. </tspan><tspan class="key">GitHub</tspan><tspan class="muted"> ................ </tspan><tspan class="value">github.com/Aswath25S</tspan><tspan x="400" dy="25" class="muted">. </tspan><tspan class="key">LinkedIn</tspan><tspan class="muted"> .............. </tspan><tspan class="value">in/aswathsuresh25</tspan></text>

  <text class="body text" x="400" y="465">- GitHub Stats <tspan class="muted">───────────────────────────────────────────</tspan></text>
  <text class="small" x="400" y="497"><tspan class="muted" x="400">. </tspan><tspan class="key">Repos</tspan><tspan class="muted">: </tspan><tspan class="value" id="repo_data">7</tspan><tspan class="muted">  |  </tspan><tspan class="key">Stars</tspan><tspan class="muted">: </tspan><tspan class="value" id="star_data">0</tspan><tspan class="muted">  |  </tspan><tspan class="key">Followers</tspan><tspan class="muted">: </tspan><tspan class="value" id="follower_data">0</tspan><tspan x="400" dy="23" class="muted">. </tspan><tspan class="key">Contributions this year</tspan><tspan class="muted"> ......................... </tspan><tspan class="value" id="contribution_data">120</tspan></text>
</svg>